<?xml version="1.0" standalone="no"?>
<!DOCTYPE svg PUBLIC "-//W3C//DTD SVG 1.1//EN" "http://www.w3.org/Graphics/SVG/1.1/DTD/svg11.dtd" >
<svg>
<metadata>
Created by FontForge 20120731 at Thu Oct 13 04:28:02 2016
 By ,,,
Copyright 2004 Monotype Imaging, Inc. All rights reserved.
</metadata>
<defs>
<font id="NeoSansPro-Italic" horiz-adv-x="605" >
  <font-face 
    font-family="Neo Sans Pro"
    font-weight="400"
    font-style="italic"
    font-stretch="normal"
    units-per-em="1000"
    panose-1="2 11 5 4 3 5 4 11 2 4"
    ascent="765"
    descent="-235"
    x-height="550"
    cap-height="743"
    bbox="-63.1111 -216 1459 980"
    underline-thickness="57"
    underline-position="-21"
    slope="-12"
    unicode-range="U+0020-FB04"
  />
<missing-glyph horiz-adv-x="500" 
d="M12 0v665h475v-665h-475zM88 618l162 -243l161 243h-323zM60 575v-484l40 61l80 120l41 61zM440 575l-162 -242l162 -243v485zM411 48l-161 242l-162 -242h323z" />
    <glyph glyph-name="f_b" unicode="fb" horiz-adv-x="911" 
d="M569 691h-170q-38 0 -53 -12.5t-23 -56.5l-13 -72h108q19 0 16 -18l-6 -35q-3 -17 -23 -17h-107l-89 -504q-15 -83 -55 -111t-109 -28q-32 0 -59 5q-19 3 -16 16l6 33q2 15 21 15h47q36 0 53 15t24 55l89 504l-93 7q-19 2 -16 17l5 28q4 18 22 18h94l13 72
q15 86 52.5 112.5t111.5 26.5q19 0 108.5 -3.5t100.5 -5.5h43q18 0 14 -19l-33 -186q57 10 119 10q89 0 135 -47t46 -132q0 -32 -6 -66l-13 -72q-45 -247 -261 -247q-96 0 -181 17q-14 3 -16.5 7.5t-0.5 15.5zM845 380q0 52 -25 76t-82 24q-79 0 -119 -7l-70 -397
q66 -6 116 -6q129 0 160 170l13 72q7 36 7 68z" />
    <glyph glyph-name="f_f_b" unicode="ffb" horiz-adv-x="1234" 
d="M1168 380q0 52 -25 76t-82 24q-79 0 -119 -7l-70 -397q66 -6 116 -6q129 0 160 170l13 72q7 36 7 68zM545 550l13 72q15 86 52.5 112.5t111.5 26.5q19 0 108.5 -3.5t100.5 -5.5h43q18 0 14 -19l-33 -186q57 10 119 10q89 0 135 -47t46 -132q0 -32 -6 -66l-13 -72
q-45 -247 -261 -247q-96 0 -181 17q-14 3 -16.5 7.5t-0.5 15.5l115 658h-170q-38 0 -53 -12.5t-23 -56.5l-13 -72h108q19 0 16 -18l-6 -35q-3 -17 -23 -17h-107l-89 -504q-15 -83 -55 -111t-109 -28q-32 0 -59 5q-19 3 -16 16l6 33q2 15 21 15h47q36 0 53 15t24 55l89 504
h-235l-89 -504q-15 -83 -55 -111t-109 -28q-32 0 -59 5q-19 3 -16 16l6 33q2 15 21 15h47q36 0 53 15t24 55l89 504l-93 7q-19 2 -16 17l5 28q4 18 22 18h94l13 72q15 86 52.5 112.5t111.5 26.5q26 0 58 -6q19 -3 16 -16l-6 -33q-3 -15 -20 -15h-48q-38 0 -53 -12.5
t-23 -56.5l-13 -72h235z" />
    <glyph glyph-name="f_f_h" unicode="ffh" horiz-adv-x="1250" 
d="M545 550l13 72q15 86 52.5 112.5t111.5 26.5q19 0 108.5 -3.5t100.5 -5.5h43q18 0 14 -19l-33 -190q61 14 117 14q93 0 140 -44.5t47 -115.5q0 -13 -4 -41l-59 -336q-4 -20 -24 -20h-48q-19 0 -16 20l59 336q4 20 4 40q0 46 -26.5 66t-85.5 20q-65 0 -118 -15l-78 -447
q-1 -7 -3 -10.5t-7 -6.5t-14 -3h-48q-20 0 -16 20l117 671h-170q-38 0 -53 -12.5t-23 -56.5l-13 -72h108q19 0 16 -18l-6 -35q-3 -17 -23 -17h-107l-89 -504q-15 -83 -55 -111t-109 -28q-32 0 -59 5q-19 3 -16 16l6 33q2 15 21 15h47q36 0 53 15t24 55l89 504h-235l-89 -504
q-15 -83 -55 -111t-109 -28q-32 0 -59 5q-19 3 -16 16l6 33q2 15 21 15h47q36 0 53 15t24 55l89 504l-93 7q-19 2 -16 17l5 28q4 18 22 18h94l13 72q15 86 52.5 112.5t111.5 26.5q26 0 58 -6q19 -3 16 -16l-6 -33q-3 -15 -20 -15h-48q-38 0 -53 -12.5t-23 -56.5l-13 -72h235
z" />
    <glyph glyph-name="f_f_j" unicode="ffj" horiz-adv-x="940" 
d="M399 691q-38 0 -53 -12.5t-23 -56.5l-13 -72h235l13 72q15 86 52.5 112.5t111.5 26.5q26 0 58 -6q19 -3 16 -16l-6 -33q-3 -15 -20 -15h-48q-38 0 -53 -12.5t-23 -56.5l-13 -72h304q20 0 16 -20l-104 -594q-13 -74 -49.5 -103.5t-100.5 -29.5q-28 0 -53 4q-16 3 -15 16
l6 37q2 14 24 14h42q28 0 39.5 12t18.5 50l95 544h-235l-89 -504q-15 -83 -55 -111t-109 -28q-32 0 -59 5q-19 3 -16 16l6 33q2 15 21 15h47q36 0 53 15t24 55l89 504h-235l-89 -504q-15 -83 -55 -111t-109 -28q-32 0 -59 5q-19 3 -16 16l6 33q2 15 21 15h47q36 0 53 15
t24 55l89 504l-93 7q-19 2 -16 17l5 28q4 18 22 18h94l13 72q15 86 52.5 112.5t111.5 26.5q26 0 58 -6q19 -3 16 -16l-6 -33q-3 -15 -20 -15h-48zM925 758h51q19 0 16 -20l-14 -80q-4 -20 -24 -20h-51q-20 0 -16 20l14 80q4 20 24 20z" />
    <glyph glyph-name="f_f_k" unicode="ffk" horiz-adv-x="1199" 
d="M533 480h-235l-89 -504q-15 -83 -55 -111t-109 -28q-32 0 -59 5q-19 3 -16 16l6 33q2 15 21 15h47q36 0 53 15t24 55l89 504l-93 7q-19 2 -16 17l5 28q4 18 22 18h94l13 72q15 86 52.5 112.5t111.5 26.5q26 0 58 -6q19 -3 16 -16l-6 -33q-3 -15 -20 -15h-48
q-38 0 -53 -12.5t-23 -56.5l-13 -72h235l13 72q15 86 52.5 112.5t111.5 26.5q19 0 108.5 -3.5t100.5 -5.5h43q18 0 14 -20l-72 -406l230 215q9 9 22 9h68q13 0 13 -10q0 -7 -6 -13l-259 -238l181 -266q3 -5 3 -9q0 -14 -14 -14h-58q-17 0 -27 15l-164 246l-42 -241
q-4 -20 -19 -20h-53q-9 0 -13.5 6t-2.5 14l117 671h-170q-38 0 -53 -12.5t-23 -56.5l-13 -72h108q19 0 16 -18l-6 -35q-3 -17 -23 -17h-107l-89 -504q-15 -83 -55 -111t-109 -28q-32 0 -59 5q-19 3 -16 16l6 33q2 15 21 15h47q36 0 53 15t24 55z" />
    <glyph glyph-name="f_h" unicode="fh" horiz-adv-x="927" 
d="M569 691h-170q-38 0 -53 -12.5t-23 -56.5l-13 -72h108q19 0 16 -18l-6 -35q-3 -17 -23 -17h-107l-89 -504q-15 -83 -55 -111t-109 -28q-32 0 -59 5q-19 3 -16 16l6 33q2 15 21 15h47q36 0 53 15t24 55l89 504l-93 7q-19 2 -16 17l5 28q4 18 22 18h94l13 72
q15 86 52.5 112.5t111.5 26.5q19 0 108.5 -3.5t100.5 -5.5h43q18 0 14 -19l-33 -190q61 14 117 14q93 0 140 -44.5t47 -115.5q0 -13 -4 -41l-59 -336q-4 -20 -24 -20h-48q-19 0 -16 20l59 336q4 20 4 40q0 46 -26.5 66t-85.5 20q-65 0 -118 -15l-78 -447q-1 -7 -3 -10.5
t-7 -6.5t-14 -3h-48q-20 0 -16 20z" />
    <glyph glyph-name="f_j" unicode="fj" horiz-adv-x="617" 
d="M399 691q-38 0 -53 -12.5t-23 -56.5l-13 -72h304q20 0 16 -20l-104 -594q-13 -74 -49.5 -103.5t-100.5 -29.5q-28 0 -53 4q-16 3 -15 16l6 37q2 14 24 14h42q28 0 39.5 12t18.5 50l95 544h-235l-89 -504q-15 -83 -55 -111t-109 -28q-32 0 -59 5q-19 3 -16 16l6 33
q2 15 21 15h47q36 0 53 15t24 55l89 504l-93 7q-19 2 -16 17l5 28q4 18 22 18h94l13 72q15 86 52.5 112.5t111.5 26.5q26 0 58 -6q19 -3 16 -16l-6 -33q-3 -15 -20 -15h-48zM602 758h51q19 0 16 -20l-14 -80q-4 -20 -24 -20h-51q-20 0 -16 20l14 80q4 20 24 20z" />
    <glyph glyph-name="f_k" unicode="fk" horiz-adv-x="876" 
d="M569 691h-170q-38 0 -53 -12.5t-23 -56.5l-13 -72h108q19 0 16 -18l-6 -35q-3 -17 -23 -17h-107l-89 -504q-15 -83 -55 -111t-109 -28q-32 0 -59 5q-19 3 -16 16l6 33q2 15 21 15h47q36 0 53 15t24 55l89 504l-93 7q-19 2 -16 17l5 28q4 18 22 18h94l13 72
q15 86 52.5 112.5t111.5 26.5q19 0 108.5 -3.5t100.5 -5.5h43q18 0 14 -20l-72 -406l230 215q9 9 22 9h68q13 0 13 -10q0 -7 -6 -13l-259 -238l181 -266q3 -5 3 -9q0 -14 -14 -14h-58q-17 0 -27 15l-164 246l-42 -241q-4 -20 -19 -20h-53q-9 0 -13.5 6t-2.5 14z" />
    <glyph glyph-name="f_f" unicode="ff" horiz-adv-x="693" 
d="M399 691q-38 0 -53 -12.5t-23 -56.5l-13 -72h235l13 72q15 86 52.5 112.5t111.5 26.5q26 0 58 -6q19 -3 16 -16l-6 -33q-3 -15 -20 -15h-48q-38 0 -53 -12.5t-23 -56.5l-13 -72h108q19 0 16 -18l-6 -35q-3 -17 -23 -17h-107l-89 -504q-15 -83 -55 -111t-109 -28
q-32 0 -59 5q-19 3 -16 16l6 33q2 15 21 15h47q36 0 53 15t24 55l89 504h-235l-89 -504q-15 -83 -55 -111t-109 -28q-32 0 -59 5q-19 3 -16 16l6 33q2 15 21 15h47q36 0 53 15t24 55l89 504l-93 7q-19 2 -16 17l5 28q4 18 22 18h94l13 72q15 86 52.5 112.5t111.5 26.5
q26 0 58 -6q19 -3 16 -16l-6 -33q-3 -15 -20 -15h-48z" />
    <glyph glyph-name="fi" unicode="fi" horiz-adv-x="617" 
d="M399 691q-38 0 -53 -12.5t-23 -56.5l-13 -72h304q20 0 16 -20l-89 -510q-4 -20 -24 -20h-48q-20 0 -16 20l80 460h-235l-89 -504q-15 -83 -55 -111t-109 -28q-32 0 -59 5q-19 3 -16 16l6 33q2 15 21 15h47q36 0 53 15t24 55l89 504l-93 7q-19 2 -16 17l5 28q4 18 22 18
h94l13 72q15 86 52.5 112.5t111.5 26.5q26 0 58 -6q19 -3 16 -16l-6 -33q-3 -15 -20 -15h-48zM602 758h51q19 0 16 -20l-14 -80q-4 -20 -24 -20h-51q-20 0 -16 20l14 80q4 20 24 20z" />
    <glyph glyph-name="fl" unicode="fl" horiz-adv-x="614" 
d="M399 691q-38 0 -53 -12.5t-23 -56.5l-13 -72h108q19 0 16 -18l-6 -35q-3 -17 -23 -17h-107l-89 -504q-15 -83 -55 -111t-109 -28q-32 0 -59 5q-19 3 -16 16l6 33q2 15 21 15h47q36 0 53 15t24 55l89 504l-93 7q-19 2 -16 17l5 28q4 18 22 18h94l13 72q15 86 52.5 112.5
t111.5 26.5q19 0 108.5 -3.5t100.5 -5.5h43q18 0 14 -19l-125 -713q-4 -20 -22 -20h-52q-8 0 -12 6t-2 14l117 671h-170z" />
    <glyph glyph-name="f_f_i" unicode="ffi" horiz-adv-x="940" 
d="M399 691q-38 0 -53 -12.5t-23 -56.5l-13 -72h235l13 72q15 86 52.5 112.5t111.5 26.5q26 0 58 -6q19 -3 16 -16l-6 -33q-3 -15 -20 -15h-48q-38 0 -53 -12.5t-23 -56.5l-13 -72h304q20 0 16 -20l-89 -510q-4 -20 -24 -20h-48q-20 0 -16 20l80 460h-235l-89 -504
q-15 -83 -55 -111t-109 -28q-32 0 -59 5q-19 3 -16 16l6 33q2 15 21 15h47q36 0 53 15t24 55l89 504h-235l-89 -504q-15 -83 -55 -111t-109 -28q-32 0 -59 5q-19 3 -16 16l6 33q2 15 21 15h47q36 0 53 15t24 55l89 504l-93 7q-19 2 -16 17l5 28q4 18 22 18h94l13 72
q15 86 52.5 112.5t111.5 26.5q26 0 58 -6q19 -3 16 -16l-6 -33q-3 -15 -20 -15h-48zM925 758h51q19 0 16 -20l-14 -80q-4 -20 -24 -20h-51q-20 0 -16 20l14 80q4 20 24 20z" />
    <glyph glyph-name="f_f_l" unicode="ffl" horiz-adv-x="937" 
d="M893 691h-171q-38 0 -53 -12.5t-23 -56.5l-13 -72h108q19 0 16 -18l-6 -35q-3 -17 -23 -17h-107l-89 -504q-15 -83 -55 -111t-109 -28q-32 0 -59 5q-19 3 -16 16l6 33q2 15 21 15h47q36 0 53 15t24 55l89 504h-235l-89 -504q-15 -83 -55 -111t-109 -28q-32 0 -59 5
q-19 3 -16 16l6 33q2 15 21 15h47q36 0 53 15t24 55l89 504l-93 7q-19 2 -16 17l5 28q4 18 22 18h94l13 72q15 86 52.5 112.5t111.5 26.5q26 0 58 -6q19 -3 16 -16l-6 -33q-3 -15 -20 -15h-48q-38 0 -53 -12.5t-23 -56.5l-13 -72h235l13 72q15 86 52.5 112.5t111.5 26.5
q19 0 108.5 -3.5t100.5 -5.5h41q19 0 16 -19l-125 -713q-4 -20 -22 -20h-52q-8 0 -12 6t-2 14z" />
    <glyph glyph-name=".notdef" horiz-adv-x="500" 
d="M12 0v665h475v-665h-475zM88 618l162 -243l161 243h-323zM60 575v-484l40 61l80 120l41 61zM440 575l-162 -242l162 -243v485zM411 48l-161 242l-162 -242h323z" />
    <glyph glyph-name=".null" horiz-adv-x="0" 
 />
    <glyph glyph-name="nonmarkingreturn" horiz-adv-x="333" 
 />
    <glyph glyph-name="space" unicode=" " horiz-adv-x="273" 
 />
    <glyph glyph-name="exclam" unicode="!" horiz-adv-x="217" 
d="M283 736v-3l-99 -520q-4 -19 -23 -19h-36q-16 0 -16 16v3l84 520q2 8 9 13.5t15 5.5h50q16 0 16 -16zM172 116v-3l-17 -94q-3 -19 -22 -19h-48q-16 0 -16 16v3l17 94q4 19 22 19h48q16 0 16 -16z" />
    <glyph glyph-name="quotedbl" unicode="&#x22;" horiz-adv-x="362" 
d="M464 744q0 -4 -3 -11l-91 -189q-10 -19 -22 -19h-47q-8 0 -8 7q0 6 3 12l79 189q8 19 24 19h56q9 0 9 -8zM294 744q0 -4 -3 -11l-91 -189q-10 -19 -22 -19h-47q-8 0 -8 7q0 6 3 12l79 189q8 19 24 19h56q9 0 9 -8z" />
    <glyph glyph-name="numbersign" unicode="#" horiz-adv-x="660" 
d="M701 517q0 -5 -1 -7l-6 -22q-5 -19 -23 -19h-97l-54 -202h98q13 0 13 -14q0 -5 -1 -7l-5 -21q-5 -19 -24 -19h-98l-49 -187q-6 -19 -21 -19h-44q-14 0 -14 14l1 2v3l49 187h-155l-49 -187q-6 -19 -21 -19h-45q-14 0 -14 14q0 1 0.5 2.5t0.5 2.5l49 187h-93q-13 0 -13 14
q0 5 1 7l6 21q5 19 23 19h93l54 202h-94q-14 0 -14 15q0 4 1 6l6 22q5 19 24 19h93l51 193q6 19 22 19h45q13 0 13 -14l-1 -2v-3l-51 -193h155l51 193q6 19 22 19h44q13 0 13 -13q0 -4 -1 -6l-51 -193h98q13 0 13 -14zM496 469h-155l-54 -202h155z" />
    <glyph glyph-name="dollar" unicode="$" 
d="M634 721v-1l-8 -43q-3 -16 -19 -16h-2q-20 0 -80 4.5t-91 4.5q-36 0 -61.5 -4t-51.5 -15t-39.5 -35t-13.5 -61q0 -28 19.5 -48.5t70.5 -54.5l82 -55q70 -47 97 -87.5t27 -87.5q0 -93 -62.5 -152.5t-158.5 -72.5l-16 -94q-4 -20 -24 -20h-47q-16 0 -16 16v3v1l16 90
q-72 1 -141 14q-17 3 -17 12q0 1 0.5 3t0.5 3l8 41q3 16 19 16h2h1q101 -9 164 -9q76 0 125.5 33.5t49.5 105.5q0 29 -21.5 53.5t-76.5 61.5l-87 59q-107 72 -107 160q0 91 59 140.5t154 60.5l14 86q4 20 24 20h47q16 0 16 -16v-3v-1l-14 -83q80 -3 144 -13q14 -2 14 -14v-2
z" />
    <glyph glyph-name="percent" unicode="%" horiz-adv-x="794" 
d="M797 294q0 -25 -4 -46l-17 -93q-15 -85 -55.5 -123.5t-106.5 -38.5q-51 0 -81 31.5t-30 87.5q0 23 4 43l17 93q29 161 163 161q52 0 81 -29.5t29 -85.5zM780 738q0 -6 -7 -14l-543 -708q-16 -20 -26 -20h-49q-8 0 -8 6t6 14l543 708q15 19 26 19h51q7 0 7 -5zM422 635
q0 -25 -4 -46l-17 -93q-15 -85 -55.5 -123.5t-106.5 -38.5q-51 0 -81 31.5t-30 87.5q0 23 4 43l17 93q29 161 163 161q52 0 81 -29.5t29 -85.5zM735 290q0 63 -58 63q-72 0 -91 -105l-17 -93q-4 -21 -4 -42q0 -63 59 -63q71 0 90 105l17 93q4 21 4 42zM360 631q0 63 -58 63
q-72 0 -91 -105l-17 -93q-4 -21 -4 -42q0 -63 59 -63q71 0 90 105l17 93q4 21 4 42z" />
    <glyph glyph-name="ampersand" unicode="&#x26;" horiz-adv-x="678" 
d="M674 365v-4q-34 -158 -108 -244l75 -100q4 -5 4 -9q0 -8 -12 -8h-70q-10 0 -15 7l-40 54q-92 -68 -211 -68q-100 0 -157.5 38.5t-57.5 117.5q0 77 44 127.5t140 104.5l-10 14q-38 52 -54 87t-16 78q0 96 58.5 143t158.5 47q95 0 146.5 -36.5t51.5 -99.5
q0 -70 -42.5 -118.5t-147.5 -109.5l-34 -20l146 -194q50 68 75 189q3 16 16 16h45q15 0 15 -12zM519 614q0 35 -26 52.5t-90 17.5q-71 0 -103 -28t-32 -96q0 -32 12.5 -57t45.5 -69l9 -12l40 22q81 45 102 64q42 39 42 106zM469 113l-162 213q-68 -38 -101.5 -74.5
t-33.5 -99.5q0 -51 33 -70.5t104 -19.5q93 0 160 51z" />
    <glyph glyph-name="quotesingle" unicode="'" horiz-adv-x="192" 
d="M294 744q0 -4 -3 -11l-91 -189q-10 -19 -22 -19h-47q-8 0 -8 7q0 6 3 12l79 189q8 19 24 19h56q9 0 9 -8z" />
    <glyph glyph-name="parenleft" unicode="(" horiz-adv-x="305" 
d="M415 746q0 -4 -6 -12q-228 -266 -228 -641q0 -167 60 -284q2 -6 2 -8q0 -10 -12 -10h-42q-13 0 -21 11q-73 111 -73 309q0 173 60.5 345.5t172.5 284.5q11 11 25 11h53q9 0 9 -6z" />
    <glyph glyph-name="parenright" unicode=")" horiz-adv-x="305" 
d="M320 432q0 -173 -60.5 -345.5t-172.5 -284.5q-11 -11 -25 -11h-53q-9 0 -9 7q0 4 5 11q229 267 229 641q0 167 -60 284q-2 4 -2 7q0 11 13 11h41q13 0 21 -11q73 -111 73 -309z" />
    <glyph glyph-name="asterisk" unicode="*" horiz-adv-x="465" 
d="M525 598q0 -10 -14 -15l-125 -39l77 -106q5 -7 5 -13q0 -7 -6 -11l-24 -18q-4 -3 -8 -3q-8 0 -15 10l-76 106l-76 -106q-7 -10 -15 -10q-4 0 -8 3l-25 18q-6 4 -6 11q0 6 5 13l78 106l-124 39q-15 6 -15 15q0 1 0.5 2.5t0.5 2.5l9 29q3 10 13 10q3 0 9 -2l125 -41l-1 131
q0 19 15 19h30q15 0 15 -19l-1 -131l125 41q6 2 9 2q10 0 13 -10l9 -29q1 -2 1 -5z" />
    <glyph glyph-name="plus" unicode="+" horiz-adv-x="595" 
d="M596 371q0 -16 -20 -16h-172v-171q0 -20 -16 -20h-40q-16 0 -16 20v171h-171q-20 0 -20 16v40q0 16 20 16h171v172q0 20 16 20h40q16 0 16 -20v-172h172q20 0 20 -16v-40z" />
    <glyph glyph-name="comma" unicode="," horiz-adv-x="214" 
d="M189 121q0 -5 -3 -11l-108 -189q-10 -19 -22 -19h-41q-11 0 -11 9q0 4 3 10l90 189q9 19 24 19h58q10 0 10 -8z" />
    <glyph glyph-name="hyphen" unicode="-" horiz-adv-x="333" 
d="M340 315v-3l-7 -39q-3 -17 -22 -17h-199q-16 0 -16 14v3l7 39q4 18 22 18h199q16 0 16 -15z" />
    <glyph glyph-name="period" unicode="." horiz-adv-x="214" 
d="M170 117v-3l-16 -93q-4 -20 -23 -20h-48q-15 0 -15 16v4l16 93q3 19 22 19h48q16 0 16 -16z" />
    <glyph glyph-name="slash" unicode="/" horiz-adv-x="355" 
d="M461 732q0 -3 -2 -9l-349 -703q-10 -20 -22 -20h-51q-11 0 -11 11q0 3 2 9l350 703q10 20 21 20h51q11 0 11 -11z" />
    <glyph glyph-name="zero" unicode="0" 
d="M634 536q0 -45 -9 -97l-23 -135q-28 -165 -103 -238t-197 -73q-94 0 -147 54t-53 163q0 43 9 94l23 135q28 165 103.5 238t197.5 73q96 0 147.5 -53.5t51.5 -160.5zM543 533q0 75 -30.5 107.5t-90.5 32.5q-71 0 -123.5 -58.5t-72.5 -175.5l-23 -135q-9 -56 -9 -96
q0 -74 30 -106t91 -32q71 0 123.5 58t72.5 176l23 135q9 54 9 94z" />
    <glyph glyph-name="one" unicode="1" 
d="M500 0h-410q-20 0 -17 18l7 44q3 17 23 17h159l101 570l-169 -66q-5 -2 -9.5 -2.5t-8 2t-2.5 8.5l9 51q1 8 12 13l193 82q14 6 23 6h41q18 0 15 -19l-114 -645h160q20 0 17 -17l-7 -44q-3 -18 -23 -18z" />
    <glyph glyph-name="two" unicode="2" 
d="M631 599q0 -73 -42.5 -124t-124.5 -101l-108 -65q-91 -54 -126 -98t-47 -111l-4 -21h333q17 0 17 -14v-3l-8 -44q-3 -18 -23 -18h-397q-17 0 -17 16v3l15 81q17 90 62.5 151t136.5 116l113 68q36 22 54.5 34.5t39.5 32.5t29 43.5t8 53.5q0 40 -31 57.5t-104 17.5
t-180 -15q-11 -2 -15.5 2t-1.5 16l7 35q3 14 22 18q83 20 181 20q211 0 211 -151z" />
    <glyph glyph-name="three" unicode="3" 
d="M623 599q0 -69 -34 -127.5t-95 -86.5q68 -37 68 -126q0 -134 -76.5 -200t-214.5 -66q-82 0 -166 20q-17 3 -15 19l6 34q3 19 23 17q103 -14 165 -14q186 0 186 187q0 40 -22.5 67t-74.5 27h-182q-19 0 -16 18l6 35q3 19 22 19h182q69 0 106.5 47t37.5 117q0 50 -29.5 69
t-105.5 19q-50 0 -174 -15h-3q-17 0 -14 17l6 35q3 15 23 19q100 20 172 20q104 0 161.5 -37.5t57.5 -113.5z" />
    <glyph glyph-name="four" unicode="4" 
d="M510 274h87q19 0 16 -18l-7 -40q-4 -18 -22 -18h-87l-31 -178q-3 -20 -21 -20h-58q-16 0 -13 20l31 178h-289q-35 0 -35 26q0 8 1 13l6 38q3 19 19 37l369 415q14 16 32 16h59q26 0 22 -22zM478 605q0 4 -4 4q-3 0 -9 -6l-279 -315q-5 -7 -5 -9q0 -5 7 -5h231l59 329v2z
" />
    <glyph glyph-name="five" unicode="5" 
d="M270 743h344q20 0 17 -17l-8 -44q-3 -16 -23 -16h-287l-54 -216h47q267 0 267 -173q0 -138 -80 -211t-221 -73q-101 0 -173 18q-19 3 -16 20l7 37q3 20 23 15q78 -14 172 -14t144.5 54.5t50.5 148.5q0 60 -42.5 81.5t-144.5 21.5h-117q-20 0 -16 18l87 333q5 17 23 17z
" />
    <glyph glyph-name="six" unicode="6" 
d="M444 750q95 0 169 -17q9 -2 15 -6.5t5 -12.5l-7 -39q-4 -21 -27 -17q-78 16 -168 16q-101 0 -145.5 -55.5t-64.5 -166.5l-2 -11q96 20 154 20q94 0 153 -41.5t59 -125.5q0 -135 -78.5 -218t-214.5 -83q-198 0 -198 196q0 53 6 88l31 175q29 163 104.5 230.5t208.5 67.5z
M494 288q0 102 -133 102q-78 0 -154 -18l-17 -95q-8 -47 -8 -89q0 -69 30 -95t93 -26q88 0 138.5 65t50.5 156z" />
    <glyph glyph-name="seven" unicode="7" 
d="M650 680q0 -32 -15 -55l-394 -610q-10 -15 -25 -15h-63q-12 0 -12 11q0 7 5 15l412 628q2 4 2 6q0 5 -6 5h-338q-20 0 -17 17l8 42q4 19 23 19h324q96 0 96 -63z" />
    <glyph glyph-name="eight" unicode="8" 
d="M651 594q0 -66 -35 -122.5t-94 -83.5q71 -43 71 -133q0 -125 -79 -193.5t-207 -68.5h-10q-90 0 -149.5 48t-59.5 129q0 69 35.5 128t96.5 90q-70 39 -70 122q0 117 80 178.5t200 61.5h10q94 0 152.5 -40.5t58.5 -115.5zM561 579q0 51 -33 74t-101 23h-10
q-75 0 -126.5 -42.5t-51.5 -115.5q0 -42 26 -68t82 -26h62q67 0 109.5 44t42.5 111zM502 251q0 43 -25.5 72t-80.5 29h-62q-73 0 -113.5 -51.5t-40.5 -125.5q0 -55 32 -80.5t98 -25.5h10q86 0 134 49t48 133z" />
    <glyph glyph-name="nine" unicode="9" 
d="M631 554q0 -53 -6 -88l-31 -175q-29 -163 -104.5 -230.5t-208.5 -67.5q-95 0 -169 17q-12 2 -16.5 6t-3.5 13l7 39q2 13 7.5 16t19.5 1q83 -16 168 -16q101 0 145.5 55.5t64.5 166.5l2 11q-96 -20 -154 -20q-94 0 -153 41.5t-59 125.5q0 135 78.5 218t214.5 83
q198 0 198 -196zM543 555q0 69 -30 95t-93 26q-88 0 -138.5 -65t-50.5 -156q0 -102 133 -102q78 0 154 18l17 95q8 47 8 89z" />
    <glyph glyph-name="colon" unicode=":" horiz-adv-x="219" 
d="M246 533v-3l-16 -93q-3 -19 -23 -19h-47q-7 0 -12 4.5t-5 11.5v3l16 93q4 20 24 20h47q7 0 11.5 -5t4.5 -12zM173 116v-3l-17 -94q-3 -19 -23 -19h-47q-7 0 -12 4.5t-5 11.5v3l17 94q4 19 23 19h47q17 0 17 -16z" />
    <glyph glyph-name="semicolon" unicode=";" horiz-adv-x="219" 
d="M246 534v-4l-16 -93q-3 -19 -22 -19h-49q-16 0 -16 16v3l16 93q4 20 23 20h49q15 0 15 -16zM177 120q0 -5 -3 -11l-108 -189q-11 -20 -23 -20h-40q-10 0 -10 9q0 5 3 11l90 189q9 19 24 19h57q10 0 10 -8z" />
    <glyph glyph-name="less" unicode="&#x3c;" horiz-adv-x="595" 
d="M535 150q0 -10 -12 -10h-58q-15 0 -31 13l-241 204q-18 15 -18 34t18 34l241 204q16 13 31 13h58q12 0 12 -10q0 -8 -10 -17l-262 -224l262 -224q10 -9 10 -17z" />
    <glyph glyph-name="equal" unicode="=" horiz-adv-x="595" 
d="M590 482q0 -16 -20 -16h-385q-20 0 -20 16v40q0 16 20 16h385q20 0 20 -16v-40zM590 261q0 -16 -20 -16h-385q-20 0 -20 16v40q0 16 20 16h385q20 0 20 -16v-40z" />
    <glyph glyph-name="greater" unicode="&#x3e;" horiz-adv-x="595" 
d="M582 391q0 -19 -18 -34l-241 -204q-16 -13 -31 -13h-58q-12 0 -12 10q0 8 10 17l262 224l-262 224q-10 9 -10 17q0 10 12 10h58q15 0 31 -13l241 -204q18 -15 18 -34z" />
    <glyph glyph-name="question" unicode="?" horiz-adv-x="446" 
d="M494 627q0 -44 -20.5 -85.5t-41 -63.5t-64.5 -64l-54 -51q-48 -45 -58 -62q-9 -16 -13 -39l-8 -49q-1 -8 -8.5 -13.5t-15.5 -5.5h-44q-15 0 -15 15v3v1l8 49q7 47 26.5 78.5t66.5 74.5l55 51q50 47 69 76t19 75q0 30 -21.5 42t-70.5 12q-53 0 -136 -9h-3q-12 0 -12 12v3
v2l6 35q3 20 21 23q70 13 140 13q78 0 126 -30.5t48 -92.5zM218 115v-3l-17 -93q-3 -19 -22 -19h-48q-17 0 -17 16v3l17 93q2 8 8.5 14t14.5 6h48q16 0 16 -17z" />
    <glyph glyph-name="at" unicode="@" horiz-adv-x="767" 
d="M769 401q0 -189 -95.5 -268t-286.5 -79q-165 0 -165 118q0 20 4 39l24 117q18 89 65 124t134 35q60 0 126 -15q20 -5 20 -19q0 -1 -0.5 -3t-0.5 -3l-63 -313q64 10 104.5 53.5t54 96t13.5 118.5q0 96 -58.5 146t-165.5 50q-129 0 -212 -65.5t-108 -188.5l-31 -152
q-7 -32 -7 -63q0 -90 59.5 -136t171.5 -46q70 0 144 7h2q8 0 8 -6v-1l-4 -32q-1 -12 -17 -14q-64 -8 -141 -8q-129 0 -208 62t-79 173q0 31 6 64l31 156q30 152 130.5 230t264.5 78q124 0 202 -70t78 -185zM500 409q-42 6 -67 6q-44 0 -68 -21.5t-33 -67.5l-23 -114
q-4 -19 -4 -37q0 -30 19 -39.5t53 -9.5h26h1h3q26 0 39 2z" />
    <glyph glyph-name="A" unicode="A" horiz-adv-x="633" 
d="M607 19q0 -19 -17 -19h-60q-12 0 -14 15l-25 230h-259l-104 -230q-6 -15 -21 -15h-61q-14 0 -14 13q0 6 2 10l300 651q35 76 115 76q79 0 88 -75l70 -652v-4zM486 324l-33 329q-2 18 -16 18q-15 0 -23 -18l-149 -329h221z" />
    <glyph glyph-name="B" unicode="B" horiz-adv-x="616" 
d="M661 574q0 -11 -4 -33q-22 -117 -134 -157q40 -16 62 -51.5t22 -80.5q0 -20 -5 -47q-21 -119 -104.5 -165.5t-224.5 -46.5q-107 0 -162 9q-27 4 -27 26q0 7 1 11l117 666q6 32 39 37q68 8 160 8q118 0 189 -38t71 -120v-18zM570 572v11q0 52 -45.5 71t-136.5 19
q-16 0 -100 -3l-44 -248h154q145 0 168 119q4 21 4 31zM516 251q0 98 -130 98h-154l-49 -275q10 0 46.5 -2t56.5 -2q66 0 110 11t75 41.5t40 82.5q5 27 5 46z" />
    <glyph glyph-name="C" unicode="C" horiz-adv-x="545" 
d="M456 750q67 0 165 -16q8 -1 11.5 -3.5t2.5 -9.5l-9 -51q-1 -12 -17 -11q-105 9 -166 9q-80 0 -136.5 -53.5t-77.5 -173.5l-25 -139q-7 -39 -7 -74q0 -153 141 -153q23 0 167 8q12 1 15.5 -2.5t1.5 -13.5l-7 -41q-2 -9 -6.5 -13.5t-17.5 -6.5q-70 -13 -168 -13
q-40 0 -77 12.5t-69 38t-51.5 71.5t-19.5 107q0 39 7 80l25 139q56 309 318 309z" />
    <glyph glyph-name="D" unicode="D" horiz-adv-x="641" 
d="M668 516q0 -38 -7 -77l-23 -135q-54 -311 -358 -311q-122 0 -180 10q-20 4 -17 25l121 687q5 22 25 25q60 10 184 10q118 0 186.5 -59.5t68.5 -174.5zM577 511q0 161 -178 161q-61 0 -111 -3l-105 -596q32 -2 111 -2q96 0 164.5 55.5t88.5 177.5l23 135q7 38 7 72z" />
    <glyph glyph-name="E" unicode="E" horiz-adv-x="551" 
d="M410 668q-77 0 -104.5 -22t-37.5 -82l-24 -139h307q19 0 16 -20l-6 -38q-4 -20 -24 -20h-307l-29 -168q-5 -27 -5 -41q0 -34 23.5 -48.5t85.5 -14.5h190q8 0 10.5 -2.5t1.5 -9.5l-9 -49q-2 -12 -12 -14q-68 -7 -196 -7q-87 0 -135.5 36.5t-48.5 107.5q0 22 4 42l67 385
q19 106 77 146t169 40q145 0 194 -9q11 -1 8 -14l-9 -47q-1 -12 -13 -12h-193z" />
    <glyph glyph-name="F" unicode="F" horiz-adv-x="551" 
d="M410 668q-77 0 -104.5 -22t-37.5 -82l-24 -139h307q20 0 16 -20l-6 -38q-4 -20 -24 -20h-307l-57 -327q-4 -20 -23 -20h-51q-21 0 -17 20l95 544q19 107 77 146.5t169 39.5q142 0 189 -8q16 -2 13 -15l-9 -47q-2 -12 -13 -12h-193z" />
    <glyph glyph-name="G" unicode="G" horiz-adv-x="612" 
d="M458 750q102 0 188 -14q17 -2 14 -15l-9 -50q-1 -12 -18 -10q-81 7 -189 7q-36 0 -68 -11t-62.5 -35.5t-53.5 -71.5t-34 -112l-23 -134q-8 -48 -8 -79q0 -151 135 -151q55 0 127 6l51 286q4 20 21 20h54q16 0 16 -17v-3l-60 -336q-3 -19 -22 -22q-94 -15 -201 -15
q-88 0 -149.5 59t-61.5 176q0 38 7 76l23 134q54 312 323 312z" />
    <glyph glyph-name="H" unicode="H" horiz-adv-x="680" 
d="M662 743h51q19 0 16 -20l-123 -703q-4 -20 -24 -20h-51q-19 0 -16 20l58 332h-342l-58 -332q-4 -20 -24 -20h-51q-9 0 -13.5 6t-2.5 14l123 703q4 20 24 20h51q19 0 16 -20l-51 -290h342l51 290q1 7 3 10.5t7 6.5t14 3z" />
    <glyph glyph-name="I" unicode="I" horiz-adv-x="267" 
d="M237 743h55q18 0 15 -19l-124 -704q-3 -20 -22 -20h-55q-18 0 -14 20l124 704q4 19 21 19z" />
    <glyph glyph-name="J" unicode="J" horiz-adv-x="257" 
d="M238 743h53q19 0 16 -19l-135 -761q-13 -73 -56 -108t-124 -35q-32 0 -48 7q-8 3 -7 12l6 37q3 17 23 17h39q38 0 53.5 15.5t22.5 54.5l135 761q4 19 22 19z" />
    <glyph glyph-name="K" unicode="K" horiz-adv-x="607" 
d="M691 733q0 -6 -5 -11l-370 -340l239 -366q2 -4 2 -6q0 -10 -11 -10h-72q-14 0 -20 10l-222 346l-59 -336q-2 -10 -6 -15t-16 -5h-55q-8 0 -12 6t-2 14l124 704q4 19 22 19h53q20 0 16 -19l-55 -314l336 324q10 9 22 9h78q13 0 13 -10z" />
    <glyph glyph-name="L" unicode="L" horiz-adv-x="514" 
d="M506 63v-3l-7 -44q-1 -12 -13 -14q-61 -9 -196 -9q-85 0 -134 30.5t-49 111.5q0 30 5 56l93 532q4 20 24 20h51q9 0 13.5 -6t2.5 -14l-95 -544q-5 -27 -5 -44q0 -34 23 -47t86 -13h188q13 0 13 -12z" />
    <glyph glyph-name="M" unicode="M" horiz-adv-x="761" 
d="M718 743h68q29 0 24 -29l-122 -694q-1 -7 -3 -10.5t-7 -6.5t-14 -3h-49q-19 0 -16 20l103 588q1 6 -1 6l-3 -3l-193 -293q-19 -29 -50 -29h-46q-18 0 -26.5 6.5t-13.5 22.5l-88 292q-2 6 -4 6t-3 -8l-103 -588q-4 -20 -24 -20h-49q-9 0 -13.5 6t-2.5 14l122 694
q5 29 34 29h62q24 0 29 -17l105 -343q4 -11 10 -11q7 0 14 11l225 343q10 17 35 17z" />
    <glyph glyph-name="N" unicode="N" horiz-adv-x="680" 
d="M641 724l-102 -580q-1 -8 -3 -8q-1 0 -4 8l-208 579q-4 12 -10.5 16t-26.5 4h-49q-29 0 -34 -28l-124 -703q-3 -12 10 -12h58q17 0 21 19l103 584q0 3 2 3l2 -3l210 -587q6 -16 29 -16h58q29 0 34 29l123 695v4q0 15 -15 15h-53q-17 0 -21 -19z" />
    <glyph glyph-name="O" unicode="O" horiz-adv-x="661" 
d="M686 520q0 -36 -8 -84l-23 -129q-55 -314 -325 -314q-101 0 -162.5 58.5t-61.5 171.5q0 36 8 84l23 129q56 314 326 314q102 0 162.5 -59.5t60.5 -170.5zM594 519q0 79 -37 114t-108 35q-85 0 -142 -57t-78 -175l-23 -129q-7 -39 -7 -76q0 -83 37 -119.5t108 -36.5
q84 0 141 57.5t78 174.5l23 129q8 41 8 83z" />
    <glyph glyph-name="P" unicode="P" horiz-adv-x="593" 
d="M645 574q0 -18 -3 -41l-2 -13q-10 -65 -38.5 -110.5t-72.5 -69.5t-94 -34t-115 -10q-36 0 -99 5l-49 -281q-4 -20 -22 -20h-54q-17 0 -14 20l122 697q5 22 29 25q70 8 167 8q116 0 180.5 -43.5t64.5 -132.5zM554 568q0 57 -40 81t-127 24q-53 0 -101 -4l-52 -293
q92 -4 100 -4q100 0 151.5 37t63.5 111l2 13q3 19 3 35z" />
    <glyph glyph-name="Q" unicode="Q" horiz-adv-x="661" 
d="M686 520q0 -36 -8 -84l-23 -129q-51 -288 -282 -312l-7 -43q-3 -16 -3 -27q0 -19 11.5 -25t42.5 -6h59q10 0 15 -3.5t4 -12.5l-6 -34q-4 -24 -85 -24q-67 0 -99 20t-32 71q0 20 4 40l8 45q-82 13 -130.5 70t-48.5 157q0 36 8 84l23 129q56 314 326 314q102 0 162.5 -59.5
t60.5 -170.5zM594 519q0 79 -37 114t-108 35q-85 0 -142 -57t-78 -175l-23 -129q-7 -39 -7 -76q0 -83 37 -119.5t108 -36.5q84 0 141 57.5t78 174.5l23 129q8 41 8 83z" />
    <glyph glyph-name="R" unicode="R" horiz-adv-x="625" 
d="M655 572q0 -18 -3 -37l-1 -7q-12 -85 -63 -136t-130 -66l130 -307q2 -4 2 -9q0 -10 -11 -10h-69q-7 0 -9.5 0.5t-5 3.5t-5.5 9l-126 298h-31q-35 0 -110 3l-51 -294q-4 -20 -22 -20h-54q-17 0 -14 20l123 700q4 19 28 22q70 8 177 8q113 0 179 -44t66 -134zM565 568
q0 57 -39.5 78.5t-129.5 21.5q-87 0 -111 -3l-48 -274q50 -2 110 -2q194 0 214 139l1 7q3 18 3 33z" />
    <glyph glyph-name="S" unicode="S" horiz-adv-x="550" 
d="M406 750q113 0 187 -12q10 -2 12.5 -5t1.5 -12l-7 -43q-2 -10 -6 -13.5t-16 -2.5q-88 6 -172 6q-34 0 -60.5 -4t-52 -14t-39.5 -31t-14 -53q0 -35 18.5 -58.5t70.5 -57.5l82 -55q69 -46 97.5 -89.5t28.5 -98.5q0 -103 -77.5 -158.5t-201.5 -55.5q-84 0 -170 14
q-18 3 -16 18l7 40q2 11 6.5 14t16.5 2q67 -6 164 -6q175 0 175 132q0 34 -20 58t-76 62l-87 59q-109 74 -109 175q0 98 72.5 143.5t184.5 45.5z" />
    <glyph glyph-name="T" unicode="T" horiz-adv-x="590" 
d="M458 665l-113 -645q-4 -20 -22 -20h-55q-8 0 -12 6t-2 14l113 645h-195q-9 0 -13.5 3.5t-3.5 12.5l8 44q4 18 23 18h481q20 0 16 -18l-8 -44q-3 -16 -22 -16h-195z" />
    <glyph glyph-name="U" unicode="U" horiz-adv-x="662" 
d="M645 743h54q20 0 16 -19l-80 -454q-26 -146 -100.5 -211.5t-204.5 -65.5q-101 0 -157.5 52t-56.5 152q0 37 7 73l80 454q4 19 22 19h54q20 0 16 -19l-80 -454q-8 -43 -8 -72q0 -64 32.5 -95.5t104.5 -31.5q90 0 135.5 49t63.5 150l80 454q4 19 22 19z" />
    <glyph glyph-name="V" unicode="V" horiz-adv-x="643" 
d="M662 743h61q22 0 12 -23l-299 -651q-35 -76 -115 -76q-81 0 -89 76l-70 651q-2 23 21 23h56q13 0 15 -15l62 -637q2 -21 16 -21t23 21l287 637l4 8t5 4.5t11 2.5z" />
    <glyph glyph-name="W" unicode="W" horiz-adv-x="825" 
d="M846 743h59q20 0 13 -20l-230 -676q-17 -51 -71 -51h-43q-21 0 -33.5 13.5t-14.5 36.5l-33 370q-1 9 -5 9q-5 0 -9 -9l-164 -370q-22 -50 -66 -50h-42q-26 0 -39.5 10.5t-13.5 39.5v1l8 676q0 20 21 20h57q14 0 14 -17l-15 -637q0 -15 3 -15q2 0 9 15l163 370
q18 40 54 40h64q37 0 40 -40l33 -370q2 -15 4 -15q3 0 8 15l209 637q6 17 20 17z" />
    <glyph glyph-name="X" unicode="X" horiz-adv-x="646" 
d="M719 731q0 -5 -5 -12l-279 -345l164 -349q2 -6 2 -8q0 -17 -19 -17h-50q-11 0 -18 15l-135 288l-233 -288q-12 -15 -24 -15h-60q-14 0 -14 12q0 6 5 13l290 355l-159 339q-2 4 -2 7q0 17 18 17h51q12 0 16 -10l133 -284l232 284q8 10 21 10h52q14 0 14 -12z" />
    <glyph glyph-name="Y" unicode="Y" horiz-adv-x="583" 
d="M677 731q0 -5 -5 -13l-217 -348q-33 -53 -65 -66l-50 -284q-4 -20 -22 -20h-55q-17 0 -14 20l50 284q-28 12 -43 66l-92 348q-7 25 18 25h58q12 0 16 -14l80 -324q7 -26 19 -26q11 0 27 26l197 324q8 14 25 14h58q15 0 15 -12z" />
    <glyph glyph-name="Z" unicode="Z" horiz-adv-x="597" 
d="M645 674q0 -39 -39 -85l-429 -493q-4 -4 -4 -8q0 -6 8 -6h357q20 0 17 -17l-8 -47q-1 -6 -2.5 -9.5t-6.5 -6t-14 -2.5h-343q-100 0 -100 76q0 41 29 74l425 492q8 9 8 14q0 6 -9 6h-327q-19 0 -17 17l8 47q3 17 23 17h330q51 0 72.5 -17.5t21.5 -51.5z" />
    <glyph glyph-name="bracketleft" unicode="[" horiz-adv-x="327" 
d="M430 727v-4l-5 -33q-4 -20 -24 -20h-114l-139 -791h114q16 0 16 -16v-4l-6 -33q-4 -20 -23 -20h-186q-14 0 -14 15v4l159 899q4 19 20 19h186q16 0 16 -16z" />
    <glyph glyph-name="backslash" unicode="\" horiz-adv-x="355" 
d="M319 0h-51q-12 0 -14 20l-103 703v2q0 7 5 12.5t12 5.5h51q11 0 13 -20l101 -683q3 -18 3 -23q0 -7 -5 -12t-12 -5z" />
    <glyph glyph-name="bracketright" unicode="]" horiz-adv-x="327" 
d="M375 728v-4l-159 -899q-4 -19 -20 -19h-186q-17 0 -17 17v3l6 33q4 20 24 20h114l139 791h-114q-16 0 -16 16v4l5 33q4 20 24 20h186q14 0 14 -15z" />
    <glyph glyph-name="asciicircum" unicode="^" horiz-adv-x="595" 
d="M578 572q0 -9 -11 -9h-60q-13 0 -28 18l-103 120l-103 -120q-15 -18 -28 -18h-60q-11 0 -11 9q0 6 4 11l115 149q14 18 30 18h106q16 0 30 -18l115 -149q4 -5 4 -11z" />
    <glyph glyph-name="underscore" unicode="_" horiz-adv-x="494" 
d="M514 -62v-3l-5 -25q-3 -16 -23 -16h-515q-17 0 -17 13v3l5 25q3 16 22 16h515q18 0 18 -13z" />
    <glyph glyph-name="grave" unicode="`" horiz-adv-x="372" 
d="M354 632q0 -9 -10 -9h-54q-10 0 -21 15l-90 126q-3 5 -3 7q0 8 12 8h66q13 0 23 -15l75 -124q2 -3 2 -8z" />
    <glyph glyph-name="a" unicode="a" horiz-adv-x="527" 
d="M358 557q85 0 175 -23q13 -3 16 -7.5t1 -15.5l-86 -491q-4 -20 -23 -20h-40q-18 0 -15 22l5 31q-47 -34 -80 -47t-81 -13q-68 0 -112 44.5t-44 132.5q0 28 6 60l18 99q41 228 260 228zM455 473q-54 10 -97 10q-145 0 -174 -163l-18 -103q-4 -20 -4 -46q0 -104 87 -104
q59 0 145 58z" />
    <glyph glyph-name="b" unicode="b" horiz-adv-x="541" 
d="M552 378q0 -32 -6 -66l-13 -72q-45 -247 -261 -247q-96 0 -181 17q-14 3 -16.5 7.5t-0.5 15.5l123 700q4 19 22 19h51q19 0 15 -19l-33 -186q57 10 119 10q89 0 135 -47t46 -132zM465 380q0 52 -25 76t-82 24q-79 0 -119 -7l-70 -397q66 -6 116 -6q129 0 160 170l13 72
q7 36 7 68z" />
    <glyph glyph-name="c" unicode="c" horiz-adv-x="452" 
d="M348 480q-60 0 -101 -44.5t-54 -121.5l-13 -78q-6 -34 -6 -60q0 -106 101 -106q64 0 126 7q11 2 15.5 -2t2.5 -13l-6 -36q-1 -10 -6.5 -15t-17.5 -7q-61 -11 -127 -11q-85 0 -130 52t-45 136q0 23 5 55l13 78q20 120 86 181.5t170 61.5q64 0 123 -11q13 -2 15.5 -6.5
t0.5 -15.5l-6 -36q-3 -18 -24 -15q-60 7 -122 7z" />
    <glyph glyph-name="d" unicode="d" horiz-adv-x="541" 
d="M514 733q4 19 23 19h51q17 0 14 -19l-123 -700q-3 -19 -25 -23q-91 -17 -187 -17q-89 0 -135 49.5t-46 134.5q0 30 6 63l13 72q23 128 86.5 186.5t174.5 58.5q62 0 115 -10zM468 473q-37 7 -115 7q-129 0 -160 -168l-13 -72q-7 -42 -7 -65q0 -52 25.5 -78.5t81.5 -26.5
q48 0 118 6z" />
    <glyph glyph-name="e" unicode="e" horiz-adv-x="544" 
d="M555 371q0 -29 -6 -60l-8 -42q-5 -22 -22 -22h-337l-2 -12q-6 -34 -6 -61q0 -107 124 -107q79 0 173 14q12 2 16 -1t3 -13l-6 -34q-2 -11 -7 -16t-17 -7q-91 -17 -175 -17q-83 0 -140 45.5t-57 139.5q0 29 6 62l13 70q23 120 91 183.5t174 63.5q89 0 136 -51.5t47 -134.5
zM467 374q0 106 -108 106q-63 0 -106 -44.5t-57 -116.5l-1 -5h265l1 5q6 30 6 55z" />
    <glyph glyph-name="f" unicode="f" horiz-adv-x="370" 
d="M399 691q-38 0 -53 -12.5t-23 -56.5l-13 -72h108q19 0 16 -18l-6 -35q-3 -17 -23 -17h-107l-89 -504q-15 -83 -55 -111t-109 -28q-32 0 -59 5q-19 3 -16 16l6 33q2 15 21 15h47q36 0 53 15t24 55l89 504l-93 7q-19 2 -16 17l5 28q4 18 22 18h94l13 72q15 86 52.5 112.5
t111.5 26.5q26 0 58 -6q19 -3 16 -16l-6 -33q-3 -15 -20 -15h-48z" />
    <glyph glyph-name="g" unicode="g" horiz-adv-x="541" 
d="M92 239l13 73q24 132 87.5 188.5t178.5 56.5q81 0 175 -23q13 -3 16 -7.5t1 -15.5l-90 -510q-20 -113 -73.5 -155.5t-164.5 -42.5q-106 0 -167 18q-12 3 -15 7.5t-1 13.5l5 29q2 10 7 13.5t17 2.5q102 -12 167 -12q67 0 96 26t40 94l2 12q-61 -14 -114 -14
q-85 0 -135.5 44t-50.5 135q0 31 6 67zM468 472q-59 11 -110 11q-70 0 -109.5 -41.5t-55.5 -129.5l-13 -73q-7 -38 -7 -71q0 -56 26.5 -78.5t85.5 -22.5q64 0 114 11z" />
    <glyph glyph-name="h" unicode="h" horiz-adv-x="557" 
d="M556 397q0 -13 -4 -41l-59 -336q-4 -20 -24 -20h-48q-19 0 -16 20l59 336q4 20 4 40q0 46 -26.5 66t-85.5 20q-65 0 -118 -15l-78 -447q-1 -7 -3 -10.5t-7 -6.5t-14 -3h-48q-20 0 -16 20l125 713q4 19 22 19h51q19 0 15 -19l-33 -190q61 14 117 14q93 0 140 -44.5
t47 -115.5z" />
    <glyph glyph-name="i" unicode="i" horiz-adv-x="247" 
d="M232 758h51q19 0 16 -20l-14 -80q-4 -20 -24 -20h-51q-20 0 -16 20l14 80q4 20 24 20zM196 550h48q20 0 16 -20l-89 -510q-4 -20 -24 -20h-48q-20 0 -16 20l89 510q3 20 24 20z" />
    <glyph glyph-name="j" unicode="j" horiz-adv-x="247" 
d="M232 758h51q19 0 16 -20l-14 -80q-4 -20 -24 -20h-51q-20 0 -16 20l14 80q4 20 24 20zM68 -64l104 594q3 20 24 20h48q20 0 16 -20l-104 -594q-13 -74 -49.5 -103.5t-100.5 -29.5q-28 0 -53 4q-16 3 -15 16l6 37q2 14 24 14h42q28 0 39.5 12t18.5 50z" />
    <glyph glyph-name="k" unicode="k" horiz-adv-x="496" 
d="M546 540q0 -7 -6 -13l-259 -238l181 -266q3 -5 3 -9q0 -14 -14 -14h-58q-17 0 -27 15l-164 246l-42 -241q-4 -20 -19 -20h-53q-9 0 -13.5 6t-2.5 14l125 712q4 20 24 20h48q20 0 16 -20l-72 -406l230 215q9 9 22 9h68q13 0 13 -10z" />
    <glyph glyph-name="l" unicode="l" horiz-adv-x="244" 
d="M229 752h52q18 0 14 -19l-125 -713q-4 -20 -22 -20h-52q-8 0 -12 6t-2 14l125 713q3 19 22 19z" />
    <glyph glyph-name="m" unicode="m" horiz-adv-x="797" 
d="M800 412q0 -16 -5 -43l-61 -349q-4 -20 -24 -20h-48q-9 0 -13.5 6t-2.5 14l61 349q4 21 4 42q0 38 -19 53.5t-60 15.5q-65 0 -122 -29q6 -33 -2 -80l-61 -351q-4 -20 -22 -20h-53q-17 0 -13 20l61 351q7 38 7 54q0 55 -60 55q-51 0 -133 -38l-74 -422q-4 -20 -22 -20h-53
q-17 0 -13 20l89 510q4 20 23 20h48q19 0 15 -20l-3 -19q77 46 146 46q32 0 59 -12.5t41 -32.5q81 45 164 45q73 0 109.5 -38.5t36.5 -106.5z" />
    <glyph glyph-name="n" unicode="n" horiz-adv-x="557" 
d="M556 403q0 -26 -5 -54l-58 -329q-4 -20 -24 -20h-48q-9 0 -13.5 6t-2.5 14l58 329q5 32 5 55q0 38 -20.5 57t-72.5 19q-60 0 -141 -38l-74 -422q-2 -8 -9 -14t-15 -6h-49q-8 0 -12.5 6.5t-2.5 13.5l89 510q4 20 26 20h42q22 0 19 -20l-3 -21q85 48 161 48t113 -42.5
t37 -111.5z" />
    <glyph glyph-name="o" unicode="o" horiz-adv-x="545" 
d="M555 369q0 -24 -5 -56l-13 -76q-42 -244 -266 -244q-88 0 -136 51.5t-48 137.5q0 23 5 55l13 76q42 244 265 244q90 0 137.5 -51.5t47.5 -136.5zM467 370q0 110 -110 110q-65 0 -108 -45t-56 -122l-13 -76q-6 -33 -6 -59q0 -54 26.5 -81t83.5 -27q65 0 108.5 46t56.5 121
l13 76q5 26 5 57z" />
    <glyph glyph-name="p" unicode="p" horiz-adv-x="541" 
d="M552 374q0 -31 -6 -64l-13 -72q-23 -128 -85 -186.5t-176 -58.5q-57 0 -115 11l-32 -181q-4 -19 -23 -19h-51q-14 0 -14 15v3v1l121 688q2 11 7 15.5t18 7.5q97 23 188 23q89 0 135 -49.5t46 -133.5zM465 379q0 53 -25 78.5t-82 25.5q-63 0 -119 -10l-69 -396
q53 -10 115 -10q128 0 160 171l13 72q7 36 7 69z" />
    <glyph glyph-name="q" unicode="q" horiz-adv-x="541" 
d="M366 557q90 0 180 -23q13 -3 16 -7.5t1 -15.5l-121 -688q-3 -19 -22 -19h-51q-18 0 -15 19l32 181q-63 -11 -119 -11q-87 0 -134 48t-47 133q0 30 6 64l13 72q22 125 84.5 186t176.5 61zM468 473q-54 10 -115 10q-66 0 -106 -47t-54 -126l-13 -72q-8 -43 -8 -71
q0 -52 25.5 -76t82.5 -24q62 0 119 10z" />
    <glyph glyph-name="r" unicode="r" horiz-adv-x="342" 
d="M233 439l-73 -419q-4 -20 -24 -20h-49q-8 0 -12.5 6t-2.5 14l89 510q4 20 23 20h47q9 0 13 -6t2 -14l-4 -23q64 50 148 50h2q21 0 18 -18l-7 -42q-3 -17 -24 -17h-3q-78 0 -143 -41z" />
    <glyph glyph-name="s" unicode="s" horiz-adv-x="466" 
d="M329 557q85 0 147 -13q11 -2 14 -5.5t1 -14.5l-5 -33q-3 -20 -23 -17q-68 8 -147 8q-105 0 -105 -71q0 -31 54 -66l89 -59q51 -34 70 -63.5t19 -70.5q0 -82 -61.5 -120.5t-153.5 -38.5q-96 0 -156 15q-20 4 -17 20l6 35q2 10 7.5 13t17.5 2q86 -11 155 -11q49 0 81 20
t32 65q0 18 -12.5 33.5t-45.5 37.5l-90 59q-84 55 -84 130q0 40 18 69.5t48.5 45t65.5 23t75 7.5z" />
    <glyph glyph-name="t" unicode="t" horiz-adv-x="375" 
d="M316 550h108q19 0 16 -20l-6 -34q-3 -20 -23 -20h-108l-62 -351q-3 -18 -3 -29q0 -20 10 -26t36 -6h61q17 0 14 -14l-6 -35q-3 -14 -21 -17q-33 -5 -63 -5q-120 0 -120 95q0 18 4 39l62 349l-95 11q-19 2 -16 18l5 27q4 18 22 18h97l16 98q3 17 22 20l53 8q10 1 13.5 -4
t1.5 -13z" />
    <glyph glyph-name="u" unicode="u" horiz-adv-x="557" 
d="M518 550h49q19 0 15 -20l-89 -510q-4 -20 -23 -20h-47q-9 0 -13 6t-2 14l3 18q-87 -45 -166 -45q-67 0 -106.5 40.5t-39.5 117.5q0 28 6 61l56 318q4 20 24 20h48q19 0 16 -20l-58 -329q-6 -33 -6 -57q0 -41 21.5 -57.5t71.5 -16.5q62 0 142 37l74 423q4 20 24 20z" />
    <glyph glyph-name="v" unicode="v" horiz-adv-x="530" 
d="M586 538q0 -6 -3 -12l-208 -454q-36 -79 -111 -79q-74 0 -83 79l-48 454q-3 24 19 24h51q15 0 16 -19l35 -434q2 -31 19 -31q15 0 29 31l189 434q9 19 26 19h56q13 0 13 -12z" />
    <glyph glyph-name="w" unicode="w" horiz-adv-x="786" 
d="M770 550h56q24 0 15 -24l-179 -464q-26 -69 -96 -69q-29 0 -47 19.5t-21 55.5l-29 337q-1 7 -4 7t-6 -7l-147 -337q-17 -39 -38.5 -57t-55.5 -18q-69 0 -72 69l-15 465q0 8 7 15.5t16 7.5h52q14 0 14 -16l3 -453q0 -12 6 -12q5 0 10 12l165 381q14 30 46 30h56
q31 0 34 -30l31 -381q1 -12 6 -12q6 0 10 12l163 453q6 16 20 16z" />
    <glyph glyph-name="x" unicode="x" horiz-adv-x="547" 
d="M594 540q0 -7 -7 -15l-214 -243l134 -259q3 -5 3 -10q0 -13 -16 -13h-56q-13 0 -20 14l-104 201l-181 -205q-9 -10 -19 -10h-58q-9 0 -12 4t-1.5 9t5.5 10l230 262l-124 240q-3 6 -3 10q0 15 17 15h55q10 0 18 -14l96 -185l162 185q13 14 23 14h61q11 0 11 -10z" />
    <glyph glyph-name="y" unicode="y" horiz-adv-x="534" 
d="M592 537q0 -5 -3 -11l-267 -576q-39 -84 -82 -116t-127 -32q-46 0 -82 9q-7 2 -10.5 3.5t-6.5 4.5t-2 8l7 37q2 11 7 14t18 2q63 -6 88 -6q44 0 68.5 17t45.5 68l17 41h-11q-27 0 -43.5 16t-22.5 62l-51 448q-1 15 4 19.5t17 4.5h52q12 0 14 -16l42 -434q2 -22 15 -22h16
l202 457q6 15 22 15h59q14 0 14 -13z" />
    <glyph glyph-name="z" unicode="z" horiz-adv-x="466" 
d="M493 481q0 -35 -27 -63l-313 -325q-7 -7 -7 -12q0 -7 10 -7h255q20 0 16 -20l-6 -34q-2 -12 -6.5 -16t-16.5 -4h-253q-43 0 -65 20t-22 50q0 36 23 59l319 331q6 6 6 11t-10 5h-246q-19 0 -16 20l6 34q4 20 23 20h250q40 0 60 -19.5t20 -49.5z" />
    <glyph glyph-name="braceleft" unicode="{" horiz-adv-x="331" 
d="M430 726v-3l-5 -33q-4 -20 -24 -20h-45q-43 0 -58 -12.5t-22 -52.5l-32 -178q-10 -55 -32 -91t-66 -63q48 -42 48 -111q0 -23 -4 -42l-31 -176q-3 -17 -3 -29q0 -21 13 -28.5t48 -7.5h46q16 0 16 -16v-4l-6 -33q-4 -20 -23 -20h-42q-142 0 -142 96q0 22 4 42l31 176
q5 28 5 44q0 47 -43 81l10 58q39 24 56.5 50.5t25.5 73.5l32 178q15 85 51.5 111.5t129.5 26.5h46q16 0 16 -17z" />
    <glyph glyph-name="bar" unicode="|" horiz-adv-x="249" 
d="M246 -175q0 -8 -5.5 -13.5t-12.5 -5.5h-52q-8 0 -13.5 6t-5.5 13v899q0 8 5.5 13.5t13.5 5.5h52q7 0 12.5 -5.5t5.5 -13.5v-899z" />
    <glyph glyph-name="braceright" unicode="}" horiz-adv-x="331" 
d="M364 303l-10 -58q-39 -24 -56.5 -51t-25.5 -74l-31 -176q-15 -84 -49 -111t-128 -27h-51q-7 0 -12 5t-5 12v2v1l6 33q4 20 24 20h46q44 0 58.5 12.5t21.5 52.5l31 176q9 54 31.5 90t66.5 63q-49 46 -49 108q0 18 5 46l32 178q3 17 3 29q0 21 -13 28.5t-48 7.5h-45
q-16 0 -16 17v3l5 33q4 20 24 20h50q71 0 102 -23t31 -72q0 -22 -4 -43l-32 -178q-5 -28 -5 -44q0 -46 43 -80z" />
    <glyph glyph-name="asciitilde" unicode="~" horiz-adv-x="595" 
d="M581 467q0 -64 -25.5 -96t-83.5 -32q-40 0 -76 28l-73 58q-42 29 -53 31q-26 0 -34 -14t-8 -45v-26q0 -8 -6 -14t-14 -6h-29q-8 0 -14 6t-6 14v26q0 64 28.5 97t82.5 33q40 0 75 -28l85 -68q24 -20 42 -20q27 0 33.5 11.5t6.5 44.5v28q0 8 6 14t14 6h29q8 0 14 -6t6 -14
v-28z" />
    <glyph glyph-name="uni00A0" unicode="&#xa0;" horiz-adv-x="273" 
 />
    <glyph glyph-name="exclamdown" unicode="&#xa1;" horiz-adv-x="217" 
d="M247 534v-3l-17 -94q-4 -19 -22 -19h-48q-16 0 -16 16v3l17 94q3 19 22 19h48q16 0 16 -16zM207 340v-3l-84 -520q-2 -8 -9 -13.5t-15 -5.5h-50q-16 0 -16 16v3l99 520q4 19 23 19h36q16 0 16 -16z" />
    <glyph glyph-name="cent" unicode="&#xa2;" 
d="M546 531q0 -1 -0.5 -3t-0.5 -4l-6 -36q-3 -15 -21 -15h-3q-69 8 -122 8q-61 0 -101 -42t-54 -125l-13 -78q-5 -33 -5 -56q0 -111 100 -111q56 0 126 8h4q14 0 14 -12v-3l-6 -36q-1 -10 -6.5 -15t-17.5 -7q-47 -7 -96 -10l-16 -90q-4 -20 -23 -20h-41q-17 0 -17 17v3
l17 94q-61 12 -93.5 62t-32.5 122q0 22 5 54l13 78q18 111 73.5 169.5t131.5 68.5l17 93q4 20 23 20h41q17 0 17 -17v-3l-16 -89q49 -3 92 -10q17 -3 17 -15z" />
    <glyph glyph-name="sterling" unicode="&#xa3;" 
d="M664 717q0 -1 -0.5 -2.5t-0.5 -2.5l-8 -41q-3 -17 -19 -17h-4q-95 11 -152 11q-77 0 -110.5 -36.5t-50.5 -138.5l-11 -65h215q16 0 16 -15v-3l-8 -42q-4 -18 -23 -18h-214l-27 -152q-10 -57 -56 -119h319q18 0 18 -12v-3l-8 -44q-3 -17 -23 -17h-399q-14 0 -14 12v3l7 39
q1 5 14 23q23 29 33.5 54t17.5 64l27 152h-52q-15 0 -15 14v4l8 42q4 18 23 18h50l11 65q22 134 81.5 193t184.5 59q77 0 153 -13q17 -3 17 -12z" />
    <glyph glyph-name="currency" unicode="&#xa4;" 
d="M612 574q0 -8 -7 -15l-82 -82q33 -47 33 -104q0 -59 -34 -106l82 -82q7 -7 7 -15q0 -7 -5 -12l-27 -27q-5 -5 -11 -5q-8 0 -15 7l-84 84q-46 -33 -102 -33q-57 0 -104 33l-82 -82q-8 -8 -16 -8q-5 0 -10 5l-27 28q-5 7 -5 11q0 8 7 15l81 81q-34 46 -34 106q0 58 32 103
l-81 81q-7 7 -7 15t5 12l28 27q5 5 11 5q7 0 15 -8l80 -80q47 34 106 34q58 0 106 -34l82 82q7 7 15 7q6 0 11 -5l27 -27q5 -5 5 -11zM485 373q0 49 -35 84t-85 35t-85 -35t-35 -84t35.5 -84.5t84.5 -35.5t84.5 35.5t35.5 84.5z" />
    <glyph glyph-name="yen" unicode="&#xa5;" 
d="M694 732q0 -8 -5 -14l-161 -236h110q16 0 16 -16v-4l-5 -30q-4 -20 -23 -20h-145l-75 -110l-3 -21h200q16 0 16 -16v-4l-5 -30q-4 -20 -24 -20h-200l-33 -191q-4 -20 -22 -20h-57q-13 0 -13 15v5l33 191h-201q-16 0 -16 16v4l5 30q4 20 24 20h201l3 21l-35 110h-146
q-17 0 -17 17v3l5 30q4 20 24 20h111l-77 236q-2 6 -2 9q0 16 19 16h59q11 0 15 -14l102 -339l222 339q8 14 19 14h66q15 0 15 -11z" />
    <glyph glyph-name="brokenbar" unicode="&#xa6;" horiz-adv-x="249" 
d="M229 362q0 -8 -5.5 -14t-12.5 -6h-53q-7 0 -12.5 6t-5.5 14v347q0 8 5.5 13.5t12.5 5.5h53q7 0 12.5 -5.5t5.5 -13.5v-347zM229 -191q0 -8 -5.5 -14t-12.5 -6h-53q-7 0 -12.5 6t-5.5 14v347q0 8 5.5 13.5t12.5 5.5h53q7 0 12.5 -5.5t5.5 -13.5v-347z" />
    <glyph glyph-name="section" unicode="&#xa7;" horiz-adv-x="547" 
d="M607 721v-3l-8 -43q-3 -17 -21 -17h-1q-22 1 -80.5 5t-91.5 4q-35 0 -60.5 -4t-51 -15t-38.5 -34.5t-13 -58.5q0 -25 18 -46t65 -52l97 -64q63 -41 88.5 -78.5t25.5 -81.5q0 -82 -53 -148q17 -34 17 -70q0 -81 -41 -134.5t-103 -75t-142 -21.5t-166 14q-15 2 -15 16v3
l7 42q3 17 23 17h2q135 -10 160 -10q176 0 176 141q0 28 -18.5 50t-68.5 56l-100 67q-104 70 -104 156q0 68 56 136q-19 36 -19 75q0 203 272 203q100 0 173 -13q15 -4 15 -16zM443 216q0 28 -18 49.5t-64 53.5l-80 55q-52 37 -64 47q-20 -40 -20 -70q0 -50 71 -97l99 -66
q31 -21 59 -43q17 34 17 71z" />
    <glyph glyph-name="dieresis" unicode="&#xa8;" horiz-adv-x="373" 
d="M445 744v-3l-15 -81q-1 -8 -8 -13.5t-15 -5.5h-39q-17 0 -17 16v3l15 81q2 8 9 14t14 6h39q7 0 12 -5t5 -12zM270 744v-3l-15 -81q-1 -8 -8 -13.5t-15 -5.5h-39q-17 0 -17 16v3l15 81q2 8 9 14t14 6h39q7 0 12 -5t5 -12z" />
    <glyph glyph-name="copyright" unicode="&#xa9;" horiz-adv-x="750" 
d="M770 374q0 -134 -96 -229t-230 -95t-229 95t-95 229q0 135 95 231t229 96t230 -96.5t96 -230.5zM726 374q0 117 -82.5 200t-199.5 83t-199 -83t-82 -200t82 -198.5t199 -81.5t199.5 81.5t82.5 198.5zM546 183q0 -13 -15 -15q-35 -7 -91 -7q-69 0 -111 44t-42 139v66
q0 95 42 139.5t111 44.5q51 0 91 -8q15 -2 15 -14v-28q0 -12 -13 -12h-3q-52 5 -90 5q-91 0 -91 -127v-66q0 -126 91 -126q38 0 90 5h2q14 0 14 -13v-27z" />
    <glyph glyph-name="ordfeminine" unicode="&#xaa;" horiz-adv-x="302" 
d="M378 665q0 -16 -3 -34l-32 -181q-2 -13 -12 -16q-54 -13 -101 -13q-57 0 -83.5 17.5t-26.5 55.5q0 7 2 25l1 7q7 48 45.5 70t112.5 22h32l2 13q2 18 2 24q0 21 -10.5 30t-34.5 9q-28 0 -85 -5h-2q-11 0 -11 10v3l3 21q1 12 18 14q49 9 87 9q96 0 96 -81zM307 576h-23h-9
q-49 -2 -69.5 -12.5t-24.5 -37.5l-1 -7q-2 -12 -2 -16q0 -35 61 -35q21 0 49 5z" />
    <glyph glyph-name="guillemotleft" unicode="&#xab;" horiz-adv-x="614" 
d="M645 477q0 -9 -8 -15l-210 -185l139 -185q4 -6 4 -11q0 -11 -12 -11h-53q-10 0 -19 10l-139 169q-8 9 -8 25q0 21 12 31l199 169q12 10 25 10h61q9 0 9 -7zM385 477q0 -9 -8 -15l-210 -185l139 -185q4 -6 4 -11q0 -11 -12 -11h-53q-10 0 -19 10l-139 169q-8 9 -8 25
q0 21 12 31l199 169q12 10 25 10h61q9 0 9 -7z" />
    <glyph glyph-name="logicalnot" unicode="&#xac;" horiz-adv-x="595" 
d="M585 247q0 -8 -6 -14t-14 -6h-32q-8 0 -14 6t-6 14v219h-333q-20 0 -20 16v40q0 16 20 16h388q17 0 17 -17v-274z" />
    <glyph glyph-name="uni00AD" unicode="&#xad;" horiz-adv-x="333" 
d="M340 315v-3l-7 -39q-3 -17 -22 -17h-199q-16 0 -16 14v3l7 39q4 18 22 18h199q16 0 16 -15z" />
    <glyph glyph-name="registered" unicode="&#xae;" horiz-adv-x="598" 
d="M655 484q0 -112 -79 -190t-191 -78t-190.5 78t-78.5 190t78.5 190.5t190.5 78.5t191 -78.5t79 -190.5zM614 484q0 94 -67 161.5t-162 67.5q-94 0 -160.5 -67t-66.5 -162q0 -94 66 -160.5t161 -66.5t162 66.5t67 160.5zM511 331q0 -13 -12 -13h-28q-8 0 -12 8l-81 128
l-10 3h-42v-124q0 -6 -4 -10.5t-10 -4.5h-25q-13 0 -13 15v302q0 21 18 22q23 3 76 3q65 0 98 -23t33 -78v-4q0 -71 -67 -90l77 -125q2 -4 2 -9zM449 555v4q0 30 -18 42t-60 12h-32h-14v-112q6 0 24 -0.5t22 -0.5q42 0 60 12.5t18 42.5z" />
    <glyph glyph-name="macron" unicode="&#xaf;" horiz-adv-x="373" 
d="M479 729v-3l-6 -34q-3 -17 -23 -17h-288q-17 0 -17 14v3l6 34q3 17 23 17h288q17 0 17 -14z" />
    <glyph glyph-name="degree" unicode="&#xb0;" horiz-adv-x="342" 
d="M422 608q0 -58 -42 -100t-100 -42q-59 0 -101 42t-42 100t42 100t101 42q58 0 100 -42t42 -100zM368 608q0 36 -26 62t-62 26t-62 -26t-26 -62t26 -62t62 -26t62 26t26 62z" />
    <glyph glyph-name="plusminus" unicode="&#xb1;" horiz-adv-x="595" 
d="M574 371q0 -16 -20 -16h-172v-171q0 -20 -16 -20h-40q-16 0 -16 20v171h-171q-20 0 -20 16v40q0 16 20 16h171v172q0 20 16 20h40q16 0 16 -20v-172h172q20 0 20 -16v-40zM574 9q0 -16 -20 -16h-415q-20 0 -20 16v33q0 16 20 16h415q20 0 20 -16v-33z" />
    <glyph glyph-name="two.superior" unicode="&#xb2;" horiz-adv-x="341" 
d="M413 663q0 -44 -24 -73t-70 -58l-58 -36q-45 -28 -60 -50t-22 -57l-1 -5h173q6 0 9 -2t2 -8l-6 -37q-2 -10 -15 -10h-225q-10 0 -10 12l7 40q9 55 34.5 93t80.5 71l61 37q38 23 49 37.5t11 38.5q0 19 -16.5 26.5t-57.5 7.5q-48 0 -90 -7q-8 -1 -11 1.5t-1 8.5l6 31
q1 7 14 10q52 12 97 12q58 0 90.5 -21.5t32.5 -61.5z" />
    <glyph glyph-name="three.superior" unicode="&#xb3;" horiz-adv-x="338" 
d="M186 734q39 12 91 12q62 0 96.5 -25.5t34.5 -68.5q0 -73 -68 -109q35 -22 35 -75q0 -74 -45.5 -109.5t-122.5 -35.5q-55 0 -93 12q-9 2 -8 11l5 29q2 11 12 11q3 0 19 -2q38 -4 61 -4q54 0 81.5 17t27.5 69q0 51 -51 51h-100q-12 0 -10 11l6 31q2 11 14 11h98
q36 0 55 19.5t19 54.5q0 25 -20 35t-65 10q-31 0 -80 -7q-6 -1 -8.5 2t-1.5 9l5 30q1 7 13 11z" />
    <glyph glyph-name="acute" unicode="&#xb4;" horiz-adv-x="373" 
d="M469 773q0 -4 -5 -9l-136 -126q-16 -15 -25 -15h-54q-8 0 -8 6q0 5 6 11l120 124q15 15 26 15h66q10 0 10 -6z" />
    <glyph glyph-name="mu" unicode="&#xb5;" horiz-adv-x="557" 
d="M582 534v-4l-85 -486q-3 -17 -23 -23q-81 -28 -190 -28q-78 0 -124 29l-35 -198q-4 -20 -24 -20h-48q-16 0 -16 16v4l124 706q4 20 23 20h50q15 0 15 -16v-4l-58 -329q-4 -20 -4 -42q0 -91 110 -91q68 0 118 14l79 448q2 8 9 14t15 6h49q15 0 15 -16z" />
    <glyph glyph-name="paragraph" unicode="&#xb6;" horiz-adv-x="622" 
d="M686 731q0 -1 -0.5 -3.5t-0.5 -3.5l-159 -900q-4 -19 -20 -19h-23q-14 0 -14 15v4l152 865h-58l-152 -865q-4 -19 -20 -19h-23q-14 0 -14 15v4l77 439h-98q-93 0 -149.5 49t-56.5 131q0 23 4 43l6 34q18 106 93.5 164.5t181.5 58.5h260q14 0 14 -12z" />
    <glyph glyph-name="periodcentered" unicode="&#xb7;" horiz-adv-x="214" 
d="M227 442v-4l-16 -93q-4 -20 -23 -20h-48q-15 0 -15 16v4l16 93q3 19 23 19h48q15 0 15 -15z" />
    <glyph glyph-name="cedilla" unicode="&#xb8;" horiz-adv-x="366" 
d="M247 -38q0 -4 -5 -9l-136 -126q-16 -15 -25 -15h-54q-8 0 -8 6q0 5 6 11l119 124q15 15 27 15h66q10 0 10 -6z" />
    <glyph glyph-name="one.superior" unicode="&#xb9;" horiz-adv-x="282" 
d="M280 743h32q10 0 9 -10l-69 -395q0 -11 -12 -11h-45q-8 0 -7 11l60 341l-78 -31q-12 -6 -11 7l6 37q1 8 10 11l79 33q15 7 26 7z" />
    <glyph glyph-name="ordmasculine" unicode="&#xba;" horiz-adv-x="322" 
d="M401 643q0 -22 -4 -42l-6 -35q-12 -70 -52 -107.5t-103 -37.5q-108 0 -108 104q0 21 4 41l6 35q12 70 52 107.5t104 37.5q107 0 107 -103zM339 635q0 58 -55 58q-71 0 -86 -92l-6 -35q-3 -18 -3 -33q0 -60 56 -60q70 0 85 93l6 35q3 20 3 34z" />
    <glyph glyph-name="guillemotright" unicode="&#xbb;" horiz-adv-x="614" 
d="M635 280q0 -21 -12 -31l-199 -169q-12 -10 -25 -10h-61q-9 0 -9 7q0 9 8 15l210 185l-139 185q-4 6 -4 11q0 11 12 11h53q10 0 19 -10l139 -169q8 -9 8 -25zM375 280q0 -21 -12 -31l-199 -169q-12 -10 -25 -10h-61q-9 0 -9 7q0 9 8 15l210 185l-139 185q-4 6 -4 11
q0 11 12 11h53q10 0 19 -10l139 -169q8 -9 8 -25z" />
    <glyph glyph-name="onequarter" unicode="&#xbc;" horiz-adv-x="737" 
d="M272 743h32q10 0 9 -10l-69 -395q0 -11 -12 -11h-45q-8 0 -7 11l60 341l-78 -31q-12 -6 -11 7l6 37q1 8 10 11l79 33q15 7 26 7zM739 738q0 -6 -7 -14l-543 -708q-16 -20 -26 -20h-49q-8 0 -8 6t6 14l543 708q15 19 26 19h51q7 0 7 -5zM728 124q-3 -17 -22 -17h-38
l-15 -88q-2 -7 -8 -13t-14 -6h-31q-17 0 -13 19l15 88h-147q-17 0 -23 6t-3 22l3 20q3 15 13 26l202 224q11 11 22 11h31q22 0 19 -20l-41 -233h38q8 0 12.5 -5t3.5 -12zM613 163l28 162l-141 -162h113z" />
    <glyph glyph-name="onehalf" unicode="&#xbd;" horiz-adv-x="790" 
d="M272 743h32q10 0 9 -10l-69 -395q0 -11 -12 -11h-45q-8 0 -7 11l60 341l-78 -31q-12 -6 -11 7l6 37q1 8 10 11l79 33q15 7 26 7zM739 738q0 -6 -7 -14l-543 -708q-16 -20 -26 -20h-49q-8 0 -8 6t6 14l543 708q15 19 26 19h51q7 0 7 -5zM792 336q0 -44 -24 -73t-70 -58
l-58 -36q-45 -28 -60 -50t-22 -57l-1 -5h173q6 0 9 -2t2 -8l-6 -37q-2 -10 -15 -10h-225q-10 0 -10 12l7 40q10 55 35 93t80 71l61 37q38 23 49 37.5t11 38.5q0 19 -16.5 26.5t-57.5 7.5q-48 0 -90 -7q-8 -1 -11 1.5t-1 8.5l6 31q1 7 14 10q52 12 97 12q58 0 90.5 -21.5
t32.5 -61.5z" />
    <glyph glyph-name="threequarters" unicode="&#xbe;" horiz-adv-x="798" 
d="M800 738q0 -6 -7 -14l-543 -708q-16 -20 -26 -20h-49q-8 0 -8 6t6 14l543 708q15 19 26 19h51q7 0 7 -5zM789 124q-3 -17 -22 -17h-38l-15 -88q-2 -7 -8 -13t-14 -6h-31q-17 0 -13 19l15 88h-147q-17 0 -23 6t-3 22l3 20q3 15 13 26l202 224q11 11 22 11h31q22 0 19 -20
l-41 -233h38q8 0 12.5 -5t3.5 -12zM674 163l28 162l-141 -162h113zM187 734q39 12 91 12q62 0 96.5 -25.5t34.5 -68.5q0 -73 -68 -109q35 -22 35 -75q0 -74 -45.5 -109.5t-122.5 -35.5q-55 0 -93 12q-9 2 -8 11l5 29q2 11 12 11q3 0 19 -2q38 -4 61 -4q54 0 81.5 17t27.5 69
q0 51 -51 51h-100q-12 0 -10 11l6 31q2 11 14 11h98q36 0 55 19.5t19 54.5q0 25 -20 35t-65 10q-31 0 -80 -7q-6 -1 -8.5 2t-1.5 9l5 30q1 7 13 11z" />
    <glyph glyph-name="questiondown" unicode="&#xbf;" horiz-adv-x="446" 
d="M422 534v-3l-17 -93q-2 -8 -8.5 -14t-14.5 -6h-48q-16 0 -16 17v3l17 93q3 19 22 19h48q17 0 17 -16zM384 338v-1l-8 -49q-7 -47 -26.5 -78.5t-66.5 -74.5l-55 -51q-50 -47 -69 -76t-19 -75q0 -30 21.5 -42t70.5 -12q53 0 136 9h3q12 0 12 -12v-3v-2l-6 -35
q-3 -20 -21 -23q-70 -13 -140 -13q-78 0 -126 30.5t-48 92.5q0 44 20.5 85.5t41 63.5t64.5 64l54 51q48 45 58 62q9 16 13 39l8 49q1 8 8.5 13.5t15.5 5.5h44q15 0 15 -15v-3z" />
    <glyph glyph-name="Agrave" unicode="&#xc0;" horiz-adv-x="633" 
d="M607 19q0 -19 -17 -19h-60q-12 0 -14 15l-25 230h-259l-104 -230q-6 -15 -21 -15h-61q-14 0 -14 13q0 6 2 10l300 651q35 76 115 76q79 0 88 -75l70 -652v-4zM486 324l-33 329q-2 18 -16 18q-15 0 -23 -18l-149 -329h221zM526 803q0 -9 -10 -9h-54q-10 0 -21 15l-90 126
q-3 5 -3 7q0 8 12 8h66q13 0 23 -15l75 -124q2 -3 2 -8z" />
    <glyph glyph-name="Aacute" unicode="&#xc1;" horiz-adv-x="633" 
d="M607 19q0 -19 -17 -19h-60q-12 0 -14 15l-25 230h-259l-104 -230q-6 -15 -21 -15h-61q-14 0 -14 13q0 6 2 10l300 651q35 76 115 76q79 0 88 -75l70 -652v-4zM486 324l-33 329q-2 18 -16 18q-15 0 -23 -18l-149 -329h221zM635 944q0 -4 -5 -9l-136 -126q-16 -15 -25 -15
h-54q-8 0 -8 6q0 5 6 11l120 124q15 15 26 15h66q10 0 10 -6z" />
    <glyph glyph-name="Acircumflex" unicode="&#xc2;" horiz-adv-x="633" 
d="M607 19q0 -19 -17 -19h-60q-12 0 -14 15l-25 230h-259l-104 -230q-6 -15 -21 -15h-61q-14 0 -14 13q0 6 2 10l300 651q35 76 115 76q79 0 88 -75l70 -652v-4zM486 324l-33 329q-2 18 -16 18q-15 0 -23 -18l-149 -329h221zM630 803q0 -9 -10 -9h-49q-11 0 -21 15l-64 97
l-101 -97q-15 -15 -25 -15h-55q-8 0 -8 6q0 5 6 11l118 124q15 15 26 15h85q13 0 23 -15l73 -124q2 -3 2 -8z" />
    <glyph glyph-name="Atilde" unicode="&#xc3;" horiz-adv-x="633" 
d="M607 19q0 -19 -17 -19h-60q-12 0 -14 15l-25 230h-259l-104 -230q-6 -15 -21 -15h-61q-14 0 -14 13q0 6 2 10l300 651q35 76 115 76q79 0 88 -75l70 -652v-4zM486 324l-33 329q-2 18 -16 18q-15 0 -23 -18l-149 -329h221zM660 920v-3l-4 -23q-9 -54 -32.5 -79.5
t-69.5 -25.5q-49 0 -76 26l-47 44q-23 22 -37 22q-34 0 -40 -46l-3 -21q-2 -17 -17 -17h-34q-13 0 -13 14v3l3 21q15 109 104 109q39 0 74 -31l54 -49q16 -14 32 -14t25 9.5t13 34.5l4 23q4 17 17 17h34q13 0 13 -14z" />
    <glyph glyph-name="Adieresis" unicode="&#xc4;" horiz-adv-x="633" 
d="M607 19q0 -19 -17 -19h-60q-12 0 -14 15l-25 230h-259l-104 -230q-6 -15 -21 -15h-61q-14 0 -14 13q0 6 2 10l300 651q35 76 115 76q79 0 88 -75l70 -652v-4zM486 324l-33 329q-2 18 -16 18q-15 0 -23 -18l-149 -329h221zM611 911v-3l-15 -81q-1 -8 -8 -13.5t-15 -5.5
h-39q-17 0 -17 16v3l15 81q2 8 9 14t14 6h39q7 0 12 -5t5 -12zM436 911v-3l-15 -81q-1 -8 -8 -13.5t-15 -5.5h-39q-17 0 -17 16v3l15 81q2 8 9 14t14 6h39q7 0 12 -5t5 -12z" />
    <glyph glyph-name="Aring" unicode="&#xc5;" horiz-adv-x="633" 
d="M607 19q0 -19 -17 -19h-60q-12 0 -14 15l-25 230h-259l-104 -230q-6 -15 -21 -15h-61q-14 0 -14 13q0 6 2 10l300 651q35 76 115 76q79 0 88 -75l70 -652v-4zM486 324l-33 329q-2 18 -16 18q-15 0 -23 -18l-149 -329h221zM567 878q0 -42 -29.5 -71.5t-71.5 -29.5
t-72 29.5t-30 71.5t30 72t72 30t71.5 -30t29.5 -72zM519 879q0 22 -15.5 37t-37.5 15t-37 -15t-15 -37t15 -37.5t37 -15.5t37.5 15.5t15.5 37.5z" />
    <glyph glyph-name="AE" unicode="&#xc6;" horiz-adv-x="859" 
d="M933 732v-3l-9 -53q-2 -12 -13 -12h-286l-43 -239h277q16 0 16 -16v-4l-6 -38q-4 -20 -24 -20h-277l-29 -168q-5 -30 -5 -45q0 -34 23 -46.5t86 -12.5h163q9 0 9 -9v-3l-9 -49q-2 -12 -12 -14q-68 -7 -166 -7q-185 0 -185 140q0 19 5 46l11 66h-239l-104 -230
q-6 -15 -21 -15h-59q-14 0 -14 13q0 7 2 10l299 645q20 44 47.5 59.5t68.5 15.5h487q7 0 7 -11zM534 664h-111q-15 0 -23 -17l-147 -323h220z" />
    <glyph glyph-name="Ccedilla" unicode="&#xc7;" horiz-adv-x="545" 
d="M635 723v-2l-9 -51q-1 -11 -14 -11h-3q-105 9 -166 9q-80 0 -136.5 -53.5t-77.5 -173.5l-25 -139q-7 -39 -7 -74q0 -153 141 -153q71 0 167 8h4q13 0 13 -11v-5l-7 -41q-3 -16 -24 -20q-70 -13 -168 -13q-40 0 -77 12.5t-69 38t-51.5 71.5t-19.5 107q0 39 7 80l25 139
q56 309 318 309q67 0 165 -16q14 -2 14 -11zM375 -38q0 -3 -6 -9l-136 -126q-15 -15 -25 -15h-54q-8 0 -8 6q0 5 6 11l119 124q15 15 27 15h66q11 0 11 -6z" />
    <glyph glyph-name="Egrave" unicode="&#xc8;" horiz-adv-x="551" 
d="M625 729v-2l-9 -47q-2 -12 -13 -12h-193q-77 0 -104.5 -22t-37.5 -82l-24 -139h307q16 0 16 -17v-3l-6 -38q-4 -20 -24 -20h-307l-29 -168q-5 -27 -5 -41q0 -34 23.5 -48.5t85.5 -14.5h193q9 0 9 -9v-3l-9 -49q-2 -12 -12 -14q-68 -7 -196 -7q-87 0 -135.5 36.5
t-48.5 107.5q0 22 4 42l67 385q19 106 77 146t169 40q145 0 194 -9q8 -1 8 -12zM501 802q0 -9 -10 -9h-54q-11 0 -21 15l-90 126q-3 4 -3 7q0 8 12 8h66q13 0 23 -15l75 -124q2 -3 2 -8z" />
    <glyph glyph-name="Eacute" unicode="&#xc9;" horiz-adv-x="551" 
d="M625 729v-2l-9 -47q-2 -12 -13 -12h-193q-77 0 -104.5 -22t-37.5 -82l-24 -139h307q16 0 16 -17v-3l-6 -38q-4 -20 -24 -20h-307l-29 -168q-5 -27 -5 -41q0 -34 23.5 -48.5t85.5 -14.5h193q9 0 9 -9v-3l-9 -49q-2 -12 -12 -14q-68 -7 -196 -7q-87 0 -135.5 36.5
t-48.5 107.5q0 22 4 42l67 385q19 106 77 146t169 40q145 0 194 -9q8 -1 8 -12zM612 944q0 -4 -5 -9l-136 -126q-17 -15 -25 -15h-54q-8 0 -8 6q0 5 6 11l120 124q15 15 26 15h66q10 0 10 -6z" />
    <glyph glyph-name="Ecircumflex" unicode="&#xca;" horiz-adv-x="551" 
d="M625 729v-2l-9 -47q-2 -12 -13 -12h-193q-77 0 -104.5 -22t-37.5 -82l-24 -139h307q16 0 16 -17v-3l-6 -38q-4 -20 -24 -20h-307l-29 -168q-5 -27 -5 -41q0 -34 23.5 -48.5t85.5 -14.5h193q9 0 9 -9v-3l-9 -49q-2 -12 -12 -14q-68 -7 -196 -7q-87 0 -135.5 36.5
t-48.5 107.5q0 22 4 42l67 385q19 106 77 146t169 40q145 0 194 -9q8 -1 8 -12zM598 803q0 -9 -10 -9h-49q-11 0 -21 15l-64 97l-101 -97q-15 -15 -25 -15h-55q-8 0 -8 6q0 5 6 11l118 124q15 15 26 15h85q13 0 23 -15l73 -124q2 -3 2 -8z" />
    <glyph glyph-name="Edieresis" unicode="&#xcb;" horiz-adv-x="551" 
d="M625 729v-2l-9 -47q-2 -12 -13 -12h-193q-77 0 -104.5 -22t-37.5 -82l-24 -139h307q16 0 16 -17v-3l-6 -38q-4 -20 -24 -20h-307l-29 -168q-5 -27 -5 -41q0 -34 23.5 -48.5t85.5 -14.5h193q9 0 9 -9v-3l-9 -49q-2 -12 -12 -14q-68 -7 -196 -7q-87 0 -135.5 36.5
t-48.5 107.5q0 22 4 42l67 385q19 106 77 146t169 40q145 0 194 -9q8 -1 8 -12zM585 913v-3l-15 -81q-1 -8 -8 -13.5t-15 -5.5h-39q-17 0 -17 16v3l15 81q2 8 9 14t14 6h39q7 0 12 -5t5 -12zM410 913v-3l-15 -81q-1 -8 -8 -13.5t-15 -5.5h-39q-17 0 -17 16v3l15 81q2 8 9 14
t14 6h39q7 0 12 -5t5 -12z" />
    <glyph glyph-name="Igrave" unicode="&#xcc;" horiz-adv-x="267" 
d="M307 728v-4l-124 -704q-4 -20 -22 -20h-55q-14 0 -14 16v4l124 704q4 19 21 19h55q15 0 15 -15zM336 803q0 -9 -10 -9h-54q-10 0 -21 15l-90 126q-3 5 -3 7q0 8 12 8h66q13 0 23 -15l75 -124q2 -3 2 -8z" />
    <glyph glyph-name="Iacute" unicode="&#xcd;" horiz-adv-x="267" 
d="M307 728v-4l-124 -704q-4 -20 -22 -20h-55q-14 0 -14 16v4l124 704q4 19 21 19h55q15 0 15 -15zM432 944q0 -4 -5 -9l-136 -126q-17 -15 -25 -15h-54q-8 0 -8 6q0 5 6 11l120 124q15 15 26 15h66q10 0 10 -6z" />
    <glyph glyph-name="Icircumflex" unicode="&#xce;" horiz-adv-x="267" 
d="M307 728v-4l-124 -704q-4 -20 -22 -20h-55q-14 0 -14 16v4l124 704q4 19 21 19h55q15 0 15 -15zM438 803q0 -9 -10 -9h-49q-11 0 -21 15l-64 97l-101 -97q-15 -15 -25 -15h-55q-8 0 -8 6q0 5 6 11l118 124q15 15 26 15h85q13 0 23 -15l73 -124q2 -3 2 -8z" />
    <glyph glyph-name="Idieresis" unicode="&#xcf;" horiz-adv-x="267" 
d="M307 728v-4l-124 -704q-4 -20 -22 -20h-55q-14 0 -14 16v4l124 704q4 19 21 19h55q15 0 15 -15zM417 912v-3l-15 -81q-1 -8 -8 -13.5t-15 -5.5h-39q-17 0 -17 16v3l15 81q2 8 9 14t14 6h39q7 0 12 -5t5 -12zM242 912v-3l-15 -81q-1 -8 -8 -13.5t-15 -5.5h-39
q-17 0 -17 16v3l15 81q2 8 9 14t14 6h39q7 0 12 -5t5 -12z" />
    <glyph glyph-name="Eth" unicode="&#xd0;" horiz-adv-x="641" 
d="M666 516q0 -38 -7 -77l-23 -135q-54 -311 -358 -311q-122 0 -180 10q-18 3 -18 19q0 1 0.5 3t0.5 3l56 319h-37q-16 0 -16 17v3l6 38q4 20 24 20h37l51 290q5 22 25 25q60 10 184 10q118 0 186.5 -59.5t68.5 -174.5zM333 347h-104l-48 -274q32 -2 111 -2q96 0 164.5 55.5
t88.5 177.5l23 135q7 38 7 72q0 161 -178 161q-61 0 -111 -3l-43 -244h104q16 0 16 -17v-3l-6 -38q-4 -20 -24 -20z" />
    <glyph glyph-name="Ntilde" unicode="&#xd1;" horiz-adv-x="680" 
d="M730 728v-4l-123 -695q-2 -12 -12 -20.5t-22 -8.5h-58q-23 0 -29 16l-210 587l-2 3q-2 0 -2 -3l-103 -584q-4 -19 -21 -19h-52q-16 0 -16 9v3l124 703q2 12 12 20t22 8h49q20 0 26.5 -4t10.5 -16l210 -584l1 -3h2l1 3l103 585q4 19 21 19h53q15 0 15 -15zM670 918v-3
l-4 -23q-9 -54 -32.5 -79.5t-69.5 -25.5q-49 0 -76 26l-47 44q-23 22 -37 22q-34 0 -40 -46l-3 -21q-2 -17 -17 -17h-34q-13 0 -13 14v3l3 21q15 109 104 109q39 0 74 -31l54 -49q16 -14 32 -14t25 9.5t13 34.5l4 23q4 17 17 17h34q13 0 13 -14z" />
    <glyph glyph-name="Ograve" unicode="&#xd2;" horiz-adv-x="661" 
d="M686 520q0 -36 -8 -84l-23 -129q-55 -314 -325 -314q-101 0 -162.5 58.5t-61.5 171.5q0 36 8 84l23 129q56 314 326 314q102 0 162.5 -59.5t60.5 -170.5zM594 519q0 79 -37 114t-108 35q-85 0 -142 -57t-78 -175l-23 -129q-7 -39 -7 -76q0 -83 37 -119.5t108 -36.5
q84 0 141 57.5t78 174.5l23 129q8 41 8 83zM538 803q0 -9 -10 -9h-54q-10 0 -21 15l-90 126q-3 5 -3 7q0 8 12 8h66q13 0 23 -15l75 -124q2 -3 2 -8z" />
    <glyph glyph-name="Oacute" unicode="&#xd3;" horiz-adv-x="661" 
d="M686 520q0 -36 -8 -84l-23 -129q-55 -314 -325 -314q-101 0 -162.5 58.5t-61.5 171.5q0 36 8 84l23 129q56 314 326 314q102 0 162.5 -59.5t60.5 -170.5zM594 519q0 79 -37 114t-108 35q-85 0 -142 -57t-78 -175l-23 -129q-7 -39 -7 -76q0 -83 37 -119.5t108 -36.5
q84 0 141 57.5t78 174.5l23 129q8 41 8 83zM623 944q0 -4 -5 -9l-136 -126q-16 -15 -25 -15h-54q-8 0 -8 6q0 5 6 11l120 124q15 15 26 15h66q10 0 10 -6z" />
    <glyph glyph-name="Ocircumflex" unicode="&#xd4;" horiz-adv-x="661" 
d="M686 520q0 -36 -8 -84l-23 -129q-55 -314 -325 -314q-101 0 -162.5 58.5t-61.5 171.5q0 36 8 84l23 129q56 314 326 314q102 0 162.5 -59.5t60.5 -170.5zM594 519q0 79 -37 114t-108 35q-85 0 -142 -57t-78 -175l-23 -129q-7 -39 -7 -76q0 -83 37 -119.5t108 -36.5
q84 0 141 57.5t78 174.5l23 129q8 41 8 83zM639 804q0 -9 -10 -9h-49q-10 0 -21 15l-64 97l-101 -97q-15 -15 -25 -15h-55q-8 0 -8 6q0 5 6 11l118 124q15 15 26 15h85q13 0 23 -15l73 -124q2 -3 2 -8z" />
    <glyph glyph-name="Otilde" unicode="&#xd5;" horiz-adv-x="661" 
d="M686 520q0 -36 -8 -84l-23 -129q-55 -314 -325 -314q-101 0 -162.5 58.5t-61.5 171.5q0 36 8 84l23 129q56 314 326 314q102 0 162.5 -59.5t60.5 -170.5zM594 519q0 79 -37 114t-108 35q-85 0 -142 -57t-78 -175l-23 -129q-7 -39 -7 -76q0 -83 37 -119.5t108 -36.5
q84 0 141 57.5t78 174.5l23 129q8 41 8 83zM673 920v-3l-4 -23q-9 -54 -32.5 -79.5t-69.5 -25.5q-49 0 -76 26l-47 44q-23 22 -37 22q-34 0 -40 -46l-3 -21q-2 -17 -17 -17h-34q-13 0 -13 14v3l3 21q15 109 104 109q39 0 74 -31l54 -49q16 -14 32 -14t25 9.5t13 34.5l4 23
q4 17 17 17h34q13 0 13 -14z" />
    <glyph glyph-name="Odieresis" unicode="&#xd6;" horiz-adv-x="661" 
d="M686 520q0 -36 -8 -84l-23 -129q-55 -314 -325 -314q-101 0 -162.5 58.5t-61.5 171.5q0 36 8 84l23 129q56 314 326 314q102 0 162.5 -59.5t60.5 -170.5zM594 519q0 79 -37 114t-108 35q-85 0 -142 -57t-78 -175l-23 -129q-7 -39 -7 -76q0 -83 37 -119.5t108 -36.5
q84 0 141 57.5t78 174.5l23 129q8 41 8 83zM619 913v-3l-15 -81q-1 -8 -8 -13.5t-15 -5.5h-39q-17 0 -17 16v3l15 81q2 8 9 14t14 6h39q7 0 12 -5t5 -12zM444 913v-3l-15 -81q-1 -8 -8 -13.5t-15 -5.5h-39q-17 0 -17 16v3l15 81q2 8 9 14t14 6h39q7 0 12 -5t5 -12z" />
    <glyph glyph-name="multiply" unicode="&#xd7;" horiz-adv-x="595" 
d="M568 243q0 -5 -5 -10l-28 -28q-5 -5 -10 -5q-8 0 -16 8l-15 15l-117 117l-131 -131q-8 -8 -16 -8q-5 0 -10 5l-28 28q-5 5 -5 10q0 8 8 16l131 131q-22 22 -65.5 66t-65.5 66q-8 8 -8 15q0 5 5 10l28 28q5 5 11 5q8 0 15 -7q22 -22 65.5 -66t65.5 -66l132 132q8 8 16 8
q5 0 10 -5l28 -28q5 -5 5 -10q0 -8 -8 -16l-132 -132l132 -132q8 -8 8 -16z" />
    <glyph glyph-name="Oslash" unicode="&#xd8;" horiz-adv-x="661" 
d="M766 742q0 -6 -5 -11l-94 -105q19 -47 19 -106q0 -36 -8 -84l-23 -129q-55 -314 -325 -314q-110 0 -169 65l-50 -55q-9 -10 -20 -10h-53q-9 0 -9 9q0 6 4 10l92 103q-19 47 -19 108q0 36 8 84l23 129q56 314 326 314q110 0 169 -67l51 57q9 10 22 10h52q9 0 9 -8z
M571 615q-33 53 -122 53q-85 0 -142 -57t-78 -175l-23 -129q-7 -39 -7 -76q0 -11 2 -31zM594 519q0 16 -1 24l-370 -415q33 -53 121 -53q84 0 141 57.5t78 174.5l23 129q8 41 8 83z" />
    <glyph glyph-name="Ugrave" unicode="&#xd9;" horiz-adv-x="662" 
d="M715 727v-3l-80 -454q-26 -146 -100.5 -211.5t-204.5 -65.5q-101 0 -157.5 52t-56.5 152q0 37 7 73l80 454q4 19 22 19h54q16 0 16 -16v-3l-80 -454q-8 -43 -8 -72q0 -64 32.5 -95.5t104.5 -31.5q90 0 135.5 49t63.5 150l80 454q4 19 22 19h54q16 0 16 -16zM531 803
q0 -9 -10 -9h-54q-11 0 -21 15l-90 126q-3 5 -3 7q0 8 12 8h66q13 0 23 -15l75 -124q2 -3 2 -8z" />
    <glyph glyph-name="Uacute" unicode="&#xda;" horiz-adv-x="662" 
d="M715 727v-3l-80 -454q-26 -146 -100.5 -211.5t-204.5 -65.5q-101 0 -157.5 52t-56.5 152q0 37 7 73l80 454q4 19 22 19h54q16 0 16 -16v-3l-80 -454q-8 -43 -8 -72q0 -64 32.5 -95.5t104.5 -31.5q90 0 135.5 49t63.5 150l80 454q4 19 22 19h54q16 0 16 -16zM640 944
q0 -4 -5 -9l-136 -126q-17 -15 -25 -15h-54q-8 0 -8 6q0 5 6 11l120 124q15 15 26 15h66q10 0 10 -6z" />
    <glyph glyph-name="Ucircumflex" unicode="&#xdb;" horiz-adv-x="662" 
d="M715 727v-3l-80 -454q-26 -146 -100.5 -211.5t-204.5 -65.5q-101 0 -157.5 52t-56.5 152q0 37 7 73l80 454q4 19 22 19h54q16 0 16 -16v-3l-80 -454q-8 -43 -8 -72q0 -64 32.5 -95.5t104.5 -31.5q90 0 135.5 49t63.5 150l80 454q4 19 22 19h54q16 0 16 -16zM633 803
q0 -9 -10 -9h-49q-10 0 -21 15l-64 97l-101 -97q-15 -15 -25 -15h-55q-8 0 -8 6q0 5 6 11l118 124q15 15 26 15h85q13 0 23 -15l73 -124q2 -3 2 -8z" />
    <glyph glyph-name="Udieresis" unicode="&#xdc;" horiz-adv-x="662" 
d="M715 727v-3l-80 -454q-26 -146 -100.5 -211.5t-204.5 -65.5q-101 0 -157.5 52t-56.5 152q0 37 7 73l80 454q4 19 22 19h54q16 0 16 -16v-3l-80 -454q-8 -43 -8 -72q0 -64 32.5 -95.5t104.5 -31.5q90 0 135.5 49t63.5 150l80 454q4 19 22 19h54q16 0 16 -16zM612 913v-3
l-15 -81q-1 -8 -8 -13.5t-15 -5.5h-39q-17 0 -17 16v3l15 81q2 8 9 14t14 6h39q7 0 12 -5t5 -12zM437 913v-3l-15 -81q-1 -8 -8 -13.5t-15 -5.5h-39q-17 0 -17 16v3l15 81q2 8 9 14t14 6h39q7 0 12 -5t5 -12z" />
    <glyph glyph-name="Yacute" unicode="&#xdd;" horiz-adv-x="583" 
d="M677 731q0 -5 -5 -13l-217 -348q-33 -53 -65 -66l-50 -284q-2 -8 -8.5 -14t-13.5 -6h-55q-14 0 -14 16v4l50 284q-28 12 -43 66l-92 348q-1 3 -1 7q0 18 19 18h58q12 0 16 -14l80 -324q7 -26 19 -26q11 0 27 26l197 324q8 14 19 14h64q15 0 15 -12zM604 944q0 -4 -5 -9
l-136 -126q-16 -15 -25 -15h-54q-8 0 -8 6q0 5 6 11l120 124q15 15 26 15h66q10 0 10 -6z" />
    <glyph glyph-name="Thorn" unicode="&#xde;" horiz-adv-x="593" 
d="M629 482q0 -123 -75.5 -202.5t-240.5 -79.5q-69 0 -111 3l-32 -183q-4 -20 -21 -20h-56q-17 0 -14 20l124 704q4 19 21 19h56q17 0 14 -19l-13 -69q45 3 97 3q251 0 251 -176zM536 479q0 55 -42 77.5t-128 22.5q-54 0 -98 -2l-52 -296q69 -3 99 -3q108 0 163.5 51
t57.5 149v1z" />
    <glyph glyph-name="germandbls" unicode="&#xdf;" horiz-adv-x="581" 
d="M613 599q0 -150 -138 -205q44 -18 69 -57.5t25 -85.5q0 -121 -78.5 -189.5t-201.5 -68.5q-18 0 -48 3q-16 2 -16 16v2v1l7 41q1 11 13 11q7 0 22.5 -0.5t20.5 -0.5q93 0 142.5 46.5t49.5 139.5q0 49 -34 77t-100 28h-37q-17 0 -17 16v4l6 29q4 20 23 20h37
q78 0 122.5 44.5t44.5 121.5q0 89 -113 89q-70 0 -111 -40.5t-56 -126.5l-87 -493q-4 -21 -22 -21h-53q-14 0 -14 17v4l87 493q23 128 90.5 186t179.5 58q84 0 135.5 -41.5t51.5 -117.5z" />
    <glyph glyph-name="agrave" unicode="&#xe0;" horiz-adv-x="527" 
d="M551 519q0 -5 -1 -8l-86 -491q-4 -20 -23 -20h-40q-15 0 -15 16v4v2l5 31q-47 -34 -80 -47t-81 -13q-68 0 -112 44.5t-44 132.5q0 28 6 60l18 99q41 228 260 228q85 0 175 -23q18 -4 18 -15zM455 473q-54 10 -97 10q-145 0 -174 -163l-18 -103q-4 -20 -4 -46
q0 -104 87 -104q59 0 145 58zM450 632q0 -9 -10 -9h-54q-10 0 -21 15l-90 126q-3 5 -3 7q0 8 12 8h66q13 0 23 -15l75 -124q2 -3 2 -8z" />
    <glyph glyph-name="aacute" unicode="&#xe1;" horiz-adv-x="527" 
d="M551 519q0 -5 -1 -8l-86 -491q-4 -20 -23 -20h-40q-15 0 -15 16v4v2l5 31q-47 -34 -80 -47t-81 -13q-68 0 -112 44.5t-44 132.5q0 28 6 60l18 99q41 228 260 228q85 0 175 -23q18 -4 18 -15zM455 473q-54 10 -97 10q-145 0 -174 -163l-18 -103q-4 -20 -4 -46
q0 -104 87 -104q59 0 145 58zM558 773q0 -4 -5 -9l-136 -126q-17 -15 -25 -15h-54q-8 0 -8 6q0 5 6 11l120 124q15 15 26 15h66q10 0 10 -6z" />
    <glyph glyph-name="acircumflex" unicode="&#xe2;" horiz-adv-x="527" 
d="M551 519q0 -5 -1 -8l-86 -491q-4 -20 -23 -20h-40q-15 0 -15 16v4v2l5 31q-47 -34 -80 -47t-81 -13q-68 0 -112 44.5t-44 132.5q0 28 6 60l18 99q41 228 260 228q85 0 175 -23q18 -4 18 -15zM455 473q-54 10 -97 10q-145 0 -174 -163l-18 -103q-4 -20 -4 -46
q0 -104 87 -104q59 0 145 58zM551 632q0 -9 -10 -9h-49q-10 0 -21 15l-64 97l-101 -97q-15 -15 -25 -15h-55q-8 0 -8 6q0 5 6 11l118 124q15 15 26 15h85q13 0 23 -15l73 -124q2 -3 2 -8z" />
    <glyph glyph-name="atilde" unicode="&#xe3;" horiz-adv-x="527" 
d="M551 519q0 -5 -1 -8l-86 -491q-4 -20 -23 -20h-40q-15 0 -15 16v4v2l5 31q-47 -34 -80 -47t-81 -13q-68 0 -112 44.5t-44 132.5q0 28 6 60l18 99q41 228 260 228q85 0 175 -23q18 -4 18 -15zM455 473q-54 10 -97 10q-145 0 -174 -163l-18 -103q-4 -20 -4 -46
q0 -104 87 -104q59 0 145 58zM579 757v-3l-4 -23q-9 -54 -32.5 -79.5t-69.5 -25.5q-49 0 -76 26l-47 44q-23 22 -37 22q-34 0 -40 -46l-3 -21q-2 -17 -17 -17h-34q-13 0 -13 14v3l3 21q15 109 104 109q39 0 74 -31l54 -49q16 -14 32 -14t25 9.5t13 34.5l4 23q4 17 17 17h34
q13 0 13 -14z" />
    <glyph glyph-name="adieresis" unicode="&#xe4;" horiz-adv-x="527" 
d="M551 519q0 -5 -1 -8l-86 -491q-4 -20 -23 -20h-40q-15 0 -15 16v4v2l5 31q-47 -34 -80 -47t-81 -13q-68 0 -112 44.5t-44 132.5q0 28 6 60l18 99q41 228 260 228q85 0 175 -23q18 -4 18 -15zM455 473q-54 10 -97 10q-145 0 -174 -163l-18 -103q-4 -20 -4 -46
q0 -104 87 -104q59 0 145 58zM529 744v-3l-15 -81q-1 -8 -8 -13.5t-15 -5.5h-39q-17 0 -17 16v3l15 81q2 8 9 14t14 6h39q7 0 12 -5t5 -12zM354 744v-3l-15 -81q-1 -8 -8 -13.5t-15 -5.5h-39q-17 0 -17 16v3l15 81q2 8 9 14t14 6h39q7 0 12 -5t5 -12z" />
    <glyph glyph-name="aring" unicode="&#xe5;" horiz-adv-x="527" 
d="M551 519q0 -5 -1 -8l-86 -491q-4 -20 -23 -20h-40q-15 0 -15 16v4v2l5 31q-47 -34 -80 -47t-81 -13q-68 0 -112 44.5t-44 132.5q0 28 6 60l18 99q41 228 260 228q85 0 175 -23q18 -4 18 -15zM455 473q-54 10 -97 10q-145 0 -174 -163l-18 -103q-4 -20 -4 -46
q0 -104 87 -104q59 0 145 58zM503 703q0 -42 -29.5 -71.5t-71.5 -29.5t-72 29.5t-30 71.5t30 72t72 30t71.5 -30t29.5 -72zM455 704q0 22 -15.5 37t-37.5 15t-37 -15t-15 -37t15 -37.5t37 -15.5t37.5 15.5t15.5 37.5z" />
    <glyph glyph-name="ae" unicode="&#xe6;" horiz-adv-x="853" 
d="M862 368q0 -55 -13 -99q-7 -22 -21 -22h-333l-6 -32q-5 -30 -5 -49q0 -57 30 -78t95 -21q79 0 173 14h2h3q14 0 14 -11v-2v-1l-6 -34q-2 -11 -7 -16t-17 -7q-91 -17 -180 -17q-108 0 -156 60q-37 -26 -91 -43t-107 -17q-67 0 -114.5 35t-47.5 104v11q0 10 1 15l1 9
q10 86 71 124t194 38h80l7 40q4 21 4 43q0 40 -20.5 55t-71.5 15q-72 0 -154 -8h-4q-17 0 -17 12v4l7 35q3 16 24 19q78 13 157 13q113 0 148 -71q36 39 78.5 55t102.5 16q88 0 133.5 -52.5t45.5 -136.5zM778 376q0 107 -108 107q-64 0 -106 -43t-57 -121l-1 -5h266
q6 28 6 62zM411 265h-75q-90 0 -127 -22t-43 -76l-1 -9q-1 -5 -1 -14v-10q0 -71 94 -71q76 0 123 31z" />
    <glyph glyph-name="ccedilla" unicode="&#xe7;" horiz-adv-x="452" 
d="M498 531q0 -1 -0.5 -3t-0.5 -4l-6 -36q-3 -15 -21 -15h-3q-60 7 -122 7q-60 0 -101 -44.5t-54 -121.5l-13 -78q-6 -34 -6 -60q0 -106 101 -106q64 0 126 7h3q15 0 15 -12v-3l-6 -36q-1 -10 -6.5 -15t-17.5 -7q-62 -11 -127 -11q-85 0 -130 52t-45 136q0 23 5 55l13 78
q20 120 86.5 181.5t169.5 61.5q64 0 123 -11q17 -3 17 -15zM312 -38q0 -4 -5 -9l-136 -126q-17 -15 -25 -15h-54q-8 0 -8 6q0 5 6 11l119 124q15 15 27 15h66q10 0 10 -6z" />
    <glyph glyph-name="egrave" unicode="&#xe8;" horiz-adv-x="544" 
d="M555 371q0 -29 -6 -60l-8 -42q-5 -22 -22 -22h-335l-3 -12q-8 -31 -8 -61q0 -107 125 -107q79 0 173 14h2h4q13 0 13 -10v-3v-1l-6 -34q-2 -11 -7 -16t-17 -7q-91 -17 -175 -17q-83 0 -140 45.5t-57 139.5q0 29 6 62l13 70q23 120 91 183.5t174 63.5q89 0 136 -51.5
t47 -134.5zM467 374q0 106 -108 106q-63 0 -106 -44.5t-57 -116.5l-1 -5h265l1 5q6 30 6 55zM429 632q0 -9 -10 -9h-54q-11 0 -21 15l-90 126q-3 5 -3 7q0 8 12 8h66q13 0 23 -15l75 -124q2 -3 2 -8z" />
    <glyph glyph-name="eacute" unicode="&#xe9;" horiz-adv-x="544" 
d="M555 371q0 -29 -6 -60l-8 -42q-5 -22 -22 -22h-335l-3 -12q-8 -31 -8 -61q0 -107 125 -107q79 0 173 14h2h4q13 0 13 -10v-3v-1l-6 -34q-2 -11 -7 -16t-17 -7q-91 -17 -175 -17q-83 0 -140 45.5t-57 139.5q0 29 6 62l13 70q23 120 91 183.5t174 63.5q89 0 136 -51.5
t47 -134.5zM467 374q0 106 -108 106q-63 0 -106 -44.5t-57 -116.5l-1 -5h265l1 5q6 30 6 55zM570 773q0 -4 -5 -9l-136 -126q-17 -15 -25 -15h-54q-8 0 -8 6q0 5 6 11l120 124q15 15 26 15h66q10 0 10 -6z" />
    <glyph glyph-name="ecircumflex" unicode="&#xea;" horiz-adv-x="544" 
d="M555 371q0 -29 -6 -60l-8 -42q-5 -22 -22 -22h-335l-3 -12q-8 -31 -8 -61q0 -107 125 -107q79 0 173 14h2h4q13 0 13 -10v-3v-1l-6 -34q-2 -11 -7 -16t-17 -7q-91 -17 -175 -17q-83 0 -140 45.5t-57 139.5q0 29 6 62l13 70q23 120 91 183.5t174 63.5q89 0 136 -51.5
t47 -134.5zM467 374q0 106 -108 106q-63 0 -106 -44.5t-57 -116.5l-1 -5h265l1 5q6 30 6 55zM551 632q0 -9 -10 -9h-49q-10 0 -21 15l-64 97l-101 -97q-15 -15 -25 -15h-55q-8 0 -8 6q0 5 6 11l118 124q15 15 26 15h85q13 0 23 -15l73 -124q2 -3 2 -8z" />
    <glyph glyph-name="edieresis" unicode="&#xeb;" horiz-adv-x="544" 
d="M555 371q0 -29 -6 -60l-8 -42q-5 -22 -22 -22h-335l-3 -12q-8 -31 -8 -61q0 -107 125 -107q79 0 173 14h2h4q13 0 13 -10v-3v-1l-6 -34q-2 -11 -7 -16t-17 -7q-91 -17 -175 -17q-83 0 -140 45.5t-57 139.5q0 29 6 62l13 70q23 120 91 183.5t174 63.5q89 0 136 -51.5
t47 -134.5zM467 374q0 106 -108 106q-63 0 -106 -44.5t-57 -116.5l-1 -5h265l1 5q6 30 6 55zM534 744v-3l-15 -81q-1 -8 -8 -13.5t-15 -5.5h-39q-17 0 -17 16v3l15 81q2 8 9 14t14 6h39q7 0 12 -5t5 -12zM359 744v-3l-15 -81q-1 -8 -8 -13.5t-15 -5.5h-39q-17 0 -17 16v3
l15 81q2 8 9 14t14 6h39q7 0 12 -5t5 -12z" />
    <glyph glyph-name="igrave" unicode="&#xec;" horiz-adv-x="247" 
d="M260 534v-4l-89 -510q-4 -20 -24 -20h-48q-16 0 -16 16v4l89 510q4 20 24 20h48q16 0 16 -16zM296 632q0 -9 -10 -9h-54q-10 0 -21 15l-90 126q-3 5 -3 7q0 8 12 8h66q13 0 23 -15l75 -124q2 -3 2 -8z" />
    <glyph glyph-name="iacute" unicode="&#xed;" horiz-adv-x="247" 
d="M260 534v-4l-89 -510q-4 -20 -24 -20h-48q-16 0 -16 16v4l89 510q4 20 24 20h48q16 0 16 -16zM407 773q0 -4 -5 -9l-136 -126q-17 -15 -25 -15h-54q-8 0 -8 6q0 5 6 11l120 124q15 15 26 15h66q10 0 10 -6z" />
    <glyph glyph-name="icircumflex" unicode="&#xee;" horiz-adv-x="247" 
d="M260 534v-4l-89 -510q-4 -20 -24 -20h-48q-16 0 -16 16v4l89 510q4 20 24 20h48q16 0 16 -16zM400 632q0 -9 -10 -9h-49q-11 0 -21 15l-64 97l-101 -97q-15 -15 -25 -15h-55q-8 0 -8 6q0 5 6 11l118 124q15 15 26 15h85q13 0 23 -15l73 -124q2 -3 2 -8z" />
    <glyph glyph-name="idieresis" unicode="&#xef;" horiz-adv-x="247" 
d="M260 534v-4l-89 -510q-4 -20 -24 -20h-48q-16 0 -16 16v4l89 510q4 20 24 20h48q16 0 16 -16zM381 744v-3l-15 -81q-1 -8 -8 -13.5t-15 -5.5h-39q-17 0 -17 16v3l15 81q2 8 9 14t14 6h39q7 0 12 -5t5 -12zM206 744v-3l-15 -81q-1 -8 -8 -13.5t-15 -5.5h-39q-17 0 -17 16
v3l15 81q2 8 9 14t14 6h39q7 0 12 -5t5 -12z" />
    <glyph glyph-name="eth" unicode="&#xf0;" horiz-adv-x="545" 
d="M561 432q0 -70 -12 -134q-1 -9 -4.5 -27.5t-5.5 -27.5q-22 -123 -86.5 -186.5t-179.5 -63.5q-91 0 -138.5 50.5t-47.5 136.5q0 30 6 63q1 9 4.5 27.5t5.5 27.5q24 130 90 190t177 60q70 0 107 -39q-19 89 -123 142q-16 -12 -49.5 -34.5t-49.5 -33.5q-10 -6 -14 -6
q-5 0 -10 6q-3 3 -7.5 9.5t-6.5 9.5q-2 4 -2 6q0 8 13 18q12 8 36 24.5t36 24.5q-43 15 -76 22q-14 3 -14 13q0 1 2 7q3 5 8.5 14.5t7.5 14.5q6 12 13 12q3 0 11 -2q73 -18 116 -36q18 12 54.5 36.5t54.5 36.5q7 5 14 5t11 -6q2 -3 6.5 -9t6.5 -9q3 -3 3 -7q0 -7 -12 -15
q-14 -9 -42.5 -28.5t-42.5 -29.5q75 -47 107.5 -110t32.5 -152zM468 365q0 56 -27 82t-85 26q-67 0 -108.5 -47.5t-55.5 -127.5q-1 -9 -4.5 -27.5t-5.5 -27.5q-7 -36 -7 -69q0 -54 26 -79.5t85 -25.5q132 0 165 174q1 9 5 27.5t5 27.5q7 35 7 67z" />
    <glyph glyph-name="ntilde" unicode="&#xf1;" horiz-adv-x="557" 
d="M556 403q0 -26 -5 -54l-58 -329q-4 -20 -24 -20h-48q-16 0 -16 16v4l58 329q5 32 5 55q0 38 -20.5 57t-72.5 19q-60 0 -141 -38l-74 -422q-2 -8 -9 -14t-15 -6h-49q-15 0 -15 16v4l89 510q4 20 23 20h49q15 0 15 -16v-4l-3 -21q85 48 161 48t113 -42.5t37 -111.5z
M594 757v-3l-4 -23q-9 -54 -32.5 -79.5t-69.5 -25.5q-49 0 -76 26l-47 44q-23 22 -37 22q-34 0 -40 -46l-3 -21q-2 -17 -17 -17h-34q-13 0 -13 14v3l3 21q15 109 104 109q39 0 74 -31l54 -49q16 -14 32 -14t25 9.5t13 34.5l4 23q4 17 17 17h34q13 0 13 -14z" />
    <glyph glyph-name="ograve" unicode="&#xf2;" horiz-adv-x="545" 
d="M555 369q0 -24 -5 -56l-13 -76q-42 -244 -266 -244q-88 0 -136 51.5t-48 137.5q0 23 5 55l13 76q42 244 265 244q90 0 137.5 -51.5t47.5 -136.5zM467 370q0 110 -110 110q-65 0 -108 -45t-56 -122l-13 -76q-6 -33 -6 -59q0 -54 26.5 -81t83.5 -27q65 0 108.5 46t56.5 121
l13 76q5 26 5 57zM441 632q0 -9 -10 -9h-54q-11 0 -21 15l-90 126q-3 5 -3 7q0 8 12 8h66q13 0 23 -15l75 -124q2 -3 2 -8z" />
    <glyph glyph-name="oacute" unicode="&#xf3;" horiz-adv-x="545" 
d="M555 369q0 -24 -5 -56l-13 -76q-42 -244 -266 -244q-88 0 -136 51.5t-48 137.5q0 23 5 55l13 76q42 244 265 244q90 0 137.5 -51.5t47.5 -136.5zM467 370q0 110 -110 110q-65 0 -108 -45t-56 -122l-13 -76q-6 -33 -6 -59q0 -54 26.5 -81t83.5 -27q65 0 108.5 46t56.5 121
l13 76q5 26 5 57zM562 773q0 -4 -5 -9l-136 -126q-17 -15 -25 -15h-54q-8 0 -8 6q0 5 6 11l120 124q15 15 26 15h66q10 0 10 -6z" />
    <glyph glyph-name="ocircumflex" unicode="&#xf4;" horiz-adv-x="545" 
d="M555 369q0 -24 -5 -56l-13 -76q-42 -244 -266 -244q-88 0 -136 51.5t-48 137.5q0 23 5 55l13 76q42 244 265 244q90 0 137.5 -51.5t47.5 -136.5zM467 370q0 110 -110 110q-65 0 -108 -45t-56 -122l-13 -76q-6 -33 -6 -59q0 -54 26.5 -81t83.5 -27q65 0 108.5 46t56.5 121
l13 76q5 26 5 57zM551 632q0 -9 -10 -9h-49q-10 0 -21 15l-64 97l-101 -97q-15 -15 -25 -15h-55q-8 0 -8 6q0 5 6 11l118 124q15 15 26 15h85q13 0 23 -15l73 -124q2 -3 2 -8z" />
    <glyph glyph-name="otilde" unicode="&#xf5;" horiz-adv-x="545" 
d="M555 369q0 -24 -5 -56l-13 -76q-42 -244 -266 -244q-88 0 -136 51.5t-48 137.5q0 23 5 55l13 76q42 244 265 244q90 0 137.5 -51.5t47.5 -136.5zM467 370q0 110 -110 110q-65 0 -108 -45t-56 -122l-13 -76q-6 -33 -6 -59q0 -54 26.5 -81t83.5 -27q65 0 108.5 46t56.5 121
l13 76q5 26 5 57zM589 757v-3l-4 -23q-9 -54 -32.5 -79.5t-69.5 -25.5q-49 0 -76 26l-47 44q-23 22 -37 22q-34 0 -40 -46l-3 -21q-2 -17 -17 -17h-34q-13 0 -13 14v3l3 21q15 109 104 109q39 0 74 -31l54 -49q16 -14 32 -14t25 9.5t13 34.5l4 23q4 17 17 17h34q13 0 13 -14
z" />
    <glyph glyph-name="odieresis" unicode="&#xf6;" horiz-adv-x="545" 
d="M555 369q0 -24 -5 -56l-13 -76q-42 -244 -266 -244q-88 0 -136 51.5t-48 137.5q0 23 5 55l13 76q42 244 265 244q90 0 137.5 -51.5t47.5 -136.5zM467 370q0 110 -110 110q-65 0 -108 -45t-56 -122l-13 -76q-6 -33 -6 -59q0 -54 26.5 -81t83.5 -27q65 0 108.5 46t56.5 121
l13 76q5 26 5 57zM532 744v-3l-15 -81q-1 -8 -8 -13.5t-15 -5.5h-39q-17 0 -17 16v3l15 81q2 8 9 14t14 6h39q7 0 12 -5t5 -12zM357 744v-3l-15 -81q-1 -8 -8 -13.5t-15 -5.5h-39q-17 0 -17 16v3l15 81q2 8 9 14t14 6h39q7 0 12 -5t5 -12z" />
    <glyph glyph-name="divide" unicode="&#xf7;" horiz-adv-x="595" 
d="M413 527q0 -8 -5.5 -14t-13.5 -6h-48q-8 0 -14 6t-6 14v88q0 7 6 13t14 6h48q8 0 13.5 -6t5.5 -13v-88zM583 371q0 -16 -20 -16h-385q-20 0 -20 16v40q0 16 20 16h385q20 0 20 -16v-40zM413 162q0 -8 -5.5 -13.5t-13.5 -5.5h-48q-8 0 -14 5.5t-6 13.5v89q0 7 6 13t14 6
h48q8 0 13.5 -6t5.5 -13v-89z" />
    <glyph glyph-name="oslash" unicode="&#xf8;" horiz-adv-x="545" 
d="M630 577q0 -6 -7 -13l-86 -94q19 -38 19 -93q0 -29 -6 -64l-13 -76q-19 -113 -88.5 -178.5t-177.5 -65.5q-84 0 -132 42l-54 -60q-9 -10 -18 -10h-49q-7 0 -7 6q0 7 6 13l88 96q-19 38 -19 93q0 29 6 64l13 76q19 113 88 178.5t177 65.5q85 0 133 -42l52 58q9 10 18 10
h50q7 0 7 -6zM441 449q-28 31 -84 31q-135 0 -164 -167l-13 -76q-5 -33 -5 -55q0 -17 1 -24zM467 364q0 9 -2 27l-265 -290q28 -31 84 -31q136 0 165 167l13 76q5 30 5 51z" />
    <glyph glyph-name="ugrave" unicode="&#xf9;" horiz-adv-x="557" 
d="M582 534v-4l-89 -510q-4 -20 -23 -20h-47q-15 0 -15 16v4l3 18q-87 -45 -166 -45q-67 0 -106.5 40.5t-39.5 117.5q0 28 6 61l56 318q4 20 24 20h48q16 0 16 -16v-4l-58 -329q-6 -33 -6 -57q0 -41 21.5 -57.5t71.5 -16.5q62 0 142 37l74 423q4 20 24 20h49q15 0 15 -16z
M447 632q0 -9 -10 -9h-54q-11 0 -21 15l-90 126q-3 5 -3 7q0 8 12 8h66q13 0 23 -15l75 -124q2 -3 2 -8z" />
    <glyph glyph-name="uacute" unicode="&#xfa;" horiz-adv-x="557" 
d="M582 534v-4l-89 -510q-4 -20 -23 -20h-47q-15 0 -15 16v4l3 18q-87 -45 -166 -45q-67 0 -106.5 40.5t-39.5 117.5q0 28 6 61l56 318q4 20 24 20h48q16 0 16 -16v-4l-58 -329q-6 -33 -6 -57q0 -41 21.5 -57.5t71.5 -16.5q62 0 142 37l74 423q4 20 24 20h49q15 0 15 -16z
M570 773q0 -4 -5 -9l-136 -126q-17 -15 -25 -15h-54q-8 0 -8 6q0 5 6 11l120 124q15 15 26 15h66q10 0 10 -6z" />
    <glyph glyph-name="ucircumflex" unicode="&#xfb;" horiz-adv-x="557" 
d="M582 534v-4l-89 -510q-4 -20 -23 -20h-47q-15 0 -15 16v4l3 18q-87 -45 -166 -45q-67 0 -106.5 40.5t-39.5 117.5q0 28 6 61l56 318q4 20 24 20h48q16 0 16 -16v-4l-58 -329q-6 -33 -6 -57q0 -41 21.5 -57.5t71.5 -16.5q62 0 142 37l74 423q4 20 24 20h49q15 0 15 -16z
M555 632q0 -9 -10 -9h-49q-10 0 -21 15l-64 97l-101 -97q-15 -15 -25 -15h-55q-8 0 -8 6q0 5 6 11l118 124q15 15 26 15h85q13 0 23 -15l73 -124q2 -3 2 -8z" />
    <glyph glyph-name="udieresis" unicode="&#xfc;" horiz-adv-x="557" 
d="M582 534v-4l-89 -510q-4 -20 -23 -20h-47q-15 0 -15 16v4l3 18q-87 -45 -166 -45q-67 0 -106.5 40.5t-39.5 117.5q0 28 6 61l56 318q4 20 24 20h48q16 0 16 -16v-4l-58 -329q-6 -33 -6 -57q0 -41 21.5 -57.5t71.5 -16.5q62 0 142 37l74 423q4 20 24 20h49q15 0 15 -16z
M537 744v-3l-15 -81q-1 -8 -8 -13.5t-15 -5.5h-39q-17 0 -17 16v3l15 81q2 8 9 14t14 6h39q7 0 12 -5t5 -12zM362 744v-3l-15 -81q-1 -8 -8 -13.5t-15 -5.5h-39q-17 0 -17 16v3l15 81q2 8 9 14t14 6h39q7 0 12 -5t5 -12z" />
    <glyph glyph-name="yacute" unicode="&#xfd;" horiz-adv-x="534" 
d="M592 537q0 -5 -3 -11l-267 -576q-39 -84 -82 -116t-127 -32q-46 0 -82 9q-19 6 -19 14v2l7 37q3 16 22 16h3q63 -6 88 -6q44 0 68.5 17t45.5 68l17 41h-11q-27 0 -43.5 16t-22.5 62l-51 448v3q0 21 21 21h52q12 0 14 -16l42 -434q2 -22 15 -22h16l202 457q6 15 22 15h59
q14 0 14 -13zM572 773q0 -4 -5 -9l-136 -126q-17 -15 -25 -15h-54q-8 0 -8 6q0 5 6 11l120 124q15 15 26 15h66q10 0 10 -6z" />
    <glyph glyph-name="thorn" unicode="&#xfe;" horiz-adv-x="541" 
d="M552 376q0 -32 -6 -66l-13 -72q-22 -125 -84 -185t-177 -60q-57 0 -115 11l-32 -181q-2 -11 -6.5 -15t-16.5 -4h-51q-17 0 -14 19l160 909q4 20 24 20h48q20 0 16 -20l-33 -185q67 10 119 10q90 0 135.5 -48.5t45.5 -132.5zM465 377q0 53 -25.5 79.5t-81.5 26.5
q-63 0 -119 -10l-69 -396q53 -10 115 -10q129 0 160 171l13 72q7 35 7 67z" />
    <glyph glyph-name="ydieresis" unicode="&#xff;" horiz-adv-x="534" 
d="M592 537q0 -5 -3 -11l-267 -576q-39 -84 -82 -116t-127 -32q-46 0 -82 9q-19 6 -19 14v2l7 37q3 16 22 16h3q63 -6 88 -6q44 0 68.5 17t45.5 68l17 41h-11q-27 0 -43.5 16t-22.5 62l-51 448v3q0 21 21 21h52q12 0 14 -16l42 -434q2 -22 15 -22h16l202 457q6 15 22 15h59
q14 0 14 -13zM535 744v-3l-15 -81q-1 -8 -8 -13.5t-15 -5.5h-39q-17 0 -17 16v3l15 81q2 8 9 14t14 6h39q7 0 12 -5t5 -12zM360 744v-3l-15 -81q-1 -8 -8 -13.5t-15 -5.5h-39q-17 0 -17 16v3l15 81q2 8 9 14t14 6h39q7 0 12 -5t5 -12z" />
    <glyph glyph-name="Amacron" unicode="&#x100;" horiz-adv-x="633" 
d="M607 19q0 -19 -17 -19h-60q-12 0 -14 15l-25 230h-259l-104 -230q-6 -15 -21 -15h-61q-14 0 -14 13q0 6 2 10l300 651q35 76 115 76q79 0 88 -75l70 -652v-4zM486 324l-33 329q-2 18 -16 18q-15 0 -23 -18l-149 -329h221zM646 874v-3l-6 -34q-3 -17 -23 -17h-288
q-17 0 -17 14v3l6 34q3 17 23 17h288q17 0 17 -14z" />
    <glyph glyph-name="amacron" unicode="&#x101;" horiz-adv-x="527" 
d="M358 557q85 0 175 -23q13 -3 16 -7.5t1 -15.5l-86 -491q-4 -20 -23 -20h-40q-18 0 -15 22l5 31q-47 -34 -80 -47t-81 -13q-68 0 -112 44.5t-44 132.5q0 28 6 60l18 99q41 228 260 228zM455 473q-54 10 -97 10q-145 0 -174 -163l-18 -103q-4 -20 -4 -46q0 -104 87 -104
q59 0 145 58zM554 703v-3l-6 -34q-3 -17 -23 -17h-288q-17 0 -17 14v3l6 34q3 17 23 17h288q17 0 17 -14z" />
    <glyph glyph-name="Abreve" unicode="&#x102;" horiz-adv-x="633" 
d="M607 19q0 -19 -17 -19h-60q-12 0 -14 15l-25 230h-259l-104 -230q-6 -15 -21 -15h-61q-14 0 -14 13q0 6 2 10l300 651q35 76 115 76q79 0 88 -75l70 -652v-4zM486 324l-33 329q-2 18 -16 18q-15 0 -23 -18l-149 -329h221zM639 941q0 -5 -1 -8q-14 -68 -64 -104.5
t-113 -36.5t-106 36t-43 105q0 17 14 17h35q13 0 13 -16q0 -80 87 -80q91 0 113 80q4 16 17 16h39q9 0 9 -9z" />
    <glyph glyph-name="abreve" unicode="&#x103;" horiz-adv-x="527" 
d="M358 557q85 0 175 -23q13 -3 16 -7.5t1 -15.5l-86 -491q-4 -20 -23 -20h-40q-18 0 -15 22l5 31q-47 -34 -80 -47t-81 -13q-68 0 -112 44.5t-44 132.5q0 28 6 60l18 99q41 228 260 228zM455 473q-54 10 -97 10q-145 0 -174 -163l-18 -103q-4 -20 -4 -46q0 -104 87 -104
q59 0 145 58zM572 771q0 -5 -1 -8q-14 -68 -64 -104.5t-113 -36.5t-106 36t-43 105q0 17 14 17h35q13 0 13 -16q0 -80 87 -80q91 0 113 80q4 16 17 16h39q9 0 9 -9z" />
    <glyph glyph-name="Aogonek" unicode="&#x104;" horiz-adv-x="633" 
d="M537 675l66 -618q4 -33 4 -42q0 -8 -9 -13l-71 -44q-42 -26 -54 -38t-12 -31q0 -31 63 -31q14 0 31 2.5t28.5 5t13.5 2.5q5 0 4 -8l-7 -39q-1 -8 -13 -11q-30 -10 -78 -10q-116 0 -116 76q0 67 82 111l47 26l-25 232h-259l-104 -230q-6 -15 -21 -15h-61q-14 0 -14 13
q0 6 2 10l300 651q35 76 115 76q79 0 88 -75zM486 324l-33 329q-2 18 -16 18q-15 0 -23 -18l-149 -329h221z" />
    <glyph glyph-name="aogonek" unicode="&#x105;" horiz-adv-x="527" 
d="M550 511l-83 -474q-5 -27 -20 -36l-70 -43q-40 -25 -53 -37.5t-13 -31.5q0 -31 63 -31q14 0 31 2.5t28.5 5t13.5 2.5q5 0 4 -8l-7 -39q-1 -6 -13 -11q-30 -10 -78 -10q-116 0 -116 76q0 41 21 65t61 46l67 37l5 29q-47 -34 -80 -47t-81 -13q-68 0 -112 44.5t-44 132.5
q0 28 6 60l18 99q41 228 260 228q85 0 175 -23q18 -4 18 -15q0 -5 -1 -8zM455 473q-54 10 -97 10q-145 0 -174 -163l-18 -103q-4 -20 -4 -46q0 -104 87 -104q59 0 145 58z" />
    <glyph glyph-name="Cacute" unicode="&#x106;" horiz-adv-x="545" 
d="M456 750q67 0 165 -16q8 -1 11.5 -3.5t2.5 -9.5l-9 -51q-1 -12 -17 -11q-105 9 -166 9q-80 0 -136.5 -53.5t-77.5 -173.5l-25 -139q-7 -39 -7 -74q0 -153 141 -153q23 0 167 8q12 1 15.5 -2.5t1.5 -13.5l-7 -41q-2 -9 -6.5 -13.5t-17.5 -6.5q-70 -13 -168 -13
q-40 0 -77 12.5t-69 38t-51.5 71.5t-19.5 107q0 39 7 80l25 139q56 309 318 309zM635 944q0 -4 -5 -9l-136 -126q-16 -15 -25 -15h-54q-8 0 -8 6q0 5 6 11l120 124q15 15 26 15h66q10 0 10 -6z" />
    <glyph glyph-name="cacute" unicode="&#x107;" horiz-adv-x="452" 
d="M348 480q-60 0 -101 -44.5t-54 -121.5l-13 -78q-6 -34 -6 -60q0 -106 101 -106q64 0 126 7q11 2 15.5 -2t2.5 -13l-6 -36q-1 -10 -6.5 -15t-17.5 -7q-61 -11 -127 -11q-85 0 -130 52t-45 136q0 23 5 55l13 78q20 120 86 181.5t170 61.5q64 0 123 -11q13 -2 15.5 -6.5
t0.5 -15.5l-6 -36q-3 -18 -24 -15q-60 7 -122 7zM516 773q0 -4 -5 -9l-136 -126q-17 -15 -25 -15h-54q-8 0 -8 6q0 5 6 11l120 124q15 15 26 15h66q10 0 10 -6z" />
    <glyph glyph-name="Ccircumflex" unicode="&#x108;" horiz-adv-x="545" 
d="M456 750q67 0 165 -16q8 -1 11.5 -3.5t2.5 -9.5l-9 -51q-1 -12 -17 -11q-105 9 -166 9q-80 0 -136.5 -53.5t-77.5 -173.5l-25 -139q-7 -39 -7 -74q0 -153 141 -153q23 0 167 8q12 1 15.5 -2.5t1.5 -13.5l-7 -41q-2 -9 -6.5 -13.5t-17.5 -6.5q-70 -13 -168 -13
q-40 0 -77 12.5t-69 38t-51.5 71.5t-19.5 107q0 39 7 80l25 139q56 309 318 309zM621 803q0 -9 -10 -9h-49q-10 0 -21 15l-64 97l-101 -97q-15 -15 -25 -15h-55q-8 0 -8 6q0 5 6 11l118 124q15 15 26 15h85q13 0 23 -15l73 -124q2 -3 2 -8z" />
    <glyph glyph-name="ccircumflex" unicode="&#x109;" horiz-adv-x="452" 
d="M348 480q-60 0 -101 -44.5t-54 -121.5l-13 -78q-6 -34 -6 -60q0 -106 101 -106q64 0 126 7q11 2 15.5 -2t2.5 -13l-6 -36q-1 -10 -6.5 -15t-17.5 -7q-61 -11 -127 -11q-85 0 -130 52t-45 136q0 23 5 55l13 78q20 120 86 181.5t170 61.5q64 0 123 -11q13 -2 15.5 -6.5
t0.5 -15.5l-6 -36q-3 -18 -24 -15q-60 7 -122 7zM519 632q0 -9 -10 -9h-49q-10 0 -21 15l-64 97l-101 -97q-15 -15 -25 -15h-55q-8 0 -8 6q0 5 6 11l118 124q15 15 26 15h85q13 0 23 -15l73 -124q2 -3 2 -8z" />
    <glyph glyph-name="Cdotaccent" unicode="&#x10a;" horiz-adv-x="545" 
d="M456 750q67 0 165 -16q8 -1 11.5 -3.5t2.5 -9.5l-9 -51q-1 -12 -17 -11q-105 9 -166 9q-80 0 -136.5 -53.5t-77.5 -173.5l-25 -139q-7 -39 -7 -74q0 -153 141 -153q23 0 167 8q12 1 15.5 -2.5t1.5 -13.5l-7 -41q-2 -9 -6.5 -13.5t-17.5 -6.5q-70 -13 -168 -13
q-40 0 -77 12.5t-69 38t-51.5 71.5t-19.5 107q0 39 7 80l25 139q56 309 318 309zM550 927v-3l-15 -84q-1 -8 -8 -14t-15 -6h-48q-16 0 -16 17v3l15 84q1 7 8 13t15 6h48q16 0 16 -16z" />
    <glyph glyph-name="cdotaccent" unicode="&#x10b;" horiz-adv-x="452" 
d="M348 480q-60 0 -101 -44.5t-54 -121.5l-13 -78q-6 -34 -6 -60q0 -106 101 -106q64 0 126 7q11 2 15.5 -2t2.5 -13l-6 -36q-1 -10 -6.5 -15t-17.5 -7q-61 -11 -127 -11q-85 0 -130 52t-45 136q0 23 5 55l13 78q20 120 86 181.5t170 61.5q64 0 123 -11q13 -2 15.5 -6.5
t0.5 -15.5l-6 -36q-3 -18 -24 -15q-60 7 -122 7zM440 745v-3l-15 -84q-1 -8 -8 -14t-15 -6h-48q-16 0 -16 17v3l15 84q1 7 8 13t15 6h48q16 0 16 -16z" />
    <glyph glyph-name="Ccaron" unicode="&#x10c;" horiz-adv-x="545" 
d="M456 750q67 0 165 -16q8 -1 11.5 -3.5t2.5 -9.5l-9 -51q-1 -12 -17 -11q-105 9 -166 9q-80 0 -136.5 -53.5t-77.5 -173.5l-25 -139q-7 -39 -7 -74q0 -153 141 -153q23 0 167 8q12 1 15.5 -2.5t1.5 -13.5l-7 -41q-2 -9 -6.5 -13.5t-17.5 -6.5q-70 -13 -168 -13
q-40 0 -77 12.5t-69 38t-51.5 71.5t-19.5 107q0 39 7 80l25 139q56 309 318 309zM660 944q0 -5 -6 -11l-119 -124q-15 -15 -27 -15h-85q-12 0 -22 15l-76 124q-2 3 -2 8q0 9 10 9h47q10 0 21 -16l66 -96l99 96q16 16 25 16h61q8 0 8 -6z" />
    <glyph glyph-name="ccaron" unicode="&#x10d;" horiz-adv-x="452" 
d="M348 480q-60 0 -101 -44.5t-54 -121.5l-13 -78q-6 -34 -6 -60q0 -106 101 -106q64 0 126 7q11 2 15.5 -2t2.5 -13l-6 -36q-1 -10 -6.5 -15t-17.5 -7q-61 -11 -127 -11q-85 0 -130 52t-45 136q0 23 5 55l13 78q20 120 86 181.5t170 61.5q64 0 123 -11q13 -2 15.5 -6.5
t0.5 -15.5l-6 -36q-3 -18 -24 -15q-60 7 -122 7zM566 773q0 -5 -6 -11l-119 -124q-15 -15 -27 -15h-85q-12 0 -22 15l-76 124q-2 3 -2 8q0 9 10 9h47q10 0 21 -16l66 -96l99 96q16 16 25 16h61q8 0 8 -6z" />
    <glyph glyph-name="Dcaron" unicode="&#x10e;" horiz-adv-x="641" 
d="M668 516q0 -38 -7 -77l-23 -135q-54 -311 -358 -311q-122 0 -180 10q-20 4 -17 25l121 687q5 22 25 25q60 10 184 10q118 0 186.5 -59.5t68.5 -174.5zM577 511q0 161 -178 161q-61 0 -111 -3l-105 -596q32 -2 111 -2q96 0 164.5 55.5t88.5 177.5l23 135q7 38 7 72z
M637 944q0 -5 -6 -11l-119 -124q-15 -15 -27 -15h-85q-12 0 -22 15l-76 124q-2 3 -2 8q0 9 10 9h47q10 0 21 -16l66 -96l99 96q16 16 25 16h61q8 0 8 -6z" />
    <glyph glyph-name="dcaron" unicode="&#x10f;" horiz-adv-x="650" 
d="M602 734v-1l-123 -700q-3 -19 -25 -23q-91 -17 -187 -17q-89 0 -135 49.5t-46 134.5q0 30 6 63l13 72q23 128 86.5 186.5t174.5 58.5q62 0 115 -10l33 186q4 19 23 19h51q14 0 14 -15v-3zM468 473q-37 7 -115 7q-129 0 -160 -168l-13 -72q-7 -42 -7 -65q0 -52 25.5 -78.5
t81.5 -26.5q48 0 118 6zM779 741q0 -2 -2 -8l-75 -189q-7 -19 -19 -19h-41q-12 0 -12 12q0 5 1 7l57 189q6 19 20 19h58q13 0 13 -11z" />
    <glyph glyph-name="Dcroat" unicode="&#x110;" horiz-adv-x="641" 
d="M666 516q0 -38 -7 -77l-23 -135q-54 -311 -358 -311q-122 0 -180 10q-18 3 -18 19q0 1 0.5 3t0.5 3l56 319h-37q-16 0 -16 17v3l6 38q4 20 24 20h37l51 290q5 22 25 25q60 10 184 10q118 0 186.5 -59.5t68.5 -174.5zM333 347h-104l-48 -274q32 -2 111 -2q96 0 164.5 55.5
t88.5 177.5l23 135q7 38 7 72q0 161 -178 161q-61 0 -111 -3l-43 -244h104q16 0 16 -17v-3l-6 -38q-4 -20 -24 -20z" />
    <glyph glyph-name="dcroat" unicode="&#x111;" horiz-adv-x="541" 
d="M628 623h-46l-103 -590q-3 -19 -25 -23q-91 -17 -187 -17q-89 0 -135 49.5t-46 134.5q0 30 6 63l13 72q23 128 86.5 186.5t174.5 58.5q62 0 115 -10l13 76h-169q-16 0 -16 17v3l6 33q4 20 24 20h168l7 37q4 19 23 19h51q14 0 14 -15v-4l-7 -37h47q16 0 16 -17v-3l-6 -33
q-4 -20 -24 -20zM468 473q-37 7 -115 7q-129 0 -160 -168l-13 -72q-7 -42 -7 -65q0 -52 25.5 -78.5t81.5 -26.5q48 0 118 6z" />
    <glyph glyph-name="Emacron" unicode="&#x112;" horiz-adv-x="551" 
d="M410 668q-77 0 -104.5 -22t-37.5 -82l-24 -139h307q19 0 16 -20l-6 -38q-4 -20 -24 -20h-307l-29 -168q-5 -27 -5 -41q0 -34 23.5 -48.5t85.5 -14.5h190q8 0 10.5 -2.5t1.5 -9.5l-9 -49q-2 -12 -12 -14q-68 -7 -196 -7q-87 0 -135.5 36.5t-48.5 107.5q0 22 4 42l67 385
q19 106 77 146t169 40q145 0 194 -9q11 -1 8 -14l-9 -47q-1 -12 -13 -12h-193zM612 874v-3l-6 -34q-3 -17 -23 -17h-288q-17 0 -17 14v3l6 34q3 17 23 17h288q17 0 17 -14z" />
    <glyph glyph-name="emacron" unicode="&#x113;" horiz-adv-x="544" 
d="M555 371q0 -29 -6 -60l-8 -42q-5 -22 -22 -22h-337l-2 -12q-6 -34 -6 -61q0 -107 124 -107q79 0 173 14q12 2 16 -1t3 -13l-6 -34q-2 -11 -7 -16t-17 -7q-91 -17 -175 -17q-83 0 -140 45.5t-57 139.5q0 29 6 62l13 70q23 120 91 183.5t174 63.5q89 0 136 -51.5t47 -134.5
zM467 374q0 106 -108 106q-63 0 -106 -44.5t-57 -116.5l-1 -5h265l1 5q6 30 6 55zM572 703v-3l-6 -34q-3 -17 -23 -17h-288q-17 0 -17 14v3l6 34q3 17 23 17h288q17 0 17 -14z" />
    <glyph glyph-name="Ebreve" unicode="&#x114;" horiz-adv-x="551" 
d="M410 668q-77 0 -104.5 -22t-37.5 -82l-24 -139h307q19 0 16 -20l-6 -38q-4 -20 -24 -20h-307l-29 -168q-5 -27 -5 -41q0 -34 23.5 -48.5t85.5 -14.5h190q8 0 10.5 -2.5t1.5 -9.5l-9 -49q-2 -12 -12 -14q-68 -7 -196 -7q-87 0 -135.5 36.5t-48.5 107.5q0 22 4 42l67 385
q19 106 77 146t169 40q145 0 194 -9q11 -1 8 -14l-9 -47q-1 -12 -13 -12h-193zM633 941q0 -5 -1 -8q-14 -68 -64 -104.5t-113 -36.5t-106 36t-43 105q0 17 14 17h35q13 0 13 -16q0 -80 87 -80q91 0 113 80q4 16 17 16h39q9 0 9 -9z" />
    <glyph glyph-name="ebreve" unicode="&#x115;" horiz-adv-x="544" 
d="M555 371q0 -29 -6 -60l-8 -42q-5 -22 -22 -22h-337l-2 -12q-6 -34 -6 -61q0 -107 124 -107q79 0 173 14q12 2 16 -1t3 -13l-6 -34q-2 -11 -7 -16t-17 -7q-91 -17 -175 -17q-83 0 -140 45.5t-57 139.5q0 29 6 62l13 70q23 120 91 183.5t174 63.5q89 0 136 -51.5t47 -134.5
zM467 374q0 106 -108 106q-63 0 -106 -44.5t-57 -116.5l-1 -5h265l1 5q6 30 6 55zM580 770q0 -5 -1 -8q-14 -68 -64 -104.5t-113 -36.5t-106 36t-43 105q0 17 14 17h35q13 0 13 -16q0 -80 87 -80q91 0 113 80q4 16 17 16h39q9 0 9 -9z" />
    <glyph glyph-name="Edotaccent" unicode="&#x116;" horiz-adv-x="551" 
d="M410 668q-77 0 -104.5 -22t-37.5 -82l-24 -139h307q19 0 16 -20l-6 -38q-4 -20 -24 -20h-307l-29 -168q-5 -27 -5 -41q0 -34 23.5 -48.5t85.5 -14.5h190q8 0 10.5 -2.5t1.5 -9.5l-9 -49q-2 -12 -12 -14q-68 -7 -196 -7q-87 0 -135.5 36.5t-48.5 107.5q0 22 4 42l67 385
q19 106 77 146t169 40q145 0 194 -9q11 -1 8 -14l-9 -47q-1 -12 -13 -12h-193zM510 916v-3l-15 -84q-1 -8 -8 -14t-15 -6h-48q-16 0 -16 17v3l15 84q1 7 8 13t15 6h48q16 0 16 -16z" />
    <glyph glyph-name="edotaccent" unicode="&#x117;" horiz-adv-x="544" 
d="M555 371q0 -29 -6 -60l-8 -42q-5 -22 -22 -22h-337l-2 -12q-6 -34 -6 -61q0 -107 124 -107q79 0 173 14q12 2 16 -1t3 -13l-6 -34q-2 -11 -7 -16t-17 -7q-91 -17 -175 -17q-83 0 -140 45.5t-57 139.5q0 29 6 62l13 70q23 120 91 183.5t174 63.5q89 0 136 -51.5t47 -134.5
zM467 374q0 106 -108 106q-63 0 -106 -44.5t-57 -116.5l-1 -5h265l1 5q6 30 6 55zM464 745v-3l-15 -84q-1 -8 -8 -14t-15 -6h-48q-16 0 -16 17v3l15 84q1 7 8 13t15 6h48q16 0 16 -16z" />
    <glyph glyph-name="Eogonek" unicode="&#x118;" horiz-adv-x="551" 
d="M625 729v-2l-9 -47q-2 -12 -13 -12h-193q-77 0 -104.5 -22t-37.5 -82l-24 -139h307q16 0 16 -17v-3l-6 -38q-4 -20 -24 -20h-307l-29 -168q-5 -27 -5 -41q0 -34 23.5 -48.5t85.5 -14.5h193q9 0 9 -9v-3l-9 -49q-2 -12 -12 -14q-5 0 -33 -2l-64 -40q-42 -26 -54 -37.5
t-12 -32.5q0 -20 15.5 -25t47.5 -5q14 0 31 2.5t28.5 5t13.5 2.5q5 0 4 -8l-7 -39q-1 -8 -13 -11q-30 -10 -78 -10q-58 0 -87 20.5t-29 55.5q0 41 22 66t60 45l14 7q-20 -1 -55 -1q-87 0 -135.5 36.5t-48.5 107.5q0 22 4 42l67 385q19 106 77 146t169 40q145 0 194 -9
q8 -1 8 -12z" />
    <glyph glyph-name="eogonek" unicode="&#x119;" horiz-adv-x="544" 
d="M555 371q0 -29 -6 -60l-8 -42q-5 -22 -22 -22h-335l-3 -12q-8 -31 -8 -61q0 -107 125 -107q79 0 173 14l9 1q12 0 10 -15l-6 -34q-3 -15 -14 -21l-89 -54q-48 -30 -58 -43q-8 -11 -8 -26q0 -31 63 -31q14 0 31 2.5t28.5 5t13.5 2.5q5 0 4 -8l-7 -39q-1 -8 -13 -11
q-30 -10 -78 -10q-115 0 -115 80q0 63 81 107l13 7q-16 -1 -51 -1q-83 0 -140 45.5t-57 139.5q0 29 6 62l13 70q23 120 91 183.5t174 63.5q89 0 136 -51.5t47 -134.5zM467 374q0 106 -108 106q-63 0 -106 -44.5t-57 -116.5l-1 -5h265l1 5q6 30 6 55z" />
    <glyph glyph-name="Ecaron" unicode="&#x11a;" horiz-adv-x="551" 
d="M410 668q-77 0 -104.5 -22t-37.5 -82l-24 -139h307q19 0 16 -20l-6 -38q-4 -20 -24 -20h-307l-29 -168q-5 -27 -5 -41q0 -34 23.5 -48.5t85.5 -14.5h190q8 0 10.5 -2.5t1.5 -9.5l-9 -49q-2 -12 -12 -14q-68 -7 -196 -7q-87 0 -135.5 36.5t-48.5 107.5q0 22 4 42l67 385
q19 106 77 146t169 40q145 0 194 -9q11 -1 8 -14l-9 -47q-1 -12 -13 -12h-193zM650 944q0 -5 -6 -11l-119 -124q-15 -15 -27 -15h-85q-12 0 -22 15l-76 124q-2 3 -2 8q0 9 10 9h47q10 0 21 -16l66 -96l99 96q16 16 25 16h61q8 0 8 -6z" />
    <glyph glyph-name="ecaron" unicode="&#x11b;" horiz-adv-x="544" 
d="M555 371q0 -29 -6 -60l-8 -42q-5 -22 -22 -22h-337l-2 -12q-6 -34 -6 -61q0 -107 124 -107q79 0 173 14q12 2 16 -1t3 -13l-6 -34q-2 -11 -7 -16t-17 -7q-91 -17 -175 -17q-83 0 -140 45.5t-57 139.5q0 29 6 62l13 70q23 120 91 183.5t174 63.5q89 0 136 -51.5t47 -134.5
zM467 374q0 106 -108 106q-63 0 -106 -44.5t-57 -116.5l-1 -5h265l1 5q6 30 6 55zM594 773q0 -5 -6 -11l-119 -124q-15 -15 -27 -15h-85q-12 0 -22 15l-76 124q-2 3 -2 8q0 9 10 9h47q10 0 21 -16l66 -96l99 96q16 16 25 16h61q8 0 8 -6z" />
    <glyph glyph-name="Gcircumflex" unicode="&#x11c;" horiz-adv-x="612" 
d="M458 750q102 0 188 -14q17 -2 14 -15l-9 -50q-1 -12 -18 -10q-81 7 -189 7q-36 0 -68 -11t-62.5 -35.5t-53.5 -71.5t-34 -112l-23 -134q-8 -48 -8 -79q0 -151 135 -151q55 0 127 6l51 286q4 20 21 20h54q16 0 16 -17v-3l-60 -336q-3 -19 -22 -22q-94 -15 -201 -15
q-88 0 -149.5 59t-61.5 176q0 38 7 76l23 134q54 312 323 312zM640 802q0 -9 -10 -9h-49q-11 0 -21 15l-64 97l-101 -97q-15 -15 -25 -15h-55q-8 0 -8 6q0 5 6 11l118 124q15 15 26 15h85q13 0 23 -15l73 -124q2 -3 2 -8z" />
    <glyph glyph-name="gcircumflex" unicode="&#x11d;" horiz-adv-x="541" 
d="M92 239l13 73q24 132 87.5 188.5t178.5 56.5q81 0 175 -23q13 -3 16 -7.5t1 -15.5l-90 -510q-20 -113 -73.5 -155.5t-164.5 -42.5q-106 0 -167 18q-12 3 -15 7.5t-1 13.5l5 29q2 10 7 13.5t17 2.5q102 -12 167 -12q67 0 96 26t40 94l2 12q-61 -14 -114 -14
q-85 0 -135.5 44t-50.5 135q0 31 6 67zM468 472q-59 11 -110 11q-70 0 -109.5 -41.5t-55.5 -129.5l-13 -73q-7 -38 -7 -71q0 -56 26.5 -78.5t85.5 -22.5q64 0 114 11zM550 632q0 -9 -10 -9h-49q-11 0 -21 15l-64 97l-101 -97q-15 -15 -25 -15h-55q-8 0 -8 6q0 5 6 11
l118 124q15 15 26 15h85q13 0 23 -15l73 -124q2 -3 2 -8z" />
    <glyph glyph-name="Gbreve" unicode="&#x11e;" horiz-adv-x="612" 
d="M458 750q102 0 188 -14q17 -2 14 -15l-9 -50q-1 -12 -18 -10q-81 7 -189 7q-36 0 -68 -11t-62.5 -35.5t-53.5 -71.5t-34 -112l-23 -134q-8 -48 -8 -79q0 -151 135 -151q55 0 127 6l51 286q4 20 21 20h54q16 0 16 -17v-3l-60 -336q-3 -19 -22 -22q-94 -15 -201 -15
q-88 0 -149.5 59t-61.5 176q0 38 7 76l23 134q54 312 323 312zM653 943q0 -5 -1 -8q-14 -68 -64 -104.5t-113 -36.5t-106 36t-43 105q0 17 14 17h35q13 0 13 -16q0 -80 87 -80q91 0 113 80q4 16 17 16h39q9 0 9 -9z" />
    <glyph glyph-name="gbreve" unicode="&#x11f;" horiz-adv-x="541" 
d="M92 239l13 73q24 132 87.5 188.5t178.5 56.5q81 0 175 -23q13 -3 16 -7.5t1 -15.5l-90 -510q-20 -113 -73.5 -155.5t-164.5 -42.5q-106 0 -167 18q-12 3 -15 7.5t-1 13.5l5 29q2 10 7 13.5t17 2.5q102 -12 167 -12q67 0 96 26t40 94l2 12q-61 -14 -114 -14
q-85 0 -135.5 44t-50.5 135q0 31 6 67zM468 472q-59 11 -110 11q-70 0 -109.5 -41.5t-55.5 -129.5l-13 -73q-7 -38 -7 -71q0 -56 26.5 -78.5t85.5 -22.5q64 0 114 11zM577 771q0 -5 -1 -8q-14 -68 -64 -104.5t-113 -36.5t-106 36t-43 105q0 17 14 17h35q13 0 13 -16
q0 -80 87 -80q91 0 113 80q4 16 17 16h39q9 0 9 -9z" />
    <glyph glyph-name="Gdotaccent" unicode="&#x120;" horiz-adv-x="612" 
d="M458 750q102 0 188 -14q17 -2 14 -15l-9 -50q-1 -12 -18 -10q-81 7 -189 7q-36 0 -68 -11t-62.5 -35.5t-53.5 -71.5t-34 -112l-23 -134q-8 -48 -8 -79q0 -151 135 -151q55 0 127 6l51 286q4 20 21 20h54q16 0 16 -17v-3l-60 -336q-3 -19 -22 -22q-94 -15 -201 -15
q-88 0 -149.5 59t-61.5 176q0 38 7 76l23 134q54 312 323 312zM542 900v-3l-15 -84q-1 -8 -8 -14t-15 -6h-48q-16 0 -16 17v3l15 84q1 7 8 13t15 6h48q16 0 16 -16z" />
    <glyph glyph-name="gdotaccent" unicode="&#x121;" horiz-adv-x="541" 
d="M92 239l13 73q24 132 87.5 188.5t178.5 56.5q81 0 175 -23q13 -3 16 -7.5t1 -15.5l-90 -510q-20 -113 -73.5 -155.5t-164.5 -42.5q-106 0 -167 18q-12 3 -15 7.5t-1 13.5l5 29q2 10 7 13.5t17 2.5q102 -12 167 -12q67 0 96 26t40 94l2 12q-61 -14 -114 -14
q-85 0 -135.5 44t-50.5 135q0 31 6 67zM468 472q-59 11 -110 11q-70 0 -109.5 -41.5t-55.5 -129.5l-13 -73q-7 -38 -7 -71q0 -56 26.5 -78.5t85.5 -22.5q64 0 114 11zM458 745v-3l-15 -84q-1 -8 -8 -14t-15 -6h-48q-16 0 -16 17v3l15 84q1 7 8 13t15 6h48q16 0 16 -16z" />
    <glyph glyph-name="Gcommaaccent" unicode="&#x122;" horiz-adv-x="612" 
d="M458 750q102 0 188 -14q17 -2 14 -15l-9 -50q-1 -12 -18 -10q-81 7 -189 7q-36 0 -68 -11t-62.5 -35.5t-53.5 -71.5t-34 -112l-23 -134q-8 -48 -8 -79q0 -151 135 -151q55 0 127 6l51 286q4 20 21 20h54q16 0 16 -17v-3l-60 -336q-3 -19 -22 -22q-94 -15 -201 -15
q-88 0 -149.5 59t-61.5 176q0 38 7 76l23 134q54 312 323 312zM282 -49h69q11 0 9 -11l-2 -8l-74 -109q-5 -8 -7.5 -11t-7.5 -5.5t-12 -2.5h-41q-9 0 -8 8q0 1 1 3.5t2 4.5l48 112q7 19 23 19z" />
    <glyph glyph-name="gcommaaccent" unicode="&#x123;" horiz-adv-x="541" 
d="M92 239l13 73q24 132 87.5 188.5t178.5 56.5q81 0 175 -23q13 -3 16 -7.5t1 -15.5l-90 -510q-20 -113 -73.5 -155.5t-164.5 -42.5q-106 0 -167 18q-12 3 -15 7.5t-1 13.5l5 29q2 10 7 13.5t17 2.5q102 -12 167 -12q67 0 96 26t40 94l2 12q-61 -14 -114 -14
q-85 0 -135.5 44t-50.5 135q0 31 6 67zM468 472q-59 11 -110 11q-70 0 -109.5 -41.5t-55.5 -129.5l-13 -73q-7 -38 -7 -71q0 -56 26.5 -78.5t85.5 -22.5q64 0 114 11zM417 623h-69q-4 0 -7.5 3t-2.5 8q0 4 4 8l73 109q5 8 7.5 11t7.5 5.5t12 2.5h41q9 0 8 -8q0 -1 -1 -3.5
t-2 -4.5l-47 -112q-8 -19 -24 -19z" />
    <glyph glyph-name="Hcircumflex" unicode="&#x124;" horiz-adv-x="680" 
d="M662 743h51q19 0 16 -20l-123 -703q-4 -20 -24 -20h-51q-19 0 -16 20l58 332h-342l-58 -332q-4 -20 -24 -20h-51q-9 0 -13.5 6t-2.5 14l123 703q4 20 24 20h51q19 0 16 -20l-51 -290h342l51 290q1 7 3 10.5t7 6.5t14 3zM643 802q0 -9 -10 -9h-49q-10 0 -21 15l-64 97
l-101 -97q-15 -15 -25 -15h-55q-8 0 -8 6q0 5 6 11l118 124q15 15 26 15h85q13 0 23 -15l73 -124q2 -3 2 -8z" />
    <glyph glyph-name="hcircumflex" unicode="&#x125;" horiz-adv-x="557" 
d="M556 397q0 -13 -4 -41l-59 -336q-4 -20 -24 -20h-48q-19 0 -16 20l59 336q4 20 4 40q0 46 -26.5 66t-85.5 20q-65 0 -118 -15l-78 -447q-1 -7 -3 -10.5t-7 -6.5t-14 -3h-48q-20 0 -16 20l125 713q4 19 22 19h51q19 0 15 -19l-33 -190q61 14 117 14q93 0 140 -44.5
t47 -115.5zM598 802q0 -9 -10 -9h-49q-11 0 -21 15l-64 97l-101 -97q-15 -15 -25 -15h-55q-8 0 -8 6q0 5 6 11l118 124q15 15 26 15h85q13 0 23 -15l73 -124q2 -3 2 -8z" />
    <glyph glyph-name="Hbar" unicode="&#x126;" horiz-adv-x="680" 
d="M759 562q-4 -20 -24 -20h-38l-92 -522q-4 -20 -23 -20h-51q-8 0 -13 6t-4 14l59 332h-342l-59 -332q-4 -20 -23 -20h-51q-8 0 -13 6t-4 14l92 522h-38q-8 0 -13 6t-3 14l7 41q4 20 23 20h38l18 100q4 20 24 20h51q8 0 13 -6t3 -14l-18 -100h342l18 100q4 20 24 20h51
q8 0 13 -6t3 -14l-18 -100h38q8 0 13 -6t4 -14zM245 433h342l19 109h-342z" />
    <glyph glyph-name="hbar" unicode="&#x127;" horiz-adv-x="557" 
d="M156 697h34l7 36q4 19 22 19h51q15 0 15 -15v-4l-6 -36h160q21 0 17 -20l-6 -34q-4 -20 -24 -20h-160l-14 -80q61 14 117 14q93 0 140 -44.5t47 -115.5q0 -13 -4 -41l-59 -336q-4 -20 -24 -20h-48q-16 0 -16 16v4l59 336q4 20 4 40q0 46 -26.5 66t-85.5 20
q-65 0 -118 -15l-78 -447q-4 -20 -24 -20h-48q-16 0 -16 16v4l105 603h-34q-20 0 -16 20l6 34q4 20 23 20z" />
    <glyph glyph-name="Itilde" unicode="&#x128;" horiz-adv-x="267" 
d="M237 743h55q18 0 15 -19l-124 -704q-3 -20 -22 -20h-55q-18 0 -14 20l124 704q4 19 21 19zM470 917v-3l-4 -23q-9 -54 -32.5 -79.5t-69.5 -25.5q-49 0 -76 26l-47 44q-23 22 -37 22q-34 0 -40 -46l-3 -21q-2 -17 -17 -17h-34q-13 0 -13 14v3l3 21q15 109 104 109
q39 0 74 -31l54 -49q16 -14 32 -14t25 9.5t13 34.5l4 23q4 17 17 17h34q13 0 13 -14z" />
    <glyph glyph-name="itilde" unicode="&#x129;" horiz-adv-x="247" 
d="M260 534v-4l-89 -510q-4 -20 -24 -20h-48q-16 0 -16 16v4l89 510q4 20 24 20h48q16 0 16 -16zM436 757v-3l-4 -23q-9 -54 -32.5 -79.5t-69.5 -25.5q-49 0 -76 26l-47 44q-23 22 -37 22q-34 0 -40 -46l-3 -21q-2 -17 -17 -17h-34q-13 0 -13 14v3l3 21q15 109 104 109
q39 0 74 -31l54 -49q16 -14 32 -14t25 9.5t13 34.5l4 23q4 17 17 17h34q13 0 13 -14z" />
    <glyph glyph-name="Imacron" unicode="&#x12a;" horiz-adv-x="267" 
d="M237 743h55q18 0 15 -19l-124 -704q-3 -20 -22 -20h-55q-18 0 -14 20l124 704q4 19 21 19zM451 873v-3l-6 -34q-3 -17 -23 -17h-288q-17 0 -17 14v3l6 34q3 17 23 17h288q17 0 17 -14z" />
    <glyph glyph-name="imacron" unicode="&#x12b;" horiz-adv-x="247" 
d="M260 534v-4l-89 -510q-4 -20 -24 -20h-48q-16 0 -16 16v4l89 510q4 20 24 20h48q16 0 16 -16zM409 703v-3l-6 -34q-3 -17 -23 -17h-288q-17 0 -17 14v3l6 34q3 17 23 17h288q17 0 17 -14z" />
    <glyph glyph-name="Ibreve" unicode="&#x12c;" horiz-adv-x="267" 
d="M237 743h55q18 0 15 -19l-124 -704q-3 -20 -22 -20h-55q-18 0 -14 20l124 704q4 19 21 19zM457 942q0 -5 -1 -8q-14 -68 -64 -104.5t-113 -36.5t-106 36t-43 105q0 17 14 17h35q13 0 13 -16q0 -80 87 -80q91 0 113 80q4 16 17 16h39q9 0 9 -9z" />
    <glyph glyph-name="ibreve" unicode="&#x12d;" horiz-adv-x="247" 
d="M260 534v-4l-89 -510q-4 -20 -24 -20h-48q-16 0 -16 16v4l89 510q4 20 24 20h48q16 0 16 -16zM417 770q0 -5 -1 -8q-14 -68 -64 -104.5t-113 -36.5t-106 36t-43 105q0 17 14 17h35q13 0 13 -16q0 -80 87 -80q91 0 113 80q4 16 17 16h39q9 0 9 -9z" />
    <glyph glyph-name="Iogonek" unicode="&#x12e;" horiz-adv-x="267" 
d="M307 724l-124 -705q-1 -12 -13 -18l-71 -43q-48 -30 -58 -43q-8 -11 -8 -26q0 -31 63 -31q14 0 31 2.5t28.5 5t13.5 2.5q5 0 4 -8l-7 -39q-1 -8 -13 -11q-30 -10 -78 -10q-116 0 -116 76q0 67 82 111l50 27l125 710q4 19 21 19h55q15 0 15 -15v-4z" />
    <glyph glyph-name="iogonek" unicode="&#x12f;" horiz-adv-x="247" 
d="M260 530l-86 -493q-4 -27 -19 -36l-71 -43q-43 -26 -54.5 -38t-11.5 -31q0 -31 63 -31q14 0 31 2.5t28.5 5t13.5 2.5q5 0 4 -8l-7 -39q-1 -8 -13 -11q-30 -10 -78 -10q-116 0 -116 76q0 40 21.5 64.5t60.5 46.5l57 33l89 510q4 20 24 20h48q16 0 16 -16v-4zM299 742v-4
l-14 -80q-4 -20 -24 -20h-51q-16 0 -16 16v4l14 80q4 20 24 20h51q16 0 16 -16z" />
    <glyph glyph-name="Idotaccent" unicode="&#x130;" horiz-adv-x="267" 
d="M237 743h55q18 0 15 -19l-124 -704q-3 -20 -22 -20h-55q-18 0 -14 20l124 704q4 19 21 19zM343 916v-3l-15 -84q-1 -8 -8 -14t-15 -6h-48q-16 0 -16 17v3l15 84q1 7 8 13t15 6h48q16 0 16 -16z" />
    <glyph glyph-name="dotlessi" unicode="&#x131;" horiz-adv-x="247" 
d="M260 534v-4l-89 -510q-4 -20 -24 -20h-48q-16 0 -16 16v4l89 510q4 20 24 20h48q16 0 16 -16z" />
    <glyph glyph-name="IJ" unicode="&#x132;" horiz-adv-x="524" 
d="M307 728v-4l-124 -704q-4 -20 -22 -20h-55q-14 0 -14 16v4l124 704q4 19 21 19h55q15 0 15 -15zM574 727v-3l-135 -761q-13 -73 -56 -108t-124 -35q-38 0 -51 8q-4 3 -4 8v3l6 37q3 17 23 17h39q38 0 53.5 15.5t22.5 54.5l135 761q4 19 22 19h53q16 0 16 -16z" />
    <glyph glyph-name="ij" unicode="&#x133;" horiz-adv-x="494" 
d="M299 742v-4l-14 -80q-4 -20 -24 -20h-51q-16 0 -16 16v4l14 80q4 20 24 20h51q16 0 16 -16zM260 534v-4l-89 -510q-4 -20 -24 -20h-48q-16 0 -16 16v4l89 510q4 20 24 20h48q16 0 16 -16zM546 742v-3l-14 -81q-4 -20 -24 -20h-52q-15 0 -15 16v4l14 81q3 19 23 19h52
q16 0 16 -16zM507 534v-4l-104 -594q-13 -74 -49.5 -103.5t-100.5 -29.5q-28 0 -53 4q-15 3 -15 12v4l6 37q3 14 24 14h42q28 0 39.5 12t18.5 50l104 594q4 20 24 20h48q16 0 16 -16z" />
    <glyph glyph-name="Jcircumflex" unicode="&#x134;" horiz-adv-x="257" 
d="M238 743h53q19 0 16 -19l-135 -761q-13 -73 -56 -108t-124 -35q-32 0 -48 7q-8 3 -7 12l6 37q3 17 23 17h39q38 0 53.5 15.5t22.5 54.5l135 761q4 19 22 19zM435 802q0 -9 -10 -9h-49q-10 0 -21 15l-64 97l-101 -97q-15 -15 -25 -15h-55q-8 0 -8 6q0 5 6 11l118 124
q15 15 26 15h85q13 0 23 -15l73 -124q2 -3 2 -8z" />
    <glyph glyph-name="jcircumflex" unicode="&#x135;" horiz-adv-x="247" 
d="M260 534v-4l-104 -594q-13 -74 -49.5 -103.5t-100.5 -29.5q-28 0 -53 4q-15 3 -15 12v4l6 37q3 14 24 14h42q28 0 39.5 12t18.5 50l104 594q4 20 24 20h48q16 0 16 -16zM395 632q0 -9 -10 -9h-49q-10 0 -21 15l-64 97l-101 -97q-15 -15 -25 -15h-55q-8 0 -8 6q0 5 6 11
l118 124q15 15 26 15h85q13 0 23 -15l73 -124q2 -3 2 -8z" />
    <glyph glyph-name="Kcommaaccent" unicode="&#x136;" horiz-adv-x="607" 
d="M691 733q0 -6 -5 -11l-370 -340l239 -366q2 -4 2 -6q0 -10 -11 -10h-72q-14 0 -20 10l-222 346l-59 -336q-2 -10 -6 -15t-16 -5h-55q-8 0 -12 6t-2 14l124 704q4 19 22 19h53q20 0 16 -19l-55 -314l336 324q10 9 22 9h78q13 0 13 -10zM279 -49h69q11 0 9 -11l-2 -8
l-74 -109q-5 -8 -7.5 -11t-7.5 -5.5t-12 -2.5h-41q-9 0 -8 8q0 1 1 3.5t2 4.5l48 112q7 19 23 19z" />
    <glyph glyph-name="kcommaaccent" unicode="&#x137;" horiz-adv-x="496" 
d="M546 540q0 -7 -6 -13l-259 -238l181 -266q3 -5 3 -9q0 -14 -14 -14h-58q-17 0 -27 15l-164 246l-42 -241q-4 -20 -19 -20h-53q-9 0 -13.5 6t-2.5 14l125 712q4 20 24 20h48q20 0 16 -20l-72 -406l230 215q9 9 22 9h68q13 0 13 -10zM224 -49h69q11 0 9 -11l-2 -8l-74 -109
q-5 -8 -7.5 -11t-7.5 -5.5t-12 -2.5h-41q-9 0 -8 8q0 1 1 3.5t2 4.5l48 112q7 19 23 19z" />
    <glyph glyph-name="kgreenlandic" unicode="&#x138;" horiz-adv-x="496" 
d="M546 540q0 -7 -6 -13l-259 -238l181 -266q3 -5 3 -9q0 -14 -14 -14h-58q-17 0 -27 15l-164 246l-42 -241q-4 -20 -19 -20h-53q-16 0 -16 16v4l89 510q4 20 24 20h48q16 0 16 -16v-4l-36 -204l230 215q9 9 22 9h68q13 0 13 -10z" />
    <glyph glyph-name="Lacute" unicode="&#x139;" horiz-adv-x="514" 
d="M506 63v-3l-7 -44q-1 -12 -13 -14q-61 -9 -196 -9q-85 0 -134 30.5t-49 111.5q0 30 5 56l93 532q4 20 24 20h51q9 0 13.5 -6t2.5 -14l-95 -544q-5 -27 -5 -44q0 -34 23 -47t86 -13h188q13 0 13 -12zM551 944q0 -4 -5 -9l-136 -126q-16 -15 -25 -15h-54q-8 0 -8 6
q0 5 6 11l120 124q15 15 26 15h66q10 0 10 -6z" />
    <glyph glyph-name="lacute" unicode="&#x13a;" horiz-adv-x="244" 
d="M229 752h52q18 0 14 -19l-125 -713q-4 -20 -22 -20h-52q-8 0 -12 6t-2 14l125 713q3 19 22 19zM422 944q0 -4 -5 -9l-136 -126q-16 -15 -25 -15h-54q-8 0 -8 6q0 5 6 11l120 124q15 15 26 15h66q10 0 10 -6z" />
    <glyph glyph-name="Lcommaaccent" unicode="&#x13b;" horiz-adv-x="514" 
d="M506 63v-3l-7 -44q-1 -12 -13 -14q-61 -9 -196 -9q-85 0 -134 30.5t-49 111.5q0 30 5 56l93 532q4 20 24 20h51q9 0 13.5 -6t2.5 -14l-95 -544q-5 -27 -5 -44q0 -34 23 -47t86 -13h188q13 0 13 -12zM246 -49h69q11 0 9 -11l-2 -8l-74 -109q-5 -8 -7.5 -11t-7.5 -5.5
t-12 -2.5h-41q-9 0 -8 8q0 1 1 3.5t2 4.5l48 112q7 19 23 19z" />
    <glyph glyph-name="lcommaaccent" unicode="&#x13c;" horiz-adv-x="244" 
d="M229 752h52q18 0 14 -19l-125 -713q-4 -20 -22 -20h-52q-8 0 -12 6t-2 14l125 713q3 19 22 19zM78 -49h69q11 0 9 -11l-2 -8l-74 -109q-5 -8 -7.5 -11t-7.5 -5.5t-12 -2.5h-41q-9 0 -8 8q0 1 1 3.5t2 4.5l48 112q7 19 23 19z" />
    <glyph glyph-name="Lcaron" unicode="&#x13d;" horiz-adv-x="514" 
d="M506 63v-3l-7 -44q-1 -12 -13 -14q-61 -9 -196 -9q-85 0 -134 30.5t-49 111.5q0 30 5 56l93 532q4 20 24 20h51q9 0 13.5 -6t2.5 -14l-95 -544q-5 -27 -5 -44q0 -34 23 -47t86 -13h188q13 0 13 -12zM529 732q0 -1 -1.5 -4t-1.5 -4l-109 -189q-10 -19 -22 -19h-41
q-12 0 -10 12q0 1 1 3.5t1 3.5l91 189q9 19 23 19h58q13 0 11 -11z" />
    <glyph glyph-name="lcaron" unicode="&#x13e;" horiz-adv-x="340" 
d="M295 737v-4l-125 -713q-4 -20 -22 -20h-52q-14 0 -14 16v4l125 713q3 19 22 19h52q14 0 14 -15zM469 741q0 -2 -2 -8l-75 -189q-7 -19 -19 -19h-41q-12 0 -12 12q0 5 1 7l57 189q6 19 20 19h58q13 0 13 -11z" />
    <glyph glyph-name="Ldot" unicode="&#x13f;" horiz-adv-x="514" 
d="M506 63v-3l-7 -44q-1 -12 -13 -14q-61 -9 -196 -9q-85 0 -134 30.5t-49 111.5q0 30 5 56l93 532q4 20 24 20h51q9 0 13.5 -6t2.5 -14l-95 -544q-5 -27 -5 -44q0 -34 23 -47t86 -13h188q13 0 13 -12zM470 411v-3l-15 -84q-1 -8 -8 -14t-15 -6h-48q-16 0 -16 17v3l15 84
q1 7 8 13t15 6h48q16 0 16 -16z" />
    <glyph glyph-name="ldot" unicode="&#x140;" horiz-adv-x="388" 
d="M295 737v-4l-125 -713q-4 -20 -22 -20h-52q-14 0 -14 16v4l125 713q3 19 22 19h52q14 0 14 -15zM421 411v-3l-15 -84q-1 -8 -8 -14t-15 -6h-48q-16 0 -16 17v3l15 84q1 7 8 13t15 6h48q16 0 16 -16z" />
    <glyph glyph-name="Lslash" unicode="&#x141;" horiz-adv-x="514" 
d="M507 66v-3q-1 -8 -4 -23.5t-4 -23.5q0 -2 -5 -9q-2 -3 -8 -5q-2 -1 -6.5 -1.5t-7.5 -0.5q-60 -7 -182 -7q-184 0 -184 142q0 23 4 44q3 19 9.5 58t10.5 59q-37 -37 -55 -56l-19 -19q-3 -3 -7 -5q-2 -1 -5 -1t-4 1q-2 2 -2 4v1q2 10 5.5 31t5.5 32q2 14 11 23
q15 15 44 44.5t44 44.5q1 5 2.5 14t2.5 13q9 50 26 150t26 150q4 20 24 20h51q7 0 12 -5q4 -4 4 -12v-3q-7 -36 -19.5 -108t-18.5 -108q14 14 41.5 42t41.5 42q3 3 7 5t5 2q4 0 5 -1t1 -5v-1q-2 -11 -5.5 -32.5t-5.5 -32.5q-2 -13 -12 -23q-16 -16 -47.5 -48t-47.5 -48
q-1 -5 -2.5 -14.5t-2.5 -13.5q-26 -145 -35 -200q-5 -27 -5 -42q0 -34 23.5 -48t85.5 -14h193q9 0 9 -9z" />
    <glyph glyph-name="lslash" unicode="&#x142;" horiz-adv-x="244" 
d="M352 588v-1q-2 -11 -6 -32.5t-6 -32.5q-1 -8 -9 -16q-16 -15 -46.5 -46.5t-45.5 -47.5q-11 -66 -34 -196t-35 -196q-4 -20 -22 -20h-52q-14 0 -14 16v4q9 48 25 142.5t25 141.5l-66 -66l-17 -17q-2 -2 -6 -4q-2 -1 -5 -1q-7 0 -7 7v1q2 10 5.5 30t5.5 30q2 14 11 23
q16 16 48 48.5t48 48.5q1 4 2.5 13t2.5 14q39 219 53 302q4 19 22 19h52q14 0 14 -15v-4q-6 -37 -19 -110.5t-20 -110.5q13 13 39 39.5t39 39.5q5 5 10 5q8 0 8 -8z" />
    <glyph glyph-name="Nacute" unicode="&#x143;" horiz-adv-x="680" 
d="M641 724l-102 -580q-1 -8 -3 -8q-1 0 -4 8l-208 579q-4 12 -10.5 16t-26.5 4h-49q-29 0 -34 -28l-124 -703q-3 -12 10 -12h58q17 0 21 19l103 584q0 3 2 3l2 -3l210 -587q6 -16 29 -16h58q29 0 34 29l123 695v4q0 15 -15 15h-53q-17 0 -21 -19zM631 944q0 -4 -5 -9
l-136 -126q-16 -15 -25 -15h-54q-8 0 -8 6q0 5 6 11l120 124q15 15 26 15h66q10 0 10 -6z" />
    <glyph glyph-name="nacute" unicode="&#x144;" horiz-adv-x="557" 
d="M556 403q0 -26 -5 -54l-58 -329q-4 -20 -24 -20h-48q-9 0 -13.5 6t-2.5 14l58 329q5 32 5 55q0 38 -20.5 57t-72.5 19q-60 0 -141 -38l-74 -422q-2 -8 -9 -14t-15 -6h-49q-8 0 -12.5 6.5t-2.5 13.5l89 510q4 20 26 20h42q22 0 19 -20l-3 -21q85 48 161 48t113 -42.5
t37 -111.5zM535 773q0 -4 -5 -9l-136 -126q-16 -15 -25 -15h-54q-8 0 -8 6q0 5 6 11l120 124q15 15 26 15h66q10 0 10 -6z" />
    <glyph glyph-name="Ncommaaccent" unicode="&#x145;" horiz-adv-x="680" 
d="M641 724l-102 -580q-1 -8 -3 -8q-1 0 -4 8l-208 579q-4 12 -10.5 16t-26.5 4h-49q-29 0 -34 -28l-124 -703q-3 -12 10 -12h58q17 0 21 19l103 584q0 3 2 3l2 -3l210 -587q6 -16 29 -16h58q29 0 34 29l123 695v4q0 15 -15 15h-53q-17 0 -21 -19zM316 -49h69q11 0 9 -11
l-2 -8l-74 -109q-5 -8 -7.5 -11t-7.5 -5.5t-12 -2.5h-41q-9 0 -8 8q0 1 1 3.5t2 4.5l48 112q7 19 23 19z" />
    <glyph glyph-name="ncommaaccent" unicode="&#x146;" horiz-adv-x="557" 
d="M556 403q0 -26 -5 -54l-58 -329q-4 -20 -24 -20h-48q-9 0 -13.5 6t-2.5 14l58 329q5 32 5 55q0 38 -20.5 57t-72.5 19q-60 0 -141 -38l-74 -422q-2 -8 -9 -14t-15 -6h-49q-8 0 -12.5 6.5t-2.5 13.5l89 510q4 20 26 20h42q22 0 19 -20l-3 -21q85 48 161 48t113 -42.5
t37 -111.5zM243 -49h69q11 0 9 -11l-2 -8l-74 -109q-5 -8 -7.5 -11t-7.5 -5.5t-12 -2.5h-41q-9 0 -8 8q0 1 1 3.5t2 4.5l48 112q7 19 23 19z" />
    <glyph glyph-name="Ncaron" unicode="&#x147;" horiz-adv-x="680" 
d="M641 724l-102 -580q-1 -8 -3 -8q-1 0 -4 8l-208 579q-4 12 -10.5 16t-26.5 4h-49q-29 0 -34 -28l-124 -703q-3 -12 10 -12h58q17 0 21 19l103 584q0 3 2 3l2 -3l210 -587q6 -16 29 -16h58q29 0 34 29l123 695v4q0 15 -15 15h-53q-17 0 -21 -19zM664 944q0 -5 -6 -11
l-119 -124q-15 -15 -27 -15h-85q-12 0 -22 15l-76 124q-2 3 -2 8q0 9 10 9h47q10 0 21 -16l66 -96l99 96q16 16 25 16h61q8 0 8 -6z" />
    <glyph glyph-name="ncaron" unicode="&#x148;" horiz-adv-x="557" 
d="M556 403q0 -26 -5 -54l-58 -329q-4 -20 -24 -20h-48q-9 0 -13.5 6t-2.5 14l58 329q5 32 5 55q0 38 -20.5 57t-72.5 19q-60 0 -141 -38l-74 -422q-2 -8 -9 -14t-15 -6h-49q-8 0 -12.5 6.5t-2.5 13.5l89 510q4 20 26 20h42q22 0 19 -20l-3 -21q85 48 161 48t113 -42.5
t37 -111.5zM577 773q0 -5 -6 -11l-119 -124q-15 -15 -27 -15h-85q-12 0 -22 15l-76 124q-2 3 -2 8q0 9 10 9h47q10 0 21 -16l66 -96l99 96q16 16 25 16h61q8 0 8 -6z" />
    <glyph glyph-name="napostrophe" unicode="&#x149;" horiz-adv-x="668" 
d="M262 744q0 -5 -3 -11l-94 -189q-9 -19 -22 -19h-38q-8 0 -8 7q0 4 3 12l70 189q7 19 24 19h59q9 0 9 -8zM667 403q0 -26 -5 -54l-58 -329q-4 -20 -24 -20h-48q-9 0 -13.5 6t-2.5 14l58 329q5 32 5 55q0 38 -20.5 57t-72.5 19q-60 0 -141 -38l-74 -422q-4 -20 -24 -20h-49
q-8 0 -12.5 6.5t-2.5 13.5l89 510q4 20 23 20h49q18 0 15 -20l-3 -21q85 48 161 48t113 -42.5t37 -111.5z" />
    <glyph glyph-name="Eng" unicode="&#x14a;" horiz-adv-x="680" 
d="M730 728v-4q-126 -713 -135 -761q-13 -73 -56 -108t-124 -35q-38 0 -51 8q-4 3 -4 8v3l6 37q3 17 23 17h39q38 0 53.5 15.5t22.5 54.5l6 37q-19 1 -24 16l-210 587l-2 3q-2 0 -2 -3l-103 -584q-4 -19 -21 -19h-52q-16 0 -16 9v3l124 703q2 12 12 20t22 8h49q20 0 26.5 -4
t10.5 -16l210 -584l1 -3h2l1 3l103 585q4 19 21 19h53q15 0 15 -15z" />
    <glyph glyph-name="eng" unicode="&#x14b;" horiz-adv-x="557" 
d="M390 -64l73 413q5 32 5 55q0 38 -20.5 57t-72.5 19q-60 0 -141 -38l-74 -422q-2 -8 -9 -14t-15 -6h-49q-15 0 -15 16v4l89 510q4 20 23 20h49q15 0 15 -16v-4l-3 -21q85 48 161 48t113 -42.5t37 -111.5q0 -26 -5 -54l-73 -413q-13 -74 -49.5 -103.5t-100.5 -29.5
q-28 0 -53 4q-15 3 -15 12v4l6 37q3 14 24 14h42q28 0 39.5 12t18.5 50z" />
    <glyph glyph-name="Omacron" unicode="&#x14c;" horiz-adv-x="661" 
d="M686 520q0 -36 -8 -84l-23 -129q-55 -314 -325 -314q-101 0 -162.5 58.5t-61.5 171.5q0 36 8 84l23 129q56 314 326 314q102 0 162.5 -59.5t60.5 -170.5zM594 519q0 79 -37 114t-108 35q-85 0 -142 -57t-78 -175l-23 -129q-7 -39 -7 -76q0 -83 37 -119.5t108 -36.5
q84 0 141 57.5t78 174.5l23 129q8 41 8 83zM657 874v-3l-6 -34q-3 -17 -23 -17h-288q-17 0 -17 14v3l6 34q3 17 23 17h288q17 0 17 -14z" />
    <glyph glyph-name="omacron" unicode="&#x14d;" horiz-adv-x="545" 
d="M555 369q0 -24 -5 -56l-13 -76q-42 -244 -266 -244q-88 0 -136 51.5t-48 137.5q0 23 5 55l13 76q42 244 265 244q90 0 137.5 -51.5t47.5 -136.5zM467 370q0 110 -110 110q-65 0 -108 -45t-56 -122l-13 -76q-6 -33 -6 -59q0 -54 26.5 -81t83.5 -27q65 0 108.5 46t56.5 121
l13 76q5 26 5 57zM568 703v-3l-6 -34q-3 -17 -23 -17h-288q-17 0 -17 14v3l6 34q3 17 23 17h288q17 0 17 -14z" />
    <glyph glyph-name="Obreve" unicode="&#x14e;" horiz-adv-x="661" 
d="M686 520q0 -36 -8 -84l-23 -129q-55 -314 -325 -314q-101 0 -162.5 58.5t-61.5 171.5q0 36 8 84l23 129q56 314 326 314q102 0 162.5 -59.5t60.5 -170.5zM594 519q0 79 -37 114t-108 35q-85 0 -142 -57t-78 -175l-23 -129q-7 -39 -7 -76q0 -83 37 -119.5t108 -36.5
q84 0 141 57.5t78 174.5l23 129q8 41 8 83zM681 942q0 -5 -1 -8q-14 -68 -64 -104.5t-113 -36.5t-106 36t-43 105q0 17 14 17h35q13 0 13 -16q0 -80 87 -80q91 0 113 80q4 16 17 16h39q9 0 9 -9z" />
    <glyph glyph-name="obreve" unicode="&#x14f;" horiz-adv-x="545" 
d="M555 369q0 -24 -5 -56l-13 -76q-42 -244 -266 -244q-88 0 -136 51.5t-48 137.5q0 23 5 55l13 76q42 244 265 244q90 0 137.5 -51.5t47.5 -136.5zM467 370q0 110 -110 110q-65 0 -108 -45t-56 -122l-13 -76q-6 -33 -6 -59q0 -54 26.5 -81t83.5 -27q65 0 108.5 46t56.5 121
l13 76q5 26 5 57zM579 770q0 -5 -1 -8q-14 -68 -64 -104.5t-113 -36.5t-106 36t-43 105q0 17 14 17h35q13 0 13 -16q0 -80 87 -80q91 0 113 80q4 16 17 16h39q9 0 9 -9z" />
    <glyph glyph-name="Ohungarumlaut" unicode="&#x150;" horiz-adv-x="661" 
d="M686 520q0 -36 -8 -84l-23 -129q-55 -314 -325 -314q-101 0 -162.5 58.5t-61.5 171.5q0 36 8 84l23 129q56 314 326 314q102 0 162.5 -59.5t60.5 -170.5zM594 519q0 79 -37 114t-108 35q-85 0 -142 -57t-78 -175l-23 -129q-7 -39 -7 -76q0 -83 37 -119.5t108 -36.5
q84 0 141 57.5t78 174.5l23 129q8 41 8 83zM725 944q0 -4 -5 -9l-135 -126q-17 -15 -25 -15h-54q-8 0 -8 6q0 5 6 11l119 124q15 15 27 15h65q10 0 10 -6zM550 944q0 -4 -5 -9l-135 -126q-16 -15 -25 -15h-54q-8 0 -8 6q0 5 6 11l119 124q15 15 27 15h65q10 0 10 -6z" />
    <glyph glyph-name="ohungarumlaut" unicode="&#x151;" horiz-adv-x="545" 
d="M555 369q0 -24 -5 -56l-13 -76q-42 -244 -266 -244q-88 0 -136 51.5t-48 137.5q0 23 5 55l13 76q42 244 265 244q90 0 137.5 -51.5t47.5 -136.5zM467 370q0 110 -110 110q-65 0 -108 -45t-56 -122l-13 -76q-6 -33 -6 -59q0 -54 26.5 -81t83.5 -27q65 0 108.5 46t56.5 121
l13 76q5 26 5 57zM637 773q0 -4 -5 -9l-135 -126q-17 -15 -25 -15h-54q-8 0 -8 6q0 5 6 11l119 124q15 15 27 15h65q10 0 10 -6zM462 773q0 -4 -5 -9l-135 -126q-16 -15 -25 -15h-54q-8 0 -8 6q0 5 6 11l119 124q15 15 27 15h65q10 0 10 -6z" />
    <glyph glyph-name="OE" unicode="&#x152;" horiz-adv-x="983" 
d="M1056 730v-3l-8 -47q-2 -12 -13 -12h-193q-76 0 -104 -22t-38 -82l-24 -139h307q16 0 16 -17v-3l-6 -38q-4 -20 -24 -20h-307l-30 -169q-4 -21 -4 -41q0 -34 23.5 -48.5t85.5 -14.5h193q9 0 9 -9v-3l-8 -47q-2 -12 -13 -14q-61 -9 -196 -9q-71 0 -112 19.5t-61 63.5
q-44 -43 -95.5 -62.5t-123.5 -19.5q-101 0 -162.5 59.5t-61.5 172.5q0 34 8 82l23 129q57 314 326 314q120 0 179 -82q34 46 84 64t129 18q138 0 194 -9q7 -1 7 -11zM596 518q0 150 -147 150q-179 0 -220 -232l-23 -129q-8 -41 -8 -83q0 -79 37 -114t109 -35q179 0 220 231
l24 134q8 43 8 78z" />
    <glyph glyph-name="oe" unicode="&#x153;" horiz-adv-x="901" 
d="M910 369q0 -5 -8 -58l-7 -42q-3 -22 -22 -22h-335q-9 -47 -9 -70q0 -110 126 -110q79 0 173 14h5q14 0 14 -11v-3l-6 -34q-2 -11 -7 -16t-17 -7q-91 -17 -175 -17q-67 0 -109.5 19t-69.5 65q-72 -84 -190 -84q-89 0 -136.5 51.5t-47.5 135.5q0 25 5 57l13 76
q41 244 265 244q60 0 96 -21t64 -65q70 86 193 86q89 0 137 -52.5t48 -135.5zM824 374q0 108 -108 108q-70 0 -110 -46.5t-55 -121.5h266l1 5q6 30 6 55zM470 364q0 116 -111 116q-68 0 -109.5 -44.5t-54.5 -122.5l-13 -76q-5 -26 -5 -57q0 -110 109 -110q69 0 110.5 44
t55.5 123l13 76q5 30 5 51z" />
    <glyph glyph-name="Racute" unicode="&#x154;" horiz-adv-x="625" 
d="M655 572q0 -18 -3 -37l-1 -7q-12 -85 -63 -136t-130 -66l130 -307q2 -4 2 -9q0 -10 -11 -10h-69q-7 0 -9.5 0.5t-5 3.5t-5.5 9l-126 298h-31q-35 0 -110 3l-51 -294q-4 -20 -22 -20h-54q-17 0 -14 20l123 700q4 19 28 22q70 8 177 8q113 0 179 -44t66 -134zM565 568
q0 57 -39.5 78.5t-129.5 21.5q-87 0 -111 -3l-48 -274q50 -2 110 -2q194 0 214 139l1 7q3 18 3 33zM580 944q0 -4 -5 -9l-136 -126q-17 -15 -25 -15h-54q-8 0 -8 6q0 5 6 11l120 124q15 15 26 15h66q10 0 10 -6z" />
    <glyph glyph-name="racute" unicode="&#x155;" horiz-adv-x="342" 
d="M233 439l-73 -419q-4 -20 -24 -20h-49q-8 0 -12.5 6t-2.5 14l89 510q4 20 23 20h47q9 0 13 -6t2 -14l-4 -23q64 50 148 50h2q21 0 18 -18l-7 -42q-3 -17 -24 -17h-3q-78 0 -143 -41zM446 773q0 -4 -5 -9l-136 -126q-17 -15 -25 -15h-54q-8 0 -8 6q0 5 6 11l120 124
q15 15 26 15h66q10 0 10 -6z" />
    <glyph glyph-name="Rcommaaccent" unicode="&#x156;" horiz-adv-x="625" 
d="M655 572q0 -18 -3 -37l-1 -7q-12 -85 -63 -136t-130 -66l130 -307q2 -4 2 -9q0 -10 -11 -10h-69q-7 0 -9.5 0.5t-5 3.5t-5.5 9l-126 298h-31q-35 0 -110 3l-51 -294q-4 -20 -22 -20h-54q-17 0 -14 20l123 700q4 19 28 22q70 8 177 8q113 0 179 -44t66 -134zM565 568
q0 57 -39.5 78.5t-129.5 21.5q-87 0 -111 -3l-48 -274q50 -2 110 -2q194 0 214 139l1 7q3 18 3 33zM288 -49h69q11 0 9 -11l-2 -8l-74 -109q-5 -8 -7.5 -11t-7.5 -5.5t-12 -2.5h-41q-9 0 -8 8q0 1 1 3.5t2 4.5l48 112q7 19 23 19z" />
    <glyph glyph-name="rcommaaccent" unicode="&#x157;" horiz-adv-x="342" 
d="M233 439l-73 -419q-4 -20 -24 -20h-49q-8 0 -12.5 6t-2.5 14l89 510q4 20 23 20h47q9 0 13 -6t2 -14l-4 -23q64 50 148 50h2q21 0 18 -18l-7 -42q-3 -17 -24 -17h-3q-78 0 -143 -41zM146 -49h69q11 0 9 -11l-2 -8l-74 -109q-5 -8 -7.5 -11t-7.5 -5.5t-12 -2.5h-41
q-9 0 -8 8q0 1 1 3.5t2 4.5l48 112q7 19 23 19z" />
    <glyph glyph-name="Rcaron" unicode="&#x158;" horiz-adv-x="625" 
d="M655 572q0 -18 -3 -37l-1 -7q-12 -85 -63 -136t-130 -66l130 -307q2 -4 2 -9q0 -10 -11 -10h-69q-7 0 -9.5 0.5t-5 3.5t-5.5 9l-126 298h-31q-35 0 -110 3l-51 -294q-4 -20 -22 -20h-54q-17 0 -14 20l123 700q4 19 28 22q70 8 177 8q113 0 179 -44t66 -134zM565 568
q0 57 -39.5 78.5t-129.5 21.5q-87 0 -111 -3l-48 -274q50 -2 110 -2q194 0 214 139l1 7q3 18 3 33zM623 944q0 -5 -6 -11l-119 -124q-15 -15 -27 -15h-85q-12 0 -22 15l-76 124q-2 3 -2 8q0 9 10 9h47q10 0 21 -16l66 -96l99 96q16 16 25 16h61q8 0 8 -6z" />
    <glyph glyph-name="rcaron" unicode="&#x159;" horiz-adv-x="342" 
d="M233 439l-73 -419q-4 -20 -24 -20h-49q-8 0 -12.5 6t-2.5 14l89 510q4 20 23 20h47q9 0 13 -6t2 -14l-4 -23q64 50 148 50h2q21 0 18 -18l-7 -42q-3 -17 -24 -17h-3q-78 0 -143 -41zM502 773q0 -5 -6 -11l-119 -124q-15 -15 -27 -15h-85q-12 0 -22 15l-76 124q-2 3 -2 8
q0 9 10 9h47q10 0 21 -16l66 -96l99 96q16 16 25 16h61q8 0 8 -6z" />
    <glyph glyph-name="Sacute" unicode="&#x15a;" horiz-adv-x="550" 
d="M406 750q113 0 187 -12q10 -2 12.5 -5t1.5 -12l-7 -43q-2 -10 -6 -13.5t-16 -2.5q-88 6 -172 6q-34 0 -60.5 -4t-52 -14t-39.5 -31t-14 -53q0 -35 18.5 -58.5t70.5 -57.5l82 -55q69 -46 97.5 -89.5t28.5 -98.5q0 -103 -77.5 -158.5t-201.5 -55.5q-84 0 -170 14
q-18 3 -16 18l7 40q2 11 6.5 14t16.5 2q67 -6 164 -6q175 0 175 132q0 34 -20 58t-76 62l-87 59q-109 74 -109 175q0 98 72.5 143.5t184.5 45.5zM572 944q0 -4 -5 -9l-136 -126q-17 -15 -25 -15h-54q-8 0 -8 6q0 5 6 11l120 124q15 15 26 15h66q10 0 10 -6z" />
    <glyph glyph-name="sacute" unicode="&#x15b;" horiz-adv-x="466" 
d="M329 557q85 0 147 -13q11 -2 14 -5.5t1 -14.5l-5 -33q-3 -20 -23 -17q-68 8 -147 8q-105 0 -105 -71q0 -31 54 -66l89 -59q51 -34 70 -63.5t19 -70.5q0 -82 -61.5 -120.5t-153.5 -38.5q-96 0 -156 15q-20 4 -17 20l6 35q2 10 7.5 13t17.5 2q86 -11 155 -11q49 0 81 20
t32 65q0 18 -12.5 33.5t-45.5 37.5l-90 59q-84 55 -84 130q0 40 18 69.5t48.5 45t65.5 23t75 7.5zM481 773q0 -4 -5 -9l-136 -126q-16 -15 -25 -15h-54q-8 0 -8 6q0 5 6 11l120 124q15 15 26 15h66q10 0 10 -6z" />
    <glyph glyph-name="Scircumflex" unicode="&#x15c;" horiz-adv-x="550" 
d="M406 750q113 0 187 -12q10 -2 12.5 -5t1.5 -12l-7 -43q-2 -10 -6 -13.5t-16 -2.5q-88 6 -172 6q-34 0 -60.5 -4t-52 -14t-39.5 -31t-14 -53q0 -35 18.5 -58.5t70.5 -57.5l82 -55q69 -46 97.5 -89.5t28.5 -98.5q0 -103 -77.5 -158.5t-201.5 -55.5q-84 0 -170 14
q-18 3 -16 18l7 40q2 11 6.5 14t16.5 2q67 -6 164 -6q175 0 175 132q0 34 -20 58t-76 62l-87 59q-109 74 -109 175q0 98 72.5 143.5t184.5 45.5zM571 801q0 -9 -10 -9h-49q-10 0 -21 15l-64 97l-101 -97q-15 -15 -25 -15h-55q-8 0 -8 6q0 5 6 11l118 124q15 15 26 15h85
q13 0 23 -15l73 -124q2 -3 2 -8z" />
    <glyph glyph-name="scircumflex" unicode="&#x15d;" horiz-adv-x="466" 
d="M329 557q85 0 147 -13q11 -2 14 -5.5t1 -14.5l-5 -33q-3 -20 -23 -17q-68 8 -147 8q-105 0 -105 -71q0 -31 54 -66l89 -59q51 -34 70 -63.5t19 -70.5q0 -82 -61.5 -120.5t-153.5 -38.5q-96 0 -156 15q-20 4 -17 20l6 35q2 10 7.5 13t17.5 2q86 -11 155 -11q49 0 81 20
t32 65q0 18 -12.5 33.5t-45.5 37.5l-90 59q-84 55 -84 130q0 40 18 69.5t48.5 45t65.5 23t75 7.5zM493 632q0 -9 -10 -9h-49q-10 0 -21 15l-64 97l-101 -97q-15 -15 -25 -15h-55q-8 0 -8 6q0 5 6 11l118 124q15 15 26 15h85q13 0 23 -15l73 -124q2 -3 2 -8z" />
    <glyph glyph-name="uni015E" unicode="&#x15e;" horiz-adv-x="550" 
d="M406 750q113 0 187 -12q10 -2 12.5 -5t1.5 -12l-7 -43q-2 -10 -6 -13.5t-16 -2.5q-88 6 -172 6q-34 0 -60.5 -4t-52 -14t-39.5 -31t-14 -53q0 -35 18.5 -58.5t70.5 -57.5l82 -55q69 -46 97.5 -89.5t28.5 -98.5q0 -103 -77.5 -158.5t-201.5 -55.5q-84 0 -170 14
q-18 3 -16 18l7 40q2 11 6.5 14t16.5 2q67 -6 164 -6q175 0 175 132q0 34 -20 58t-76 62l-87 59q-109 74 -109 175q0 98 72.5 143.5t184.5 45.5zM325 -38q0 -4 -5 -9l-136 -126q-16 -15 -25 -15h-54q-8 0 -8 6q0 5 6 11l119 124q15 15 27 15h66q10 0 10 -6z" />
    <glyph glyph-name="uni015F" unicode="&#x15f;" horiz-adv-x="466" 
d="M329 557q85 0 147 -13q11 -2 14 -5.5t1 -14.5l-5 -33q-3 -20 -23 -17q-68 8 -147 8q-105 0 -105 -71q0 -31 54 -66l89 -59q51 -34 70 -63.5t19 -70.5q0 -82 -61.5 -120.5t-153.5 -38.5q-96 0 -156 15q-20 4 -17 20l6 35q2 10 7.5 13t17.5 2q86 -11 155 -11q49 0 81 20
t32 65q0 18 -12.5 33.5t-45.5 37.5l-90 59q-84 55 -84 130q0 40 18 69.5t48.5 45t65.5 23t75 7.5zM269 -38q0 -4 -5 -9l-136 -126q-16 -15 -25 -15h-54q-8 0 -8 6q0 5 6 11l119 124q15 15 27 15h66q10 0 10 -6z" />
    <glyph glyph-name="Scaron" unicode="&#x160;" horiz-adv-x="550" 
d="M607 724v-3l-7 -43q-3 -16 -20 -16h-2q-88 6 -172 6q-35 0 -61 -4t-51.5 -15t-39.5 -35t-14 -60q0 -26 19 -48t70 -56l82 -55q68 -46 97 -88t29 -93q0 -107 -77 -164t-202 -57q-84 0 -170 14q-17 3 -17 13l1 2v3l7 40q3 16 20 16h3q67 -6 164 -6q175 0 175 139
q0 29 -20.5 52t-75.5 61l-87 59q-109 74 -109 163q0 72 38.5 118.5t93.5 64.5t125 18q113 0 187 -12q14 -2 14 -14zM622 944q0 -5 -6 -11l-119 -124q-15 -15 -27 -15h-85q-12 0 -22 15l-76 124q-2 3 -2 8q0 9 10 9h47q10 0 21 -16l66 -96l99 96q16 16 25 16h61q8 0 8 -6z
" />
    <glyph glyph-name="scaron" unicode="&#x161;" horiz-adv-x="466" 
d="M491 528v-4l-5 -33q-3 -17 -20 -17h-3q-68 8 -147 8q-105 0 -105 -71q0 -31 54 -66l89 -59q50 -33 69.5 -62t19.5 -63q0 -88 -61 -128t-154 -40q-96 0 -156 15q-17 4 -17 17v3l6 35q3 15 19 15h6q86 -11 155 -11q49 0 81 20t32 65q0 18 -12.5 33.5t-45.5 37.5l-90 59
q-84 55 -84 121q0 82 59.5 118t147.5 36q85 0 147 -13q15 -3 15 -16zM532 773q0 -5 -6 -11l-119 -124q-15 -15 -27 -15h-85q-12 0 -22 15l-76 124q-2 3 -2 8q0 9 10 9h47q10 0 21 -16l66 -96l99 96q16 16 25 16h61q8 0 8 -6z" />
    <glyph glyph-name="Tcommaaccent" unicode="&#x162;" horiz-adv-x="590" 
d="M458 665l-113 -645q-4 -20 -22 -20h-55q-8 0 -12 6t-2 14l113 645h-195q-9 0 -13.5 3.5t-3.5 12.5l8 44q4 18 23 18h481q20 0 16 -18l-8 -44q-3 -16 -22 -16h-195zM256 -49h69q11 0 9 -11l-2 -8l-74 -109q-5 -8 -7.5 -11t-7.5 -5.5t-12 -2.5h-41q-9 0 -8 8q0 1 1 3.5
t2 4.5l48 112q7 19 23 19z" />
    <glyph glyph-name="tcommaaccent" unicode="&#x163;" horiz-adv-x="375" 
d="M316 550h108q19 0 16 -20l-6 -34q-3 -20 -23 -20h-108l-62 -351q-3 -18 -3 -29q0 -20 10 -26t36 -6h61q17 0 14 -14l-6 -35q-3 -14 -21 -17q-33 -5 -63 -5q-120 0 -120 95q0 18 4 39l62 349l-95 11q-19 2 -16 18l5 27q4 18 22 18h97l16 98q3 17 22 20l53 8q10 1 13.5 -4
t1.5 -13zM163 -49h69q11 0 9 -11l-2 -8l-74 -109q-5 -8 -7.5 -11t-7.5 -5.5t-12 -2.5h-41q-9 0 -8 8q0 1 1 3.5t2 4.5l48 112q7 19 23 19z" />
    <glyph glyph-name="Tcaron" unicode="&#x164;" horiz-adv-x="590" 
d="M458 665l-113 -645q-4 -20 -22 -20h-55q-8 0 -12 6t-2 14l113 645h-195q-9 0 -13.5 3.5t-3.5 12.5l8 44q4 18 23 18h481q20 0 16 -18l-8 -44q-3 -16 -22 -16h-195zM628 944q0 -5 -6 -11l-119 -124q-15 -15 -27 -15h-85q-12 0 -22 15l-76 124q-2 3 -2 8q0 9 10 9h47
q10 0 21 -16l66 -96l99 96q16 16 25 16h61q8 0 8 -6z" />
    <glyph glyph-name="tcaron" unicode="&#x165;" horiz-adv-x="507" 
d="M440 534v-4l-6 -34q-4 -20 -23 -20h-108l-62 -351q-3 -18 -3 -29q0 -20 10 -26t36 -6h61q14 0 14 -10v-4l-6 -35q-3 -14 -21 -17q-33 -5 -63 -5q-120 0 -120 95q0 18 4 39l62 349l-95 11q-16 2 -16 15v3l5 27q4 18 22 18h97l16 98q3 17 22 20l53 8h3q12 0 12 -14v-3
l-18 -109h108q16 0 16 -16zM636 741q0 -2 -2 -8l-75 -189q-7 -19 -19 -19h-41q-12 0 -12 12q0 5 1 7l57 189q6 19 20 19h58q13 0 13 -11z" />
    <glyph glyph-name="Tbar" unicode="&#x166;" horiz-adv-x="590" 
d="M618 471h-194l-79 -451q-4 -20 -22 -20h-55q-14 0 -14 16v4l79 451h-196q-17 0 -17 13v3l8 44q4 18 23 18h195l21 116h-195q-17 0 -17 13v3l8 44q4 18 23 18h481q16 0 16 -15v-3l-8 -44q-3 -16 -22 -16h-195l-21 -116h195q16 0 16 -15v-3l-8 -44q-3 -16 -22 -16z" />
    <glyph glyph-name="tbar" unicode="&#x167;" horiz-adv-x="375" 
d="M440 534v-4l-6 -34q-4 -20 -23 -20h-108l-19 -104h109q16 0 16 -16v-4l-6 -34q-4 -20 -23 -20h-109l-30 -173q-3 -18 -3 -29q0 -20 10 -26t36 -6h61q14 0 14 -10v-4l-6 -35q-3 -14 -21 -17q-33 -5 -63 -5q-120 0 -120 95q0 18 4 39l30 171l-94 11q-16 2 -16 15v3l5 27
q4 18 22 18h96l19 104l-95 11q-16 2 -16 15v3l5 27q4 18 22 18h97l16 98q3 17 22 20l53 8h3q12 0 12 -14v-3l-18 -109h108q16 0 16 -16z" />
    <glyph glyph-name="Utilde" unicode="&#x168;" horiz-adv-x="662" 
d="M645 743h54q20 0 16 -19l-80 -454q-26 -146 -100.5 -211.5t-204.5 -65.5q-101 0 -157.5 52t-56.5 152q0 37 7 73l80 454q4 19 22 19h54q20 0 16 -19l-80 -454q-8 -43 -8 -72q0 -64 32.5 -95.5t104.5 -31.5q90 0 135.5 49t63.5 150l80 454q4 19 22 19zM672 911v-3l-4 -23
q-9 -54 -32.5 -79.5t-69.5 -25.5q-49 0 -76 26l-47 44q-23 22 -37 22q-34 0 -40 -46l-3 -21q-2 -17 -17 -17h-34q-13 0 -13 14v3l3 21q15 109 104 109q39 0 74 -31l54 -49q16 -14 32 -14t25 9.5t13 34.5l4 23q4 17 17 17h34q13 0 13 -14z" />
    <glyph glyph-name="utilde" unicode="&#x169;" horiz-adv-x="557" 
d="M518 550h49q19 0 15 -20l-89 -510q-4 -20 -23 -20h-47q-9 0 -13 6t-2 14l3 18q-87 -45 -166 -45q-67 0 -106.5 40.5t-39.5 117.5q0 28 6 61l56 318q4 20 24 20h48q19 0 16 -20l-58 -329q-6 -33 -6 -57q0 -41 21.5 -57.5t71.5 -16.5q62 0 142 37l74 423q4 20 24 20z
M583 745v-3l-4 -23q-9 -54 -32.5 -79.5t-69.5 -25.5q-49 0 -76 26l-47 44q-23 22 -37 22q-34 0 -40 -46l-3 -21q-2 -17 -17 -17h-34q-13 0 -13 14v3l3 21q15 109 104 109q39 0 74 -31l54 -49q16 -14 32 -14t25 9.5t13 34.5l4 23q4 17 17 17h34q13 0 13 -14z" />
    <glyph glyph-name="Umacron" unicode="&#x16a;" horiz-adv-x="662" 
d="M645 743h54q20 0 16 -19l-80 -454q-26 -146 -100.5 -211.5t-204.5 -65.5q-101 0 -157.5 52t-56.5 152q0 37 7 73l80 454q4 19 22 19h54q20 0 16 -19l-80 -454q-8 -43 -8 -72q0 -64 32.5 -95.5t104.5 -31.5q90 0 135.5 49t63.5 150l80 454q4 19 22 19zM652 874v-3l-6 -34
q-3 -17 -23 -17h-288q-17 0 -17 14v3l6 34q3 17 23 17h288q17 0 17 -14z" />
    <glyph glyph-name="umacron" unicode="&#x16b;" horiz-adv-x="557" 
d="M518 550h49q19 0 15 -20l-89 -510q-4 -20 -23 -20h-47q-9 0 -13 6t-2 14l3 18q-87 -45 -166 -45q-67 0 -106.5 40.5t-39.5 117.5q0 28 6 61l56 318q4 20 24 20h48q19 0 16 -20l-58 -329q-6 -33 -6 -57q0 -41 21.5 -57.5t71.5 -16.5q62 0 142 37l74 423q4 20 24 20z
M566 703v-3l-6 -34q-3 -17 -23 -17h-288q-17 0 -17 14v3l6 34q3 17 23 17h288q17 0 17 -14z" />
    <glyph glyph-name="Ubreve" unicode="&#x16c;" horiz-adv-x="662" 
d="M645 743h54q20 0 16 -19l-80 -454q-26 -146 -100.5 -211.5t-204.5 -65.5q-101 0 -157.5 52t-56.5 152q0 37 7 73l80 454q4 19 22 19h54q20 0 16 -19l-80 -454q-8 -43 -8 -72q0 -64 32.5 -95.5t104.5 -31.5q90 0 135.5 49t63.5 150l80 454q4 19 22 19zM656 939q0 -5 -1 -8
q-14 -68 -64 -104.5t-113 -36.5t-106 36t-43 105q0 17 14 17h35q13 0 13 -16q0 -80 87 -80q91 0 113 80q4 16 17 16h39q9 0 9 -9z" />
    <glyph glyph-name="ubreve" unicode="&#x16d;" horiz-adv-x="557" 
d="M518 550h49q19 0 15 -20l-89 -510q-4 -20 -23 -20h-47q-9 0 -13 6t-2 14l3 18q-87 -45 -166 -45q-67 0 -106.5 40.5t-39.5 117.5q0 28 6 61l56 318q4 20 24 20h48q19 0 16 -20l-58 -329q-6 -33 -6 -57q0 -41 21.5 -57.5t71.5 -16.5q62 0 142 37l74 423q4 20 24 20z
M573 770q0 -5 -1 -8q-14 -68 -64 -104.5t-113 -36.5t-106 36t-43 105q0 17 14 17h35q13 0 13 -16q0 -80 87 -80q91 0 113 80q4 16 17 16h39q9 0 9 -9z" />
    <glyph glyph-name="Uring" unicode="&#x16e;" horiz-adv-x="662" 
d="M645 743h54q20 0 16 -19l-80 -454q-26 -146 -100.5 -211.5t-204.5 -65.5q-101 0 -157.5 52t-56.5 152q0 37 7 73l80 454q4 19 22 19h54q20 0 16 -19l-80 -454q-8 -43 -8 -72q0 -64 32.5 -95.5t104.5 -31.5q90 0 135.5 49t63.5 150l80 454q4 19 22 19zM569 874
q0 -42 -29.5 -71.5t-71.5 -29.5t-72 29.5t-30 71.5t30 72t72 30t71.5 -30t29.5 -72zM521 875q0 22 -15.5 37t-37.5 15t-37 -15t-15 -37t15 -37.5t37 -15.5t37.5 15.5t15.5 37.5z" />
    <glyph glyph-name="uring" unicode="&#x16f;" horiz-adv-x="557" 
d="M518 550h49q19 0 15 -20l-89 -510q-4 -20 -23 -20h-47q-9 0 -13 6t-2 14l3 18q-87 -45 -166 -45q-67 0 -106.5 40.5t-39.5 117.5q0 28 6 61l56 318q4 20 24 20h48q19 0 16 -20l-58 -329q-6 -33 -6 -57q0 -41 21.5 -57.5t71.5 -16.5q62 0 142 37l74 423q4 20 24 20z
M486 703q0 -42 -29.5 -71.5t-71.5 -29.5t-72 29.5t-30 71.5t30 72t72 30t71.5 -30t29.5 -72zM438 704q0 22 -15.5 37t-37.5 15t-37 -15t-15 -37t15 -37.5t37 -15.5t37.5 15.5t15.5 37.5z" />
    <glyph glyph-name="Uhungarumlaut" unicode="&#x170;" horiz-adv-x="662" 
d="M645 743h54q20 0 16 -19l-80 -454q-26 -146 -100.5 -211.5t-204.5 -65.5q-101 0 -157.5 52t-56.5 152q0 37 7 73l80 454q4 19 22 19h54q20 0 16 -19l-80 -454q-8 -43 -8 -72q0 -64 32.5 -95.5t104.5 -31.5q90 0 135.5 49t63.5 150l80 454q4 19 22 19zM727 944q0 -4 -5 -9
l-135 -126q-17 -15 -25 -15h-54q-8 0 -8 6q0 5 6 11l119 124q15 15 27 15h65q10 0 10 -6zM552 944q0 -4 -5 -9l-135 -126q-16 -15 -25 -15h-54q-8 0 -8 6q0 5 6 11l119 124q15 15 27 15h65q10 0 10 -6z" />
    <glyph glyph-name="uhungarumlaut" unicode="&#x171;" horiz-adv-x="557" 
d="M518 550h49q19 0 15 -20l-89 -510q-4 -20 -23 -20h-47q-9 0 -13 6t-2 14l3 18q-87 -45 -166 -45q-67 0 -106.5 40.5t-39.5 117.5q0 28 6 61l56 318q4 20 24 20h48q19 0 16 -20l-58 -329q-6 -33 -6 -57q0 -41 21.5 -57.5t71.5 -16.5q62 0 142 37l74 423q4 20 24 20z
M644 773q0 -4 -5 -9l-135 -126q-16 -15 -25 -15h-54q-8 0 -8 6q0 5 6 11l119 124q15 15 27 15h65q10 0 10 -6zM469 773q0 -4 -5 -9l-135 -126q-17 -15 -25 -15h-54q-8 0 -8 6q0 5 6 11l119 124q15 15 27 15h65q10 0 10 -6z" />
    <glyph glyph-name="Uogonek" unicode="&#x172;" horiz-adv-x="662" 
d="M715 727l-80 -457q-19 -104 -52.5 -155.5t-99.5 -91.5l-108 -65q-4 -2 -13.5 -8t-13 -8t-10.5 -7t-10 -7.5t-7.5 -7.5t-6 -9t-3 -10t-1.5 -12q0 -31 62 -31q14 0 31 2.5t28.5 5t13.5 2.5q5 0 4 -8l-7 -39q-1 -8 -13 -11q-30 -10 -78 -10q-116 0 -116 76q0 68 82 111l11 6
q-100 1 -156 52.5t-56 151.5q0 37 7 73l80 454q4 19 22 19h54q16 0 16 -16v-3l-80 -454q-8 -43 -8 -72q0 -64 32.5 -95.5t104.5 -31.5q90 0 135.5 49t63.5 150l80 454q4 19 22 19h54q16 0 16 -16z" />
    <glyph glyph-name="uogonek" unicode="&#x173;" horiz-adv-x="557" 
d="M408 19l3 19q-87 -45 -166 -45q-67 0 -106.5 40.5t-39.5 117.5q0 28 6 61l56 318q4 20 24 20h48q16 0 16 -16v-4l-58 -329q-6 -33 -6 -57q0 -41 21.5 -57.5t71.5 -16.5q62 0 142 37l74 423q4 20 24 20h49q15 0 15 -16v-4l-86 -493q-3 -20 -9 -27.5t-20 -15.5l-60 -36
q-41 -25 -53.5 -37.5t-12.5 -31.5q0 -17 14.5 -24t48.5 -7q14 0 31 2.5t28.5 5t13.5 2.5q5 0 4 -8l-7 -39q-1 -8 -13 -11q-30 -10 -78 -10q-116 0 -116 76q0 41 21 65t61 46z" />
    <glyph glyph-name="Wcircumflex" unicode="&#x174;" horiz-adv-x="825" 
d="M846 743h59q20 0 13 -20l-230 -676q-17 -51 -71 -51h-43q-21 0 -33.5 13.5t-14.5 36.5l-33 370q-1 9 -5 9q-5 0 -9 -9l-164 -370q-22 -50 -66 -50h-42q-26 0 -39.5 10.5t-13.5 39.5v1l8 676q0 20 21 20h57q14 0 14 -17l-15 -637q0 -15 3 -15q2 0 9 15l163 370
q18 40 54 40h64q37 0 40 -40l33 -370q2 -15 4 -15q3 0 8 15l209 637q6 17 20 17zM704 802q0 -9 -10 -9h-49q-11 0 -21 15l-64 97l-101 -97q-15 -15 -25 -15h-55q-8 0 -8 6q0 5 6 11l118 124q15 15 26 15h85q13 0 23 -15l73 -124q2 -3 2 -8z" />
    <glyph glyph-name="wcircumflex" unicode="&#x175;" horiz-adv-x="786" 
d="M770 550h56q24 0 15 -24l-179 -464q-26 -69 -96 -69q-29 0 -47 19.5t-21 55.5l-29 337q-1 7 -4 7t-6 -7l-147 -337q-17 -39 -38.5 -57t-55.5 -18q-69 0 -72 69l-15 465q0 8 7 15.5t16 7.5h52q14 0 14 -16l3 -453q0 -12 6 -12q5 0 10 12l165 381q14 30 46 30h56
q31 0 34 -30l31 -381q1 -12 6 -12q6 0 10 12l163 453q6 16 20 16zM656 632q0 -9 -10 -9h-49q-11 0 -21 15l-64 97l-101 -97q-15 -15 -25 -15h-55q-8 0 -8 6q0 5 6 11l118 124q15 15 26 15h85q13 0 23 -15l73 -124q2 -3 2 -8z" />
    <glyph glyph-name="Ycircumflex" unicode="&#x176;" horiz-adv-x="583" 
d="M677 731q0 -5 -5 -13l-217 -348q-33 -53 -65 -66l-50 -284q-4 -20 -22 -20h-55q-17 0 -14 20l50 284q-28 12 -43 66l-92 348q-7 25 18 25h58q12 0 16 -14l80 -324q7 -26 19 -26q11 0 27 26l197 324q8 14 25 14h58q15 0 15 -12zM592 801q0 -9 -10 -9h-49q-11 0 -21 15
l-64 97l-101 -97q-15 -15 -25 -15h-55q-8 0 -8 6q0 5 6 11l118 124q15 15 26 15h85q13 0 23 -15l73 -124q2 -3 2 -8z" />
    <glyph glyph-name="ycircumflex" unicode="&#x177;" horiz-adv-x="534" 
d="M592 537q0 -5 -3 -11l-267 -576q-39 -84 -82 -116t-127 -32q-46 0 -82 9q-7 2 -10.5 3.5t-6.5 4.5t-2 8l7 37q2 11 7 14t18 2q63 -6 88 -6q44 0 68.5 17t45.5 68l17 41h-11q-27 0 -43.5 16t-22.5 62l-51 448q-1 15 4 19.5t17 4.5h52q12 0 14 -16l42 -434q2 -22 15 -22h16
l202 457q6 15 22 15h59q14 0 14 -13zM531 632q0 -9 -10 -9h-49q-11 0 -21 15l-64 97l-101 -97q-15 -15 -25 -15h-55q-8 0 -8 6q0 5 6 11l118 124q15 15 26 15h85q13 0 23 -15l73 -124q2 -3 2 -8z" />
    <glyph glyph-name="Ydieresis" unicode="&#x178;" horiz-adv-x="583" 
d="M677 731q0 -5 -5 -13l-217 -348q-33 -53 -65 -66l-50 -284q-2 -8 -8.5 -14t-13.5 -6h-55q-14 0 -14 16v4l50 284q-28 12 -43 66l-92 348q-1 3 -1 7q0 18 19 18h58q12 0 16 -14l80 -324q7 -26 19 -26q11 0 27 26l197 324q8 14 19 14h64q15 0 15 -12zM584 905v-3l-15 -81
q-1 -8 -8 -13.5t-15 -5.5h-39q-17 0 -17 16v3l15 81q2 8 9 14t14 6h39q7 0 12 -5t5 -12zM409 905v-3l-15 -81q-1 -8 -8 -13.5t-15 -5.5h-39q-17 0 -17 16v3l15 81q2 8 9 14t14 6h39q7 0 12 -5t5 -12z" />
    <glyph glyph-name="Zacute" unicode="&#x179;" horiz-adv-x="597" 
d="M645 674q0 -39 -39 -85l-429 -493q-4 -4 -4 -8q0 -6 8 -6h357q20 0 17 -17l-8 -47q-1 -6 -2.5 -9.5t-6.5 -6t-14 -2.5h-343q-100 0 -100 76q0 41 29 74l425 492q8 9 8 14q0 6 -9 6h-327q-19 0 -17 17l8 47q3 17 23 17h330q51 0 72.5 -17.5t21.5 -51.5zM594 944
q0 -4 -5 -9l-136 -126q-17 -15 -25 -15h-54q-8 0 -8 6q0 5 6 11l120 124q15 15 26 15h66q10 0 10 -6z" />
    <glyph glyph-name="zacute" unicode="&#x17a;" horiz-adv-x="466" 
d="M493 481q0 -35 -27 -63l-313 -325q-7 -7 -7 -12q0 -7 10 -7h255q20 0 16 -20l-6 -34q-2 -12 -6.5 -16t-16.5 -4h-253q-43 0 -65 20t-22 50q0 36 23 59l319 331q6 6 6 11t-10 5h-246q-19 0 -16 20l6 34q4 20 23 20h250q40 0 60 -19.5t20 -49.5zM497 773q0 -4 -5 -9
l-136 -126q-16 -15 -25 -15h-54q-8 0 -8 6q0 5 6 11l120 124q15 15 26 15h66q10 0 10 -6z" />
    <glyph glyph-name="Zdotaccent" unicode="&#x17b;" horiz-adv-x="597" 
d="M645 674q0 -39 -39 -85l-429 -493q-4 -4 -4 -8q0 -6 8 -6h357q20 0 17 -17l-8 -47q-1 -6 -2.5 -9.5t-6.5 -6t-14 -2.5h-343q-100 0 -100 76q0 41 29 74l425 492q8 9 8 14q0 6 -9 6h-327q-19 0 -17 17l8 47q3 17 23 17h330q51 0 72.5 -17.5t21.5 -51.5zM495 916v-3
l-15 -84q-1 -8 -8 -14t-15 -6h-48q-16 0 -16 17v3l15 84q1 7 8 13t15 6h48q16 0 16 -16z" />
    <glyph glyph-name="zdotaccent" unicode="&#x17c;" horiz-adv-x="466" 
d="M493 481q0 -35 -27 -63l-313 -325q-7 -7 -7 -12q0 -7 10 -7h255q20 0 16 -20l-6 -34q-2 -12 -6.5 -16t-16.5 -4h-253q-43 0 -65 20t-22 50q0 36 23 59l319 331q6 6 6 11t-10 5h-246q-19 0 -16 20l6 34q4 20 23 20h250q40 0 60 -19.5t20 -49.5zM390 745v-3l-15 -84
q-1 -8 -8 -14t-15 -6h-48q-16 0 -16 17v3l15 84q1 7 8 13t15 6h48q16 0 16 -16z" />
    <glyph glyph-name="Zcaron" unicode="&#x17d;" horiz-adv-x="597" 
d="M645 669q0 -34 -27 -66l-441 -507q-4 -4 -4 -8q0 -6 8 -6h357q17 0 17 -14v-3l-8 -47q-4 -18 -23 -18h-358q-39 0 -62 22t-23 54q0 41 29 74l429 497q4 4 4 9q0 6 -9 6h-327q-17 0 -17 14v3l8 47q3 17 23 17h337q41 0 64 -21t23 -53zM636 944q0 -5 -6 -11l-119 -124
q-15 -15 -27 -15h-85q-12 0 -22 15l-76 124q-2 3 -2 8q0 9 10 9h47q10 0 21 -16l66 -96l99 96q16 16 25 16h61q8 0 8 -6z" />
    <glyph glyph-name="zcaron" unicode="&#x17e;" horiz-adv-x="466" 
d="M493 481q0 -35 -27 -63l-313 -325q-7 -7 -7 -12q0 -7 10 -7h255q16 0 16 -16v-4l-6 -34q-4 -20 -23 -20h-253q-43 0 -65 20t-22 50q0 36 23 59l319 331q6 6 6 10q0 6 -10 6h-246q-16 0 -16 17v3l6 34q4 20 23 20h250q40 0 60 -19.5t20 -49.5zM549 773q0 -5 -6 -11
l-119 -124q-15 -15 -27 -15h-85q-12 0 -22 15l-76 124q-2 3 -2 8q0 9 10 9h47q10 0 21 -16l66 -96l99 96q16 16 25 16h61q8 0 8 -6z" />
    <glyph glyph-name="florin" unicode="&#x192;" 
d="M614 743v-1q-1 -2 -1 -3l-7 -32q-3 -15 -25 -15h-55q-36 0 -53.5 -14.5t-26.5 -53.5l-45 -196h143q16 0 16 -14v-4l-8 -37q-4 -18 -24 -18h-143l-81 -357q-32 -137 -172 -137q-32 0 -69 5q-16 3 -16 12q0 1 0.5 2.5t0.5 2.5l7 32q3 15 25 15h55q36 0 53.5 14.5t26.5 53.5
l81 357h-128q-16 0 -16 14v4l8 37q4 18 24 18h128l45 196q32 137 172 137q31 0 68 -5q17 -3 17 -13z" />
    <glyph glyph-name="AEacute" unicode="&#x1fc;" horiz-adv-x="859" 
d="M933 732v-3l-9 -53q-2 -12 -13 -12h-286l-43 -239h277q16 0 16 -16v-4l-6 -38q-4 -20 -24 -20h-277l-29 -168q-5 -30 -5 -45q0 -34 23 -46.5t86 -12.5h163q9 0 9 -9v-3l-9 -49q-2 -12 -12 -14q-68 -7 -166 -7q-185 0 -185 140q0 19 5 46l11 66h-239l-104 -230
q-6 -15 -21 -15h-59q-14 0 -14 13q0 7 2 10l299 645q20 44 47.5 59.5t68.5 15.5h487q7 0 7 -11zM534 664h-111q-15 0 -23 -17l-147 -323h220zM800 943q0 -4 -5 -9l-136 -126q-17 -15 -25 -15h-54q-8 0 -8 6q0 5 6 11l120 124q15 15 26 15h66q10 0 10 -6z" />
    <glyph glyph-name="aeacute" unicode="&#x1fd;" horiz-adv-x="853" 
d="M862 368q0 -55 -13 -99q-7 -22 -21 -22h-333l-6 -32q-5 -30 -5 -49q0 -57 30 -78t95 -21q79 0 173 14h2h3q14 0 14 -11v-2v-1l-6 -34q-2 -11 -7 -16t-17 -7q-91 -17 -180 -17q-108 0 -156 60q-37 -26 -91 -43t-107 -17q-67 0 -114.5 35t-47.5 104v11q0 10 1 15l1 9
q10 86 71 124t194 38h80l7 40q4 21 4 43q0 40 -20.5 55t-71.5 15q-72 0 -154 -8h-4q-17 0 -17 12v4l7 35q3 16 24 19q78 13 157 13q113 0 148 -71q36 39 78.5 55t102.5 16q88 0 133.5 -52.5t45.5 -136.5zM778 376q0 107 -108 107q-64 0 -106 -43t-57 -121l-1 -5h266
q6 28 6 62zM411 265h-75q-90 0 -127 -22t-43 -76l-1 -9q-1 -5 -1 -14v-10q0 -71 94 -71q76 0 123 31zM710 773q0 -4 -5 -9l-136 -126q-17 -15 -25 -15h-54q-8 0 -8 6q0 5 6 11l120 124q15 15 26 15h66q10 0 10 -6z" />
    <glyph glyph-name="Oslashacute" unicode="&#x1fe;" horiz-adv-x="661" 
d="M766 742q0 -6 -5 -11l-94 -105q19 -47 19 -106q0 -36 -8 -84l-23 -129q-55 -314 -325 -314q-110 0 -169 65l-50 -55q-9 -10 -20 -10h-53q-9 0 -9 9q0 6 4 10l92 103q-19 47 -19 108q0 36 8 84l23 129q56 314 326 314q110 0 169 -67l51 57q9 10 22 10h52q9 0 9 -8z
M571 615q-33 53 -122 53q-85 0 -142 -57t-78 -175l-23 -129q-7 -39 -7 -76q0 -11 2 -31zM594 519q0 16 -1 24l-370 -415q33 -53 121 -53q84 0 141 57.5t78 174.5l23 129q8 41 8 83zM654 943q0 -4 -5 -9l-136 -126q-17 -15 -25 -15h-54q-8 0 -8 6q0 5 6 11l120 124
q15 15 26 15h66q10 0 10 -6z" />
    <glyph glyph-name="oslashacute" unicode="&#x1ff;" horiz-adv-x="545" 
d="M630 577q0 -6 -7 -13l-86 -94q19 -38 19 -93q0 -29 -6 -64l-13 -76q-19 -113 -88.5 -178.5t-177.5 -65.5q-84 0 -132 42l-54 -60q-9 -10 -18 -10h-49q-7 0 -7 6q0 7 6 13l88 96q-19 38 -19 93q0 29 6 64l13 76q19 113 88 178.5t177 65.5q85 0 133 -42l52 58q9 10 18 10
h50q7 0 7 -6zM441 449q-28 31 -84 31q-135 0 -164 -167l-13 -76q-5 -33 -5 -55q0 -17 1 -24zM467 364q0 9 -2 27l-265 -290q28 -31 84 -31q136 0 165 167l13 76q5 30 5 51zM569 773q0 -4 -5 -9l-136 -126q-16 -15 -25 -15h-54q-8 0 -8 6q0 5 6 11l120 124q15 15 26 15h66
q10 0 10 -6z" />
    <glyph glyph-name="uni0218" unicode="&#x218;" horiz-adv-x="550" 
d="M406 750q113 0 187 -12q10 -2 12.5 -5t1.5 -12l-7 -43q-2 -10 -6 -13.5t-16 -2.5q-88 6 -172 6q-34 0 -60.5 -4t-52 -14t-39.5 -31t-14 -53q0 -35 18.5 -58.5t70.5 -57.5l82 -55q69 -46 97.5 -89.5t28.5 -98.5q0 -103 -77.5 -158.5t-201.5 -55.5q-84 0 -170 14
q-18 3 -16 18l7 40q2 11 6.5 14t16.5 2q67 -6 164 -6q175 0 175 132q0 34 -20 58t-76 62l-87 59q-109 74 -109 175q0 98 72.5 143.5t184.5 45.5zM251 -49h69q11 0 9 -11l-2 -8l-74 -109q-5 -8 -7.5 -11t-7.5 -5.5t-12 -2.5h-41q-9 0 -8 8q0 1 1 3.5t2 4.5l48 112q7 19 23 19
z" />
    <glyph glyph-name="uni0219" unicode="&#x219;" horiz-adv-x="466" 
d="M329 557q85 0 147 -13q11 -2 14 -5.5t1 -14.5l-5 -33q-3 -20 -23 -17q-68 8 -147 8q-105 0 -105 -71q0 -31 54 -66l89 -59q51 -34 70 -63.5t19 -70.5q0 -82 -61.5 -120.5t-153.5 -38.5q-96 0 -156 15q-20 4 -17 20l6 35q2 10 7.5 13t17.5 2q86 -11 155 -11q49 0 81 20
t32 65q0 18 -12.5 33.5t-45.5 37.5l-90 59q-84 55 -84 130q0 40 18 69.5t48.5 45t65.5 23t75 7.5zM209 -49h69q11 0 9 -11l-2 -8l-74 -109q-5 -8 -7.5 -11t-7.5 -5.5t-12 -2.5h-41q-9 0 -8 8q0 1 1 3.5t2 4.5l48 112q7 19 23 19z" />
    <glyph glyph-name="uni021A" unicode="&#x21a;" horiz-adv-x="590" 
d="M458 665l-113 -645q-4 -20 -22 -20h-55q-8 0 -12 6t-2 14l113 645h-195q-9 0 -13.5 3.5t-3.5 12.5l8 44q4 18 23 18h481q20 0 16 -18l-8 -44q-3 -16 -22 -16h-195zM256 -49h69q11 0 9 -11l-2 -8l-74 -109q-5 -8 -7.5 -11t-7.5 -5.5t-12 -2.5h-41q-9 0 -8 8q0 1 1 3.5
t2 4.5l48 112q7 19 23 19z" />
    <glyph glyph-name="uni021B" unicode="&#x21b;" horiz-adv-x="375" 
d="M316 550h108q19 0 16 -20l-6 -34q-3 -20 -23 -20h-108l-62 -351q-3 -18 -3 -29q0 -20 10 -26t36 -6h61q17 0 14 -14l-6 -35q-3 -14 -21 -17q-33 -5 -63 -5q-120 0 -120 95q0 18 4 39l62 349l-95 11q-19 2 -16 18l5 27q4 18 22 18h97l16 98q3 17 22 20l53 8q10 1 13.5 -4
t1.5 -13zM163 -49h69q11 0 9 -11l-2 -8l-74 -109q-5 -8 -7.5 -11t-7.5 -5.5t-12 -2.5h-41q-9 0 -8 8q0 1 1 3.5t2 4.5l48 112q7 19 23 19z" />
    <glyph glyph-name="circumflex" unicode="&#x2c6;" horiz-adv-x="373" 
d="M464 632q0 -9 -10 -9h-49q-11 0 -21 15l-64 97l-101 -97q-15 -15 -25 -15h-55q-8 0 -8 6q0 5 6 11l118 124q15 15 26 15h85q13 0 23 -15l73 -124q2 -3 2 -8z" />
    <glyph glyph-name="caron" unicode="&#x2c7;" horiz-adv-x="373" 
d="M491 773q0 -5 -6 -11l-119 -124q-15 -15 -27 -15h-85q-12 0 -22 15l-76 124q-2 3 -2 8q0 9 10 9h47q10 0 21 -16l66 -96l99 96q16 16 25 16h61q8 0 8 -6z" />
    <glyph glyph-name="uni02C9" unicode="&#x2c9;" horiz-adv-x="373" 
d="M351 692q0 -17 -20 -17h-288q-20 0 -20 17v34q0 17 20 17h288q20 0 20 -17v-34z" />
    <glyph glyph-name="breve" unicode="&#x2d8;" horiz-adv-x="373" 
d="M485 770q0 -5 -1 -8q-14 -68 -64 -104.5t-113 -36.5t-106 36t-43 105q0 17 14 17h35q13 0 13 -16q0 -80 87 -80q91 0 113 80q4 16 17 16h39q9 0 9 -9z" />
    <glyph glyph-name="dotaccent" unicode="&#x2d9;" horiz-adv-x="373" 
d="M361 745v-3l-15 -84q-1 -8 -8 -14t-15 -6h-48q-16 0 -16 17v3l15 84q1 7 8 13t15 6h48q16 0 16 -16z" />
    <glyph glyph-name="ring" unicode="&#x2da;" horiz-adv-x="373" 
d="M404 703q0 -42 -29.5 -71.5t-71.5 -29.5t-72 29.5t-30 71.5t30 72t72 30t71.5 -30t29.5 -72zM356 704q0 22 -15.5 37t-37.5 15t-37 -15t-15 -37t15 -37.5t37 -15.5t37.5 15.5t15.5 37.5z" />
    <glyph glyph-name="ogonek" unicode="&#x2db;" horiz-adv-x="366" 
d="M265 -179q-1 -8 -13 -11q-30 -10 -78 -10q-116 0 -116 76q0 41 21 65t61 46l73 40q16 10 27 10h52q6 0 8.5 -3.5t1 -8t-5.5 -7.5l-98 -60q-41 -25 -53.5 -37.5t-12.5 -31.5q0 -17 14.5 -24t48.5 -7q14 0 31 2.5t28.5 5t13.5 2.5q5 0 4 -8z" />
    <glyph glyph-name="tilde" unicode="&#x2dc;" horiz-adv-x="493" 
d="M552 757v-3l-4 -23q-9 -54 -32.5 -79.5t-69.5 -25.5q-49 0 -76 26l-47 44q-23 22 -37 22q-34 0 -40 -46l-3 -21q-2 -17 -17 -17h-34q-13 0 -13 14v3l3 21q15 109 104 109q39 0 74 -31l54 -49q16 -14 32 -14t25 9.5t13 34.5l4 23q4 17 17 17h34q13 0 13 -14z" />
    <glyph glyph-name="hungarumlaut" unicode="&#x2dd;" horiz-adv-x="373" 
d="M548 773q0 -4 -5 -9l-135 -126q-16 -15 -25 -15h-54q-8 0 -8 6q0 5 6 11l119 124q15 15 27 15h65q10 0 10 -6zM373 773q0 -4 -5 -9l-135 -126q-17 -15 -25 -15h-54q-8 0 -8 6q0 5 6 11l119 124q15 15 27 15h65q10 0 10 -6z" />
    <glyph glyph-name="uni03A9" unicode="&#x3a9;" horiz-adv-x="592" 
d="M559 21q-4 -21 -26 -21h-181q-21 0 -18 21l20 113q3 20 19 25q70 23 108.5 76t53.5 138l16 88q7 36 7 69q0 78 -36.5 111t-107.5 33q-173 0 -211 -213l-16 -88q-7 -44 -7 -70q0 -109 95 -144q8 -3 9.5 -7t-0.5 -18l-20 -113q-3 -21 -24 -21h-181q-24 0 -20 21l6 34
q4 20 27 20h121l6 37q-108 49 -108 194q0 34 6 67l16 88q53 294 304 294q114 0 172.5 -57.5t58.5 -163.5q0 -28 -7 -73l-16 -88q-19 -103 -64 -166t-130 -95l-6 -37h121q23 0 19 -20z" />
    <glyph glyph-name="uni03BC" unicode="&#x3bc;" horiz-adv-x="557" 
d="M582 534v-4l-85 -486q-3 -17 -23 -23q-81 -28 -190 -28q-78 0 -124 29l-35 -198q-4 -20 -24 -20h-48q-16 0 -16 16v4l124 706q4 20 23 20h50q15 0 15 -16v-4l-58 -329q-4 -20 -4 -42q0 -91 110 -91q68 0 118 14l79 448q2 8 9 14t15 6h49q15 0 15 -16z" />
    <glyph glyph-name="pi" unicode="&#x3c0;" horiz-adv-x="552" 
d="M598 469h-69l-59 -335q-8 -46 -1 -60.5t38 -14.5h24q9 0 8 -11l-8 -43q-1 -5 -3 -8t-3.5 -3t-6.5 -2q-20 -4 -41 -4q-119 0 -94 146l59 335h-166l-79 -449q-4 -20 -17 -20h-60q-15 0 -12 20l79 449h-69q-9 0 -11 3t-1 12l9 50q2 16 17 16h480q9 0 11.5 -3.5t1.5 -12.5
l-9 -50q-2 -15 -18 -15z" />
    <glyph glyph-name="Wgrave" unicode="&#x1e80;" horiz-adv-x="825" 
d="M846 743h59q20 0 13 -20l-230 -676q-17 -51 -71 -51h-43q-21 0 -33.5 13.5t-14.5 36.5l-33 370q-1 9 -5 9q-5 0 -9 -9l-164 -370q-22 -50 -66 -50h-42q-26 0 -39.5 10.5t-13.5 39.5v1l8 676q0 20 21 20h57q14 0 14 -17l-15 -637q0 -15 3 -15q2 0 9 15l163 370
q18 40 54 40h64q37 0 40 -40l33 -370q2 -15 4 -15q3 0 8 15l209 637q6 17 20 17zM615 802q0 -9 -10 -9h-54q-11 0 -21 15l-90 126q-3 5 -3 7q0 8 12 8h66q13 0 23 -15l75 -124q2 -3 2 -8z" />
    <glyph glyph-name="wgrave" unicode="&#x1e81;" horiz-adv-x="786" 
d="M770 550h56q24 0 15 -24l-179 -464q-26 -69 -96 -69q-29 0 -47 19.5t-21 55.5l-29 337q-1 7 -4 7t-6 -7l-147 -337q-17 -39 -38.5 -57t-55.5 -18q-69 0 -72 69l-15 465q0 8 7 15.5t16 7.5h52q14 0 14 -16l3 -453q0 -12 6 -12q5 0 10 12l165 381q14 30 46 30h56
q31 0 34 -30l31 -381q1 -12 6 -12q6 0 10 12l163 453q6 16 20 16zM577 632q0 -9 -10 -9h-54q-11 0 -21 15l-90 126q-3 5 -3 7q0 8 12 8h66q13 0 23 -15l75 -124q2 -3 2 -8z" />
    <glyph glyph-name="Wacute" unicode="&#x1e82;" horiz-adv-x="825" 
d="M846 743h59q20 0 13 -20l-230 -676q-17 -51 -71 -51h-43q-21 0 -33.5 13.5t-14.5 36.5l-33 370q-1 9 -5 9q-5 0 -9 -9l-164 -370q-22 -50 -66 -50h-42q-26 0 -39.5 10.5t-13.5 39.5v1l8 676q0 20 21 20h57q14 0 14 -17l-15 -637q0 -15 3 -15q2 0 9 15l163 370
q18 40 54 40h64q37 0 40 -40l33 -370q2 -15 4 -15q3 0 8 15l209 637q6 17 20 17zM695 943q0 -4 -5 -9l-136 -126q-16 -15 -25 -15h-54q-8 0 -8 6q0 5 6 11l120 124q15 15 26 15h66q10 0 10 -6z" />
    <glyph glyph-name="wacute" unicode="&#x1e83;" horiz-adv-x="786" 
d="M770 550h56q24 0 15 -24l-179 -464q-26 -69 -96 -69q-29 0 -47 19.5t-21 55.5l-29 337q-1 7 -4 7t-6 -7l-147 -337q-17 -39 -38.5 -57t-55.5 -18q-69 0 -72 69l-15 465q0 8 7 15.5t16 7.5h52q14 0 14 -16l3 -453q0 -12 6 -12q5 0 10 12l165 381q14 30 46 30h56
q31 0 34 -30l31 -381q1 -12 6 -12q6 0 10 12l163 453q6 16 20 16zM662 773q0 -4 -5 -9l-136 -126q-17 -15 -25 -15h-54q-8 0 -8 6q0 5 6 11l120 124q15 15 26 15h66q10 0 10 -6z" />
    <glyph glyph-name="Wdieresis" unicode="&#x1e84;" horiz-adv-x="825" 
d="M846 743h59q20 0 13 -20l-230 -676q-17 -51 -71 -51h-43q-21 0 -33.5 13.5t-14.5 36.5l-33 370q-1 9 -5 9q-5 0 -9 -9l-164 -370q-22 -50 -66 -50h-42q-26 0 -39.5 10.5t-13.5 39.5v1l8 676q0 20 21 20h57q14 0 14 -17l-15 -637q0 -15 3 -15q2 0 9 15l163 370
q18 40 54 40h64q37 0 40 -40l33 -370q2 -15 4 -15q3 0 8 15l209 637q6 17 20 17zM686 923v-3l-15 -81q-1 -8 -8 -13.5t-15 -5.5h-39q-17 0 -17 16v3l15 81q2 8 9 14t14 6h39q7 0 12 -5t5 -12zM511 923v-3l-15 -81q-1 -8 -8 -13.5t-15 -5.5h-39q-17 0 -17 16v3l15 81
q2 8 9 14t14 6h39q7 0 12 -5t5 -12z" />
    <glyph glyph-name="wdieresis" unicode="&#x1e85;" horiz-adv-x="786" 
d="M770 550h56q24 0 15 -24l-179 -464q-26 -69 -96 -69q-29 0 -47 19.5t-21 55.5l-29 337q-1 7 -4 7t-6 -7l-147 -337q-17 -39 -38.5 -57t-55.5 -18q-69 0 -72 69l-15 465q0 8 7 15.5t16 7.5h52q14 0 14 -16l3 -453q0 -12 6 -12q5 0 10 12l165 381q14 30 46 30h56
q31 0 34 -30l31 -381q1 -12 6 -12q6 0 10 12l163 453q6 16 20 16zM647 744v-3l-15 -81q-1 -8 -8 -13.5t-15 -5.5h-39q-17 0 -17 16v3l15 81q2 8 9 14t14 6h39q7 0 12 -5t5 -12zM472 744v-3l-15 -81q-1 -8 -8 -13.5t-15 -5.5h-39q-17 0 -17 16v3l15 81q2 8 9 14t14 6h39
q7 0 12 -5t5 -12z" />
    <glyph glyph-name="Ygrave" unicode="&#x1ef2;" horiz-adv-x="583" 
d="M677 731q0 -5 -5 -13l-217 -348q-33 -53 -65 -66l-50 -284q-4 -20 -22 -20h-55q-17 0 -14 20l50 284q-28 12 -43 66l-92 348q-7 25 18 25h58q12 0 16 -14l80 -324q7 -26 19 -26q11 0 27 26l197 324q8 14 25 14h58q15 0 15 -12zM499 803q0 -9 -10 -9h-54q-11 0 -21 15
l-90 126q-3 5 -3 7q0 8 12 8h66q13 0 23 -15l75 -124q2 -3 2 -8z" />
    <glyph glyph-name="ygrave" unicode="&#x1ef3;" horiz-adv-x="534" 
d="M592 537q0 -5 -3 -11l-267 -576q-39 -84 -82 -116t-127 -32q-46 0 -82 9q-7 2 -10.5 3.5t-6.5 4.5t-2 8l7 37q2 11 7 14t18 2q63 -6 88 -6q44 0 68.5 17t45.5 68l17 41h-11q-27 0 -43.5 16t-22.5 62l-51 448q-1 15 4 19.5t17 4.5h52q12 0 14 -16l42 -434q2 -22 15 -22h16
l202 457q6 15 22 15h59q14 0 14 -13zM435 632q0 -9 -10 -9h-54q-11 0 -21 15l-90 126q-3 5 -3 7q0 8 12 8h66q13 0 23 -15l75 -124q2 -3 2 -8z" />
    <glyph glyph-name="endash" unicode="&#x2013;" horiz-adv-x="310" 
d="M371 263q-3 -17 -22 -17h-302q-19 0 -16 17l7 39q4 18 22 18h302q8 0 13 -5t3 -13z" />
    <glyph glyph-name="emdash" unicode="&#x2014;" horiz-adv-x="600" 
d="M661 263q-3 -17 -22 -17h-592q-19 0 -16 17l7 39q4 18 22 18h592q8 0 13 -5t3 -13z" />
    <glyph glyph-name="quoteleft" unicode="&#x2018;" horiz-adv-x="186" 
d="M288 746q0 -6 -3 -13l-70 -189q-7 -19 -23 -19h-59q-10 0 -10 8q0 5 3 11l94 189q10 19 23 19h38q7 0 7 -6z" />
    <glyph glyph-name="quoteright" unicode="&#x2019;" horiz-adv-x="186" 
d="M288 744q0 -5 -3 -11l-94 -189q-9 -19 -22 -19h-38q-8 0 -8 7q0 4 3 12l70 189q7 19 24 19h59q9 0 9 -8z" />
    <glyph glyph-name="quotesinglbase" unicode="&#x201a;" horiz-adv-x="186" 
d="M189 121q0 -5 -3 -11l-108 -189q-10 -19 -22 -19h-41q-11 0 -11 9q0 4 3 10l90 189q9 19 24 19h58q10 0 10 -8z" />
    <glyph glyph-name="quotedblleft" unicode="&#x201c;" horiz-adv-x="336" 
d="M438 746q0 -6 -3 -13l-70 -189q-7 -19 -23 -19h-59q-10 0 -10 8q0 5 3 11l94 189q10 19 23 19h38q7 0 7 -6zM288 746q0 -6 -3 -13l-70 -189q-7 -19 -23 -19h-59q-10 0 -10 8q0 5 3 11l94 189q10 19 23 19h38q7 0 7 -6z" />
    <glyph glyph-name="quotedblright" unicode="&#x201d;" horiz-adv-x="336" 
d="M438 745q0 -5 -3 -11l-94 -189q-9 -19 -22 -19h-38q-8 0 -8 7q0 5 3 12l70 189q7 19 24 19h59q9 0 9 -8zM288 745q0 -5 -3 -11l-94 -189q-9 -19 -22 -19h-38q-8 0 -8 7q0 5 3 12l70 189q7 19 24 19h59q9 0 9 -8z" />
    <glyph glyph-name="quotedblbase" unicode="&#x201e;" horiz-adv-x="336" 
d="M355 121q0 -5 -3 -11l-108 -189q-10 -19 -22 -19h-41q-11 0 -11 9q0 4 3 10l90 189q9 19 24 19h58q10 0 10 -8zM175 121q0 -5 -3 -11l-108 -189q-10 -19 -22 -19h-41q-11 0 -11 9q0 4 3 10l90 189q9 19 24 19h58q10 0 10 -8z" />
    <glyph glyph-name="dagger" unicode="&#x2020;" horiz-adv-x="404" 
d="M462 543v-3l-8 -45q-3 -16 -22 -16h-109l-80 -459q-4 -20 -20 -20h-57q-13 0 -13 14q0 1 0.5 3t0.5 3l80 459h-94q-16 0 -16 13v3l8 45q3 15 22 15h94l31 178q4 19 21 19h56q12 0 12 -14v-5l-31 -178h109q16 0 16 -12z" />
    <glyph glyph-name="daggerdbl" unicode="&#x2021;" horiz-adv-x="404" 
d="M462 543v-3l-8 -45q-3 -16 -22 -16h-109l-23 -134h109q16 0 16 -12v-3l-8 -45q-3 -16 -22 -16h-109l-43 -249q-4 -20 -20 -20h-57q-13 0 -13 14q0 1 0.5 3t0.5 3l43 249h-94q-16 0 -16 13v3l8 45q3 15 22 15h94l23 134h-94q-16 0 -16 13v3l8 45q3 15 22 15h94l31 178
q4 19 21 19h56q12 0 12 -14v-5l-31 -178h109q16 0 16 -12z" />
    <glyph glyph-name="bullet" unicode="&#x2022;" horiz-adv-x="418" 
d="M438 367q0 -66 -46.5 -112.5t-112.5 -46.5t-112.5 46.5t-46.5 112.5t46.5 112.5t112.5 46.5t112.5 -46.5t46.5 -112.5z" />
    <glyph glyph-name="ellipsis" unicode="&#x2026;" horiz-adv-x="606" 
d="M568 116v-3l-17 -94q-1 -8 -7.5 -13.5t-14.5 -5.5h-48q-7 0 -12 4.5t-5 11.5v3l17 94q1 7 8 13t15 6h48q16 0 16 -16zM367 116v-3l-17 -94q-1 -8 -8 -13.5t-15 -5.5h-48q-16 0 -16 16v3l17 94q4 19 22 19h48q7 0 12 -4.5t5 -11.5zM165 116v-3l-17 -94q-1 -8 -7.5 -13.5
t-14.5 -5.5h-48q-7 0 -12 4.5t-5 11.5v3l17 94q1 7 8 13t15 6h48q16 0 16 -16z" />
    <glyph glyph-name="perthousand" unicode="&#x2030;" horiz-adv-x="1134" 
d="M1137 294q0 -25 -4 -46l-17 -93q-15 -85 -55.5 -123.5t-106.5 -38.5q-51 0 -81 31.5t-30 87.5q0 23 4 43l17 93q29 161 163 161q52 0 81 -29.5t29 -85.5zM797 294q0 -25 -4 -46l-17 -93q-15 -85 -55.5 -123.5t-106.5 -38.5q-51 0 -81 31.5t-30 87.5q0 23 4 43l17 93
q29 161 163 161q52 0 81 -29.5t29 -85.5zM780 738q0 -6 -7 -14l-543 -708q-16 -20 -26 -20h-49q-8 0 -8 6t6 14l543 708q15 19 26 19h51q7 0 7 -5zM422 635q0 -25 -4 -46l-17 -93q-15 -85 -55.5 -123.5t-106.5 -38.5q-51 0 -81 31.5t-30 87.5q0 23 4 43l17 93
q29 161 163 161q52 0 81 -29.5t29 -85.5zM1075 290q0 63 -58 63q-72 0 -91 -105l-17 -93q-4 -21 -4 -42q0 -63 59 -63q71 0 90 105l17 93q4 21 4 42zM735 290q0 63 -58 63q-72 0 -91 -105l-17 -93q-4 -21 -4 -42q0 -63 59 -63q71 0 90 105l17 93q4 21 4 42zM360 631
q0 63 -58 63q-72 0 -91 -105l-17 -93q-4 -21 -4 -42q0 -63 59 -63q71 0 90 105l17 93q4 21 4 42z" />
    <glyph glyph-name="guilsinglleft" unicode="&#x2039;" horiz-adv-x="354" 
d="M389 477q0 -9 -8 -15l-210 -185l139 -185q4 -6 4 -11q0 -11 -12 -11h-53q-10 0 -19 10l-139 169q-8 9 -8 25q0 21 12 31l199 169q12 10 25 10h61q9 0 9 -7z" />
    <glyph glyph-name="guilsinglright" unicode="&#x203a;" horiz-adv-x="354" 
d="M373 280q0 -21 -12 -31l-199 -169q-12 -10 -25 -10h-61q-9 0 -9 7q0 9 8 15l210 185l-139 185q-4 6 -4 11q0 11 12 11h53q10 0 19 -10l139 -169q8 -9 8 -25z" />
    <glyph glyph-name="fraction" unicode="&#x2044;" horiz-adv-x="753" 
d="M717 738q0 -6 -7 -14l-543 -708q-16 -20 -26 -20h-49q-8 0 -8 6t6 14l543 708q15 19 26 19h51q7 0 7 -5z" />
    <glyph glyph-name="n.superior" unicode="&#x207f;" horiz-adv-x="334" 
d="M364 337q-4 -16 -20 -16h-26q-7 0 -10.5 4.5t-2.5 11.5l33 185q7 39 -4 54t-41 15t-75 -19l-41 -235q-1 -6 -7 -11t-12 -5h-27q-7 0 -10.5 4.5t-2.5 11.5l51 287q2 16 18 16h27q16 0 14 -16l-1 -2q45 21 83 21q106 0 87 -121z" />
    <glyph glyph-name="franc" unicode="&#x20a3;" horiz-adv-x="551" 
d="M317 174h-117l-27 -154q-2 -11 -6.5 -15.5t-16.5 -4.5h-51q-21 0 -17 20l27 154h-56q-22 0 -19 20l6 38q2 12 7 16t17 4h58l55 312q19 107 77 146.5t169 39.5q142 0 195 -9q9 -2 7 -14l-9 -47q-2 -12 -13 -12h-193q-77 0 -104.5 -22t-37.5 -82l-24 -139h304q22 0 19 -20
l-6 -38q-2 -12 -7 -16t-17 -4h-307l-17 -95h115q22 0 19 -20l-6 -38q-2 -12 -7 -16t-17 -4z" />
    <glyph glyph-name="lira" unicode="&#x20a4;" 
d="M144 295h49l13 72h-52q-19 0 -15 18l8 42q4 18 23 18h50l8 45q22 134 81.5 193t184.5 59q77 0 153 -13q19 -3 16 -17l-8 -41q-3 -20 -23 -17q-79 11 -152 11q-77 0 -110.5 -36.5t-50.5 -138.5l-8 -45h215q20 0 16 -18l-8 -42q-3 -18 -23 -18h-214l-13 -72h216
q20 0 16 -18l-8 -42q-2 -11 -7 -14.5t-16 -3.5h-214l-4 -22q-10 -57 -56 -119h319q10 0 14.5 -4t3.5 -11l-8 -44q-3 -17 -23 -17h-399q-17 0 -13 20l6 34q1 5 14 23q23 29 33.5 54t17.5 64l4 22h-52q-19 0 -15 18l8 42q3 18 23 18z" />
    <glyph glyph-name="peseta" unicode="&#x20a7;" horiz-adv-x="1434" 
d="M645 574q0 -18 -3 -41l-2 -13q-10 -65 -38.5 -110.5t-72.5 -69.5t-94 -34t-115 -10q-36 0 -99 5l-49 -281q-4 -20 -22 -20h-54q-14 0 -14 16v3v1l122 697q5 22 29 25q70 8 167 8q116 0 180.5 -43.5t64.5 -132.5zM554 568q0 57 -40 81t-127 24q-53 0 -101 -4l-52 -293
q92 -4 100 -4q100 0 151.5 37t63.5 111l2 13q3 19 3 35zM1033 534v-4l-6 -34q-4 -20 -23 -20h-108l-62 -351q-3 -18 -3 -29q0 -20 10 -26t36 -6h61q14 0 14 -10v-4l-6 -35q-3 -14 -21 -17q-33 -5 -63 -5q-120 0 -120 95q0 18 4 39l62 349l-95 11q-16 2 -16 15v3l5 27
q4 18 22 18h97l16 98q3 17 22 20l53 8h3q12 0 12 -14v-3l-18 -109h108q16 0 16 -16zM1459 528v-4l-5 -33q-3 -17 -20 -17h-3q-68 8 -147 8q-105 0 -105 -71q0 -31 54 -66l89 -59q50 -33 69.5 -62t19.5 -63q0 -88 -61 -128t-154 -40q-96 0 -156 15q-17 4 -17 17v3l6 35
q3 15 19 15h6q86 -11 155 -11q49 0 81 20t32 65q0 18 -12.5 33.5t-45.5 37.5l-90 59q-84 55 -84 121q0 82 59.5 118t147.5 36q85 0 147 -13q15 -3 15 -16z" />
    <glyph glyph-name="Euro" unicode="&#x20ac;" 
d="M677 723v-2l-9 -51q0 -5 -5 -8t-9 -3h-3q-4 0 -18.5 1.5t-23.5 2.5q-53 5 -108 5q-75 0 -134.5 -44.5t-86.5 -144.5h284q7 0 12.5 -4.5t5.5 -10.5q0 -3 -1 -5q-2 -4 -5 -12.5t-5 -12.5q-7 -20 -24 -20h-282q-2 -14 -6.5 -41t-7.5 -40h256q14 0 14 -13q0 -1 -2 -7
q-2 -4 -5.5 -12.5t-4.5 -12.5q-7 -20 -24 -20h-244q-2 -24 -2 -33q0 -84 43 -122t114 -38q55 0 151 8h4q13 0 13 -11v-5q-1 -7 -3.5 -20.5t-3.5 -20.5q-3 -16 -24 -20v0q-70 -13 -150 -13q-41 0 -80.5 12.5t-75 38.5t-57 73t-21.5 109q0 27 2 42h-40q-16 0 -16 17v2v1
q1 4 2.5 12.5t1.5 12.5q4 20 24 20h35q2 14 7 41t7 40h-35q-7 0 -12 5q-4 4 -4 12v2v1q0 4 1.5 12.5t2.5 12.5q4 20 23 20h37q20 77 56 132.5t82 84.5t92.5 41.5t98.5 12.5q51 0 105 -9q8 -1 23 -3.5l21 -3.5q14 -2 14 -11z" />
    <glyph glyph-name="afii61289" unicode="&#x2113;" horiz-adv-x="450" 
d="M427 66q6 -14 -7 -24q-30 -23 -73.5 -38t-81.5 -15q-58 0 -85.5 31.5t-27.5 85.5q0 20 5 48l19 107l-71 -51q-17 -12 -24 0l-10 16q-7 13 5 22l112 81l48 273q16 93 59 137t123 44q61 0 90.5 -29t29.5 -76q0 -46 -19.5 -91.5t-61.5 -93.5t-80 -83t-102 -89l-29 -163
q-4 -23 -4 -42q0 -28 11.5 -40t38.5 -12q47 0 101 31q18 11 26 -2zM425 733q-46 0 -66.5 -29.5t-33.5 -101.5l-38 -212q51 48 76.5 74t57.5 65.5t45.5 75t13.5 73.5q0 55 -55 55z" />
    <glyph glyph-name="trademark" unicode="&#x2122;" horiz-adv-x="790" 
d="M839 346q0 -10 -10 -10h-41q-10 0 -10 10v240q0 63 -18 83t-87 20v-343q0 -10 -10 -10h-42q-10 0 -10 10v343q-50 0 -106 -6v-337q0 -10 -9 -10h-41q-10 0 -10 10v371q0 18 15 19q97 10 182 10q110 0 153.5 -31.5t43.5 -128.5v-240zM409 703q0 -14 -17 -14h-97v-337
q0 -6 -4.5 -11t-11.5 -5h-32q-15 0 -15 16v337h-99q-16 0 -16 14v25q0 15 16 15h259q6 0 11.5 -4.5t5.5 -10.5v-25z" />
    <glyph glyph-name="Omega" unicode="&#x2126;" horiz-adv-x="592" 
d="M559 21q-4 -21 -26 -21h-181q-21 0 -18 21l20 113q3 20 19 25q70 23 108.5 76t53.5 138l16 88q7 36 7 69q0 78 -36.5 111t-107.5 33q-173 0 -211 -213l-16 -88q-7 -44 -7 -70q0 -109 95 -144q8 -3 9.5 -7t-0.5 -18l-20 -113q-3 -21 -24 -21h-181q-24 0 -20 21l6 34
q4 20 27 20h121l6 37q-108 49 -108 194q0 34 6 67l16 88q53 294 304 294q114 0 172.5 -57.5t58.5 -163.5q0 -28 -7 -73l-16 -88q-19 -103 -64 -166t-130 -95l-6 -37h121q23 0 19 -20z" />
    <glyph glyph-name="estimated" unicode="&#x212e;" horiz-adv-x="606" 
d="M577 282h-429v-193q66 -63 152 -63q76 0 123 33t87 94l31 -19q-44 -68 -99 -104.5t-142 -36.5q-119 0 -195 84.5t-76 205.5q0 123 75 206.5t200 83.5q124 0 198.5 -84.5t74.5 -206.5zM457 315v163q-68 62 -153 62q-96 0 -156 -62v-163h309z" />
    <glyph glyph-name="onethird" unicode="&#x2153;" horiz-adv-x="792" 
d="M272 743h32q10 0 9 -10l-69 -395q0 -11 -12 -11h-45q-8 0 -7 11l60 341l-78 -31q-12 -6 -11 7l6 37q1 8 10 11l79 33q15 7 26 7zM739 738q0 -6 -7 -14l-543 -708q-16 -20 -26 -20h-49q-8 0 -8 6t6 14l543 708q15 19 26 19h51q7 0 7 -5zM572 407q39 12 91 12
q62 0 96.5 -25.5t34.5 -68.5q0 -73 -68 -109q35 -22 35 -75q0 -74 -45.5 -109.5t-122.5 -35.5q-55 0 -93 12q-9 2 -8 11l5 29q2 11 12 11q3 0 19 -2q38 -4 61 -4q54 0 81.5 17t27.5 69q0 51 -51 51h-100q-12 0 -10 11l6 31q2 11 14 11h98q36 0 55 19.5t19 54.5q0 25 -20 35
t-65 10q-31 0 -80 -7q-6 -1 -8.5 2t-1.5 9l5 30q1 7 13 11z" />
    <glyph glyph-name="twothirds" unicode="&#x2154;" horiz-adv-x="856" 
d="M803 738q0 -6 -7 -14l-543 -708q-16 -20 -26 -20h-49q-8 0 -8 6t6 14l543 708q15 19 26 19h51q7 0 7 -5zM636 407q39 12 91 12q62 0 96.5 -25.5t34.5 -68.5q0 -73 -68 -109q35 -22 35 -75q0 -74 -45.5 -109.5t-122.5 -35.5q-55 0 -93 12q-9 2 -8 11l5 29q2 11 12 11
q3 0 19 -2q38 -4 61 -4q54 0 81.5 17t27.5 69q0 51 -51 51h-100q-12 0 -10 11l6 31q2 11 14 11h98q36 0 55 19.5t19 54.5q0 25 -20 35t-65 10q-31 0 -80 -7q-6 -1 -8.5 2t-1.5 9l5 30q1 7 13 11zM413 663q0 -44 -24 -73t-70 -58l-58 -36q-45 -28 -60 -50t-22 -57l-1 -5h173
q6 0 9 -2t2 -8l-6 -37q-2 -10 -15 -10h-225q-10 0 -10 12l7 40q9 55 34.5 93t80.5 71l61 37q38 23 49 37.5t11 38.5q0 19 -16.5 26.5t-57.5 7.5q-48 0 -90 -7q-8 -1 -11 1.5t-1 8.5l6 31q1 7 14 10q52 12 97 12q58 0 90.5 -21.5t32.5 -61.5z" />
    <glyph glyph-name="oneeighth" unicode="&#x215b;" horiz-adv-x="799" 
d="M272 743h32q10 0 9 -10l-69 -395q0 -11 -12 -11h-45q-8 0 -7 11l60 341l-78 -31q-12 -6 -11 7l6 37q1 8 10 11l79 33q15 7 26 7zM739 738q0 -6 -7 -14l-543 -708q-16 -20 -26 -20h-49q-8 0 -8 6t6 14l543 708q15 19 26 19h51q7 0 7 -5zM739 216q32 -24 32 -69
q0 -71 -44.5 -111t-120.5 -40h-5q-53 0 -86 25.5t-33 73.5q0 36 18 70t46 51q-31 28 -31 67q0 66 46 101t115 35h5q55 0 87.5 -22.5t32.5 -67.5q0 -76 -62 -113zM622 190q-35 0 -54.5 -25t-19.5 -61q0 -51 64 -51h5q39 0 63.5 24t24.5 65q0 20 -12 34t-37 14h-34zM631 243
h34q36 0 54 22t18 53q0 46 -66 46h-5q-41 0 -63.5 -20t-22.5 -56q0 -45 51 -45z" />
    <glyph glyph-name="threeeighths" unicode="&#x215c;" horiz-adv-x="848" 
d="M788 738q0 -6 -7 -14l-543 -708q-16 -20 -26 -20h-49q-8 0 -8 6t6 14l543 708q15 19 26 19h51q7 0 7 -5zM788 216q32 -24 32 -69q0 -71 -44.5 -111t-120.5 -40h-5q-53 0 -86 25.5t-33 73.5q0 36 18 70t46 51q-31 28 -31 67q0 66 46 101t115 35h5q55 0 87.5 -22.5
t32.5 -67.5q0 -76 -62 -113zM671 190q-35 0 -54.5 -25t-19.5 -61q0 -51 64 -51h5q39 0 63.5 24t24.5 65q0 20 -12 34t-37 14h-34zM680 243h34q36 0 54 22t18 53q0 46 -66 46h-5q-41 0 -63.5 -20t-22.5 -56q0 -45 51 -45zM187 734q39 12 91 12q62 0 96.5 -25.5t34.5 -68.5
q0 -73 -68 -109q35 -22 35 -75q0 -74 -45.5 -109.5t-122.5 -35.5q-55 0 -93 12q-9 2 -8 11l5 29q2 11 12 11q3 0 19 -2q38 -4 61 -4q54 0 81.5 17t27.5 69q0 51 -51 51h-100q-12 0 -10 11l6 31q2 11 14 11h98q36 0 55 19.5t19 54.5q0 25 -20 35t-65 10q-31 0 -80 -7
q-6 -1 -8.5 2t-1.5 9l5 30q1 7 13 11z" />
    <glyph glyph-name="fiveeighths" unicode="&#x215d;" horiz-adv-x="852" 
d="M792 738q0 -6 -7 -14l-543 -708q-16 -20 -26 -20h-49q-8 0 -8 6t6 14l543 708q15 19 26 19h51q7 0 7 -5zM792 216q32 -24 32 -69q0 -72 -43.5 -111.5t-119.5 -39.5h-5q-53 0 -87 25.5t-34 73.5q0 36 18 70t46 51q-31 28 -31 67q0 66 44.5 101t113.5 35h5q56 0 89.5 -22.5
t33.5 -67.5q0 -76 -62 -113zM675 190q-35 0 -54.5 -25t-19.5 -61q0 -51 64 -51h5q39 0 63.5 24t24.5 65q0 20 -12 34t-37 14h-34zM684 243h34q36 0 54 22t18 53q0 46 -66 46h-5q-41 0 -63.5 -20t-22.5 -56q0 -45 51 -45zM133 388q45 -8 92 -8q96 0 96 96q0 29 -21.5 40.5
t-72.5 11.5h-65q-18 0 -13 19l46 179q5 17 22 17h186q17 0 14 -18l-4 -24q-3 -16 -21 -16h-148l-24 -100h17q75 0 111.5 -23.5t36.5 -77.5q0 -77 -44.5 -119t-126.5 -42q-57 0 -94 10q-15 5 -13 18l4 20q3 19 22 17z" />
    <glyph glyph-name="seveneighths" unicode="&#x215e;" horiz-adv-x="799" 
d="M739 738q0 -6 -7 -14l-543 -708q-16 -20 -26 -20h-49q-8 0 -8 6t6 14l543 708q15 19 26 19h51q7 0 7 -5zM739 216q32 -24 32 -69q0 -72 -43.5 -111.5t-119.5 -39.5h-5q-53 0 -87 25.5t-34 73.5q0 36 18 70t46 51q-31 28 -31 67q0 66 44.5 101t113.5 35h5q56 0 89.5 -22.5
t33.5 -67.5q0 -76 -62 -113zM622 190q-35 0 -54.5 -25t-19.5 -61q0 -51 64 -51h5q39 0 63.5 24t24.5 65q0 20 -12 34t-37 14h-34zM631 243h34q36 0 54 22t18 53q0 46 -66 46h-5q-41 0 -63.5 -20t-22.5 -56q0 -45 51 -45zM154 351l219 334h-177q-19 0 -16 16l4 23q4 19 23 19
h205q33 0 33 -25q0 -26 -16 -49l-214 -333q-6 -9 -19 -9h-32q-25 0 -10 24z" />
    <glyph glyph-name="partialdiff" unicode="&#x2202;" horiz-adv-x="560" 
d="M520 474q0 -102 -22 -232q-46 -252 -262 -252q-98 0 -147 50.5t-49 140.5q0 40 13 121q40 238 255 238q84 0 128 -48q-1 4 -3 14q-2 47 -11 82t-30 68t-63 51t-103 18q-52 0 -100 -8q-9 -2 -13.5 0.5t-3.5 9.5l4 29q1 16 17 20q49 10 107 10q283 0 283 -312zM421 355
q0 56 -26.5 84.5t-86.5 28.5q-138 0 -165 -175q-13 -89 -13 -113q0 -119 113 -119q135 0 164 176q14 82 14 118z" />
    <glyph glyph-name="Delta" unicode="&#x2206;" horiz-adv-x="633" 
d="M607 19q0 -19 -17 -19h-544q-14 0 -14 13q0 6 2 10l300 651q35 76 115 76q79 0 88 -75l70 -652v-4zM509 79l-56 574q-2 18 -16 18q-15 0 -23 -18l-257 -574h352z" />
    <glyph glyph-name="product" unicode="&#x220f;" horiz-adv-x="641" 
d="M680 671q0 -10 -11 -10h-72v-718q0 -18 -17 -18h-56q-17 0 -17 18v718h-252v-718q0 -18 -17 -18h-56q-17 0 -17 18v718h-73q-11 0 -11 10v61q0 7 2.5 9t8.5 2h577q6 0 8.5 -2t2.5 -9v-61z" />
    <glyph glyph-name="summation" unicode="&#x2211;" horiz-adv-x="517" 
d="M522 -59q0 -16 -14 -16h-376q-17 0 -17 20v46q0 14 6 24l191 307q3 5 3 12t-3 12l-191 307q-6 10 -6 24v46q0 20 17 20h376q14 0 14 -16v-48q0 -17 -14 -17h-278q-8 0 -3 -9l177 -285q6 -9 6 -20v-28q0 -11 -6 -20l-177 -285q-5 -9 3 -9h278q14 0 14 -17v-48z" />
    <glyph glyph-name="minus" unicode="&#x2212;" horiz-adv-x="595" 
d="M608 371q0 -16 -20 -16h-38h-377q-20 0 -20 16v40q0 16 20 16h38h377q20 0 20 -16v-40z" />
    <glyph glyph-name="uni2215" unicode="&#x2215;" horiz-adv-x="753" 
d="M717 738q0 -6 -7 -14l-543 -708q-16 -20 -26 -20h-49q-8 0 -8 6t6 14l543 708q15 19 26 19h51q7 0 7 -5z" />
    <glyph glyph-name="uni2219" unicode="&#x2219;" horiz-adv-x="214" 
d="M227 442v-4l-16 -93q-4 -20 -23 -20h-48q-15 0 -15 16v4l16 93q3 19 23 19h48q15 0 15 -15z" />
    <glyph glyph-name="radical" unicode="&#x221a;" horiz-adv-x="730" 
d="M845 859l-447 -918q-7 -16 -28 -16h-74q-9 0 -12 4t-5 14l-58 452q-1 7 -2.5 9t-7.5 2h-97q-11 0 -9 12l8 47q3 14 14 14h148q16 0 17 -15l56 -472l415 866q7 13 11 14q3 1 8 1h55q15 0 8 -14z" />
    <glyph glyph-name="infinity" unicode="&#x221e;" horiz-adv-x="614" 
d="M634 364q0 -217 -154 -217h-6q-77 0 -124 52q-35 -54 -97 -54h-6q-38 0 -65.5 14t-43 35t-24.5 52t-11.5 57.5t-2.5 59.5v25q0 218 153 218h7q72 0 122 -53q35 54 100 54h6q38 0 65.5 -14t42.5 -35t24 -52t11.5 -57.5t2.5 -59.5v-25zM562 364v25q0 36 -2 59.5t-9 48
t-23 36.5t-40 12h-6q-36 0 -52 -35t-30 -135q-14 -92 -23 -119q42 -48 97 -48h6q82 0 82 156zM354 493q-43 51 -95 51h-5q-81 0 -81 -156v-25q0 -36 2 -59t9 -47.5t22.5 -37t40.5 -12.5h6q34 0 51 36.5t31 137.5q14 96 19 112z" />
    <glyph glyph-name="integral" unicode="&#x222b;" horiz-adv-x="451" 
d="M473 700q0 -10 -11 -9q-38 2 -76 2q-39 0 -48 -15.5t-9 -70.5v-654q0 -38 -4 -62t-16.5 -47.5t-40.5 -35t-71 -11.5q-49 0 -89 10q-10 1 -10 13v40q0 10 11 9q38 -2 76 -2q39 0 48 15.5t9 70.5v654q0 38 4 62t16.5 47.5t40.5 35t71 11.5q49 0 89 -10q10 -1 10 -13v-40z
" />
    <glyph glyph-name="approxequal" unicode="&#x2248;" 
d="M537 605h34q16 0 13 -17l-4 -23q-9 -54 -32.5 -79.5t-67.5 -25.5q-49 0 -78 26l-47 44q-15 14 -22.5 18t-20.5 4q-28 0 -34 -46l-3 -21q-2 -17 -17 -17h-34q-15 0 -13 17l3 21q15 109 102 109q41 0 76 -31l54 -49q15 -14 32 -14q16 0 25 9.5t13 34.5l4 23q4 17 17 17z
M507 355h34q16 0 13 -17l-4 -23q-9 -54 -32.5 -79.5t-67.5 -25.5q-49 0 -78 26l-47 44q-15 14 -22.5 18t-20.5 4q-28 0 -34 -46l-3 -21q-2 -17 -17 -17h-34q-15 0 -13 17l3 21q15 109 102 109q41 0 76 -31l54 -49q15 -14 32 -14q16 0 25 9.5t13 34.5l4 23q4 17 17 17z" />
    <glyph glyph-name="notequal" unicode="&#x2260;" 
d="M515 261q0 -16 -20 -16h-203l-77 -226q-6 -19 -25 -19h-37q-7 0 -11 5.5t-2 13.5l77 226h-107q-20 0 -20 16v40q0 16 20 16h132l51 149h-183q-20 0 -20 16v40q0 16 20 16h208l66 192q6 19 25 19h37q7 0 11 -5.5t2 -13.5l-66 -192h102q20 0 20 -16v-40q0 -16 -20 -16h-127
l-51 -149h178q20 0 20 -16v-40z" />
    <glyph glyph-name="lessequal" unicode="&#x2264;" horiz-adv-x="525" 
d="M405 163q0 -11 -13 -11h-69q-13 0 -24 12l-201 201q-13 10 -13 33q0 22 13 32l201 201q11 12 24 12h69q13 0 13 -11q0 -8 -8 -15l-220 -219l220 -220q8 -7 8 -15zM490 16q0 -16 -20 -16h-415q-20 0 -20 16v33q0 16 20 16h415q20 0 20 -16v-33z" />
    <glyph glyph-name="greaterequal" unicode="&#x2265;" horiz-adv-x="525" 
d="M120 163q0 8 8 15l220 220l-220 219q-8 7 -8 15q0 11 13 11h69q13 0 24 -12l201 -201q13 -10 13 -32q0 -23 -13 -33l-201 -201q-11 -12 -24 -12h-69q-13 0 -13 11zM35 16v33q0 16 20 16h415q20 0 20 -16v-33q0 -16 -20 -16h-415q-20 0 -20 16z" />
    <glyph glyph-name="lozenge" unicode="&#x25ca;" horiz-adv-x="517" 
d="M537 360q0 -23 -22 -50l-154 -190q-23 -29 -42 -29q-20 0 -43 29l-154 190q-22 29 -22 50q0 23 22 51l156 195q18 22 41 22t40 -22l156 -195q22 -28 22 -51zM455 359q0 9 -11 25l-106 135q-10 13 -19 13q-8 0 -20 -13l-106 -135q-10 -14 -10 -25q0 -12 12 -27l103 -129
q15 -16 21 -16t21 16l103 129q12 17 12 27z" />
    <glyph glyph-name="j.dotless" unicode="&#xe008;" horiz-adv-x="247" 
d="M260 534v-4l-104 -594q-13 -74 -49.5 -103.5t-100.5 -29.5q-28 0 -53 4q-15 3 -15 12v4l6 37q3 14 24 14h42q28 0 39.5 12t18.5 50l104 594q4 20 24 20h48q16 0 16 -16z" />
    <glyph glyph-name="uni2014.alt" unicode="&#xe009;" horiz-adv-x="600" 
d="M601 263q-3 -17 -22 -17h-472q-19 0 -16 17l7 39q4 18 22 18h472q8 0 13 -5t3 -13z" />
    <glyph glyph-name="zero.fitted" unicode="&#xf639;" 
d="M634 536q0 -45 -9 -97l-23 -135q-28 -165 -103 -238t-197 -73q-94 0 -147 54t-53 163q0 43 9 94l23 135q28 165 103.5 238t197.5 73q96 0 147.5 -53.5t51.5 -160.5zM543 533q0 75 -30.5 107.5t-90.5 32.5q-71 0 -123.5 -58.5t-72.5 -175.5l-23 -135q-9 -56 -9 -96
q0 -74 30 -106t91 -32q71 0 123.5 58t72.5 176l23 135q9 54 9 94z" />
    <glyph glyph-name="two.fitted" unicode="&#xf63a;" 
d="M631 599q0 -73 -42.5 -124t-124.5 -101l-108 -65q-91 -54 -126 -98t-47 -111l-4 -21h333q17 0 17 -14v-3l-8 -44q-3 -18 -23 -18h-397q-17 0 -17 16v3l15 81q17 90 62.5 151t136.5 116l113 68q36 22 54.5 34.5t39.5 32.5t29 43.5t8 53.5q0 40 -31 57.5t-104 17.5
t-180 -15q-11 -2 -15.5 2t-1.5 16l7 35q3 14 22 18q83 20 181 20q211 0 211 -151z" />
    <glyph glyph-name="three.fitted" unicode="&#xf63b;" 
d="M623 599q0 -69 -34 -127.5t-95 -86.5q68 -37 68 -126q0 -134 -76.5 -200t-214.5 -66q-82 0 -166 20q-17 3 -15 19l6 34q3 19 23 17q103 -14 165 -14q186 0 186 187q0 40 -22.5 67t-74.5 27h-182q-19 0 -16 18l6 35q3 19 22 19h182q69 0 106.5 47t37.5 117q0 50 -29.5 69
t-105.5 19q-50 0 -174 -15h-3q-17 0 -14 17l6 35q3 15 23 19q100 20 172 20q104 0 161.5 -37.5t57.5 -113.5z" />
    <glyph glyph-name="four.fitted" unicode="&#xf63c;" 
d="M510 274h87q19 0 16 -18l-7 -40q-4 -18 -22 -18h-87l-31 -178q-3 -20 -21 -20h-58q-16 0 -13 20l31 178h-289q-35 0 -35 26q0 8 1 13l6 38q3 19 19 37l369 415q14 16 32 16h59q26 0 22 -22zM478 605q0 4 -4 4q-3 0 -9 -6l-279 -315q-5 -7 -5 -9q0 -5 7 -5h231l59 329v2z
" />
    <glyph glyph-name="five.fitted" unicode="&#xf63d;" 
d="M270 743h344q20 0 17 -17l-8 -44q-3 -16 -23 -16h-287l-54 -216h47q267 0 267 -173q0 -138 -80 -211t-221 -73q-101 0 -173 18q-19 3 -16 20l7 37q3 20 23 15q78 -14 172 -14t144.5 54.5t50.5 148.5q0 60 -42.5 81.5t-144.5 21.5h-117q-20 0 -16 18l87 333q5 17 23 17z
" />
    <glyph glyph-name="six.fitted" unicode="&#xf63e;" 
d="M444 750q95 0 169 -17q9 -2 15 -6.5t5 -12.5l-7 -39q-4 -21 -27 -17q-78 16 -168 16q-101 0 -145.5 -55.5t-64.5 -166.5l-2 -11q96 20 154 20q95 0 153.5 -44.5t58.5 -140.5q0 -123 -79.5 -203t-213.5 -80q-198 0 -198 196q0 53 6 88l31 175q29 163 104.5 230.5
t208.5 67.5zM494 274q0 67 -35.5 91.5t-97.5 24.5q-78 0 -154 -18l-17 -95q-8 -47 -8 -89q0 -69 30 -95t93 -26q93 0 141 62t48 145z" />
    <glyph glyph-name="seven.fitted" unicode="&#xf63f;" 
d="M650 680q0 -32 -15 -55l-394 -610q-10 -15 -25 -15h-63q-12 0 -12 11q0 7 5 15l412 628q2 4 2 6q0 5 -6 5h-338q-20 0 -17 17l8 42q4 19 23 19h324q96 0 96 -63z" />
    <glyph glyph-name="eight.fitted" unicode="&#xf640;" 
d="M651 594q0 -66 -35 -122.5t-94 -83.5q71 -43 71 -133q0 -125 -79 -193.5t-207 -68.5h-10q-90 0 -149.5 48t-59.5 129q0 69 35.5 128t96.5 90q-70 39 -70 122q0 117 80 178.5t200 61.5h10q94 0 152.5 -40.5t58.5 -115.5zM561 579q0 51 -33 74t-101 23h-10
q-75 0 -126.5 -42.5t-51.5 -115.5q0 -42 26 -68t82 -26h62q67 0 109.5 44t42.5 111zM502 251q0 43 -25.5 72t-80.5 29h-62q-73 0 -113.5 -51.5t-40.5 -125.5q0 -55 32 -80.5t98 -25.5h10q86 0 134 49t48 133z" />
    <glyph glyph-name="nine.fitted" unicode="&#xf641;" 
d="M631 554q0 -53 -6 -88l-31 -175q-29 -163 -104.5 -230.5t-208.5 -67.5q-95 0 -169 17q-12 2 -16.5 6t-3.5 13l7 39q2 13 7.5 16t19.5 1q83 -16 168 -16q101 0 145.5 55.5t64.5 166.5l2 11q-96 -20 -154 -20q-94 0 -153 41.5t-59 125.5q0 135 78.5 218t214.5 83
q198 0 198 -196zM543 555q0 69 -30 95t-93 26q-88 0 -138.5 -65t-50.5 -156q0 -102 133 -102q78 0 154 18l17 95q8 47 8 89z" />
    <glyph glyph-name="zero.taboldstyle" unicode="&#xf643;" 
d="M595 269q-26 -144 -98 -210t-189 -66q-100 0 -155.5 53.5t-55.5 151.5q0 27 7 71l3 15q48 276 286 276q99 0 155 -53.5t56 -153.5q0 -31 -6 -69zM504 269l3 15q6 38 6 67q0 132 -125 132q-73 0 -122.5 -49t-66.5 -150l-3 -15q-7 -38 -7 -71q0 -128 126 -128
q153 0 189 199z" />
    <glyph glyph-name="one.taboldstyle" unicode="&#xf644;" 
d="M500 0h-410q-20 0 -17 18l7 44q3 17 23 17h159l67 376l-169 -66q-5 -2 -9.5 -2.5t-8 2t-2.5 8.5l8 51q2 8 13 13l193 82q13 6 22 6h41q8 0 12.5 -5.5t3.5 -13.5l-80 -451h160q20 0 17 -17l-7 -44q-3 -18 -23 -18z" />
    <glyph glyph-name="two.taboldstyle" unicode="&#xf645;" 
d="M184 79h326q20 0 17 -17l-7 -44q-3 -18 -23 -18h-399q-18 0 -15 19l7 38q6 37 22 66t35.5 50t55 41.5t67 35t85.5 35.5q94 38 123.5 61t29.5 73q0 38 -31 51.5t-105 13.5q-71 0 -180 -15h-4q-16 0 -13 18l7 35q3 15 22 18q82 20 181 20q112 0 163 -31t51 -110
q0 -76 -52.5 -122t-157.5 -83q-81 -29 -125 -53t-55.5 -39t-24.5 -43z" />
    <glyph glyph-name="three.taboldstyle" unicode="&#xf646;" 
d="M589 409q0 -69 -34 -127.5t-95 -86.5q68 -37 68 -126q0 -134 -76.5 -200t-214.5 -66q-82 0 -166 20q-17 3 -15 19l6 34q3 19 23 17q103 -14 165 -14q186 0 186 187q0 40 -22.5 67t-74.5 27h-182q-19 0 -16 18l6 35q3 19 22 19h182q69 0 106.5 47t37.5 117q0 50 -29.5 69
t-105.5 19q-50 0 -174 -15h-3q-17 0 -14 17l6 35q3 15 23 19q100 20 172 20q104 0 161.5 -37.5t57.5 -113.5z" />
    <glyph glyph-name="four.taboldstyle" unicode="&#xf647;" 
d="M474 80h87q19 0 16 -18l-7 -40q-4 -18 -22 -18h-87l-31 -178q-3 -20 -21 -20h-58q-16 0 -13 20l31 178h-289q-35 0 -35 26q0 8 1 13l6 38q3 19 19 37l369 415q14 16 32 16h59q26 0 22 -22zM442 411q0 4 -4 4q-3 0 -9 -6l-279 -315q-5 -7 -5 -9q0 -5 7 -5h231l59 329v2z
" />
    <glyph glyph-name="five.taboldstyle" unicode="&#xf648;" 
d="M235 550h344q20 0 17 -17l-8 -44q-3 -16 -23 -16h-287l-54 -216h47q267 0 267 -173q0 -138 -80 -211t-221 -73q-101 0 -173 18q-19 3 -16 20l7 37q3 20 23 15q78 -14 172 -14t144.5 54.5t50.5 148.5q0 60 -42.5 81.5t-144.5 21.5h-117q-20 0 -16 18l87 333q5 17 23 17z
" />
    <glyph glyph-name="six.taboldstyle" unicode="&#xf649;" 
d="M444 750q95 0 169 -17q9 -2 15 -6.5t5 -12.5l-7 -39q-4 -21 -27 -17q-78 16 -168 16q-101 0 -145.5 -55.5t-64.5 -166.5l-2 -11q96 20 154 20q95 0 153.5 -44.5t58.5 -140.5q0 -123 -79.5 -203t-213.5 -80q-198 0 -198 196q0 53 6 88l31 175q29 163 104.5 230.5
t208.5 67.5zM494 274q0 67 -35.5 91.5t-97.5 24.5q-78 0 -154 -18l-17 -95q-8 -47 -8 -89q0 -69 30 -95t93 -26q93 0 141 62t48 145z" />
    <glyph glyph-name="seven.taboldstyle" unicode="&#xf64a;" 
d="M609 486q0 -32 -15 -55l-394 -610q-10 -15 -25 -15h-63q-12 0 -12 11q0 7 5 15l412 628q2 4 2 6q0 5 -6 5h-338q-20 0 -17 17l8 42q4 19 23 19h324q96 0 96 -63z" />
    <glyph glyph-name="eight.taboldstyle" unicode="&#xf64b;" 
d="M651 594q0 -66 -35 -122.5t-94 -83.5q71 -43 71 -133q0 -125 -79 -193.5t-207 -68.5h-10q-90 0 -149.5 48t-59.5 129q0 69 35.5 128t96.5 90q-70 39 -70 122q0 117 80 178.5t200 61.5h10q94 0 152.5 -40.5t58.5 -115.5zM561 579q0 51 -33 74t-101 23h-10
q-75 0 -126.5 -42.5t-51.5 -115.5q0 -42 26 -68t82 -26h62q67 0 109.5 44t42.5 111zM502 251q0 43 -25.5 72t-80.5 29h-62q-73 0 -113.5 -51.5t-40.5 -125.5q0 -55 32 -80.5t98 -25.5h10q86 0 134 49t48 133z" />
    <glyph glyph-name="nine.taboldstyle" unicode="&#xf64c;" 
d="M591 364q0 -53 -6 -88l-31 -175q-29 -163 -104.5 -230.5t-208.5 -67.5q-95 0 -169 17q-12 2 -16.5 6t-3.5 13l7 39q2 13 7.5 16t19.5 1q83 -16 168 -16q101 0 145.5 55.5t64.5 166.5l2 11q-96 -20 -154 -20q-94 0 -153 41.5t-59 125.5q0 135 78.5 218t214.5 83
q198 0 198 -196zM503 365q0 69 -30 95t-93 26q-88 0 -138.5 -65t-50.5 -156q0 -102 133 -102q78 0 154 18l17 95q8 47 8 89z" />
    <glyph glyph-name="zero.denominator" unicode="&#xf655;" horiz-adv-x="333" 
d="M393 171q-16 -92 -57.5 -133.5t-112.5 -41.5q-53 0 -84 31t-31 91q0 21 5 53l13 72q16 92 58 134t111 42q56 0 86 -31t30 -90q0 -30 -5 -55zM328 171l13 72q5 33 5 51q0 68 -58 68q-75 0 -96 -119l-13 -72q-5 -32 -5 -49q0 -68 60 -68q73 0 94 117z" />
    <glyph glyph-name="one.denominator" unicode="&#xf656;" horiz-adv-x="282" 
d="M280 416h32q10 0 9 -10l-69 -395q0 -11 -12 -11h-45q-8 0 -7 11l60 341l-78 -31q-12 -6 -11 7l6 37q1 8 10 11l79 33q15 7 26 7z" />
    <glyph glyph-name="two.denominator" unicode="&#xf657;" horiz-adv-x="341" 
d="M413 336q0 -44 -24 -73t-70 -58l-58 -36q-45 -28 -60 -50t-22 -57l-1 -5h173q6 0 9 -2t2 -8l-6 -37q-2 -10 -15 -10h-225q-10 0 -10 12l7 40q9 55 34.5 93t80.5 71l61 37q38 23 49 37.5t11 38.5q0 19 -16.5 26.5t-57.5 7.5q-48 0 -90 -7q-8 -1 -11 1.5t-1 8.5l6 31
q1 7 14 10q52 12 97 12q58 0 90.5 -21.5t32.5 -61.5z" />
    <glyph glyph-name="three.denominator" unicode="&#xf658;" horiz-adv-x="338" 
d="M186 407q39 12 91 12q62 0 96.5 -25.5t34.5 -68.5q0 -73 -68 -109q35 -22 35 -75q0 -74 -45.5 -109.5t-122.5 -35.5q-55 0 -93 12q-9 2 -8 11l5 29q2 11 12 11q3 0 19 -2q38 -4 61 -4q54 0 81.5 17t27.5 69q0 51 -51 51h-100q-12 0 -10 11l6 31q2 11 14 11h98
q36 0 55 19.5t19 54.5q0 25 -20 35t-65 10q-31 0 -80 -7q-6 -1 -8.5 2t-1.5 9l5 30q1 7 13 11z" />
    <glyph glyph-name="four.denominator" unicode="&#xf659;" horiz-adv-x="333" 
d="M396 124q-3 -17 -22 -17h-38l-15 -88q-2 -7 -8 -13t-14 -6h-31q-17 0 -13 19l15 88h-147q-17 0 -23 6t-3 22l3 20q3 15 13 26l202 224q11 11 22 11h31q22 0 19 -20l-41 -233h38q8 0 12.5 -5t3.5 -12zM281 163l28 162l-141 -162h113z" />
    <glyph glyph-name="five.denominator" unicode="&#xf65a;" horiz-adv-x="333" 
d="M125 61q45 -8 92 -8q96 0 96 96q0 29 -21.5 40.5t-72.5 11.5h-65q-18 0 -13 19l46 179q5 17 22 17h186q17 0 14 -18l-4 -24q-3 -16 -21 -16h-148l-24 -100h17q75 0 111.5 -23.5t36.5 -77.5q0 -77 -44.5 -119t-126.5 -42q-57 0 -94 10q-15 5 -13 18l4 20q3 19 22 17z" />
    <glyph glyph-name="six.denominator" unicode="&#xf65b;" horiz-adv-x="333" 
d="M195 255q36 9 75 9q123 0 123 -100q0 -76 -44 -122t-127 -46q-54 0 -84 28t-30 84q0 18 5 48l16 95q16 90 58 129t121 39q54 0 92 -9q18 -4 15 -18l-3 -21q-3 -13 -11 -15t-23 1q-63 6 -80 6q-52 0 -72.5 -25.5t-30.5 -82.5zM186 202l-8 -46q-5 -28 -5 -44
q0 -33 15 -46.5t44 -13.5q41 0 67 26.5t26 81.5q0 50 -65 50q-42 0 -74 -8z" />
    <glyph glyph-name="seven.denominator" unicode="&#xf65c;" horiz-adv-x="333" 
d="M132 24l219 334h-177q-19 0 -16 16l4 23q4 19 23 19h205q33 0 33 -25q0 -26 -16 -49l-214 -333q-6 -9 -19 -9h-32q-25 0 -10 24z" />
    <glyph glyph-name="eight.denominator" unicode="&#xf65d;" horiz-adv-x="333" 
d="M358 216q32 -24 32 -69q0 -71 -44.5 -111t-120.5 -40h-5q-53 0 -86 25.5t-33 73.5q0 36 18 70t46 51q-31 28 -31 67q0 66 46 101t115 35h5q55 0 87.5 -22.5t32.5 -67.5q0 -76 -62 -113zM241 190q-35 0 -54.5 -25t-19.5 -61q0 -51 64 -51h5q39 0 63.5 24t24.5 65
q0 20 -12 34t-37 14h-34zM250 243h34q36 0 54 22t18 53q0 46 -66 46h-5q-41 0 -63.5 -20t-22.5 -56q0 -45 51 -45z" />
    <glyph glyph-name="nine.denominator" unicode="&#xf65e;" horiz-adv-x="333" 
d="M299 420q114 0 114 -113q0 -24 -4 -47l-17 -95q-16 -91 -57.5 -130t-120.5 -39q-55 0 -93 9q-17 4 -15 18l4 21q3 13 11 15t23 -1q60 -6 80 -6q52 0 72 26.5t31 82.5q-36 -9 -75 -9q-118 0 -118 101q0 71 44.5 119t120.5 48zM289 364q-38 0 -65 -27.5t-27 -80.5
q0 -50 64 -50q43 0 75 8l8 46q4 21 4 42q0 34 -14.5 48t-44.5 14z" />
    <glyph glyph-name="zero.numerator" unicode="&#xf661;" horiz-adv-x="333" 
d="M393 498q-16 -92 -57.5 -133.5t-112.5 -41.5q-53 0 -84 31t-31 91q0 21 5 53l13 72q16 92 58 134t111 42q56 0 86 -31t30 -90q0 -30 -5 -55zM328 498l13 72q5 33 5 51q0 68 -58 68q-75 0 -96 -119l-13 -72q-5 -32 -5 -49q0 -68 60 -68q73 0 94 117z" />
    <glyph glyph-name="one.numerator" unicode="&#xf662;" horiz-adv-x="282" 
d="M280 743h32q10 0 9 -10l-69 -395q0 -11 -12 -11h-45q-8 0 -7 11l60 341l-78 -31q-12 -6 -11 7l6 37q1 8 10 11l79 33q15 7 26 7z" />
    <glyph glyph-name="two.numerator" unicode="&#xf663;" horiz-adv-x="341" 
d="M413 663q0 -44 -24 -73t-70 -58l-58 -36q-45 -28 -60 -50t-22 -57l-1 -5h173q6 0 9 -2t2 -8l-6 -37q-2 -10 -15 -10h-225q-10 0 -10 12l7 40q9 55 34.5 93t80.5 71l61 37q38 23 49 37.5t11 38.5q0 19 -16.5 26.5t-57.5 7.5q-48 0 -90 -7q-8 -1 -11 1.5t-1 8.5l6 31
q1 7 14 10q52 12 97 12q58 0 90.5 -21.5t32.5 -61.5z" />
    <glyph glyph-name="three.numerator" unicode="&#xf664;" horiz-adv-x="338" 
d="M186 734q39 12 91 12q62 0 96.5 -25.5t34.5 -68.5q0 -73 -68 -109q35 -22 35 -75q0 -74 -45.5 -109.5t-122.5 -35.5q-55 0 -93 12q-9 2 -8 11l5 29q2 11 12 11q3 0 19 -2q38 -4 61 -4q54 0 81.5 17t27.5 69q0 51 -51 51h-100q-12 0 -10 11l6 31q2 11 14 11h98
q36 0 55 19.5t19 54.5q0 25 -20 35t-65 10q-31 0 -80 -7q-6 -1 -8.5 2t-1.5 9l5 30q1 7 13 11z" />
    <glyph glyph-name="four.numerator" unicode="&#xf665;" horiz-adv-x="333" 
d="M396 451q-3 -17 -22 -17h-38l-15 -88q-2 -7 -8 -13t-14 -6h-31q-17 0 -13 19l15 88h-147q-17 0 -23 6t-3 22l3 20q3 15 13 26l202 224q11 11 22 11h31q22 0 19 -20l-41 -233h38q8 0 12.5 -5t3.5 -12zM281 490l28 162l-141 -162h113z" />
    <glyph glyph-name="five.numerator" unicode="&#xf666;" horiz-adv-x="333" 
d="M125 388q45 -8 92 -8q96 0 96 96q0 29 -21.5 40.5t-72.5 11.5h-65q-18 0 -13 19l46 179q5 17 22 17h186q17 0 14 -18l-4 -24q-3 -16 -21 -16h-148l-24 -100h17q75 0 111.5 -23.5t36.5 -77.5q0 -77 -44.5 -119t-126.5 -42q-57 0 -94 10q-15 5 -13 18l4 20q3 19 22 17z" />
    <glyph glyph-name="six.numerator" unicode="&#xf667;" horiz-adv-x="333" 
d="M195 582q36 9 75 9q123 0 123 -100q0 -76 -44 -122t-127 -46q-54 0 -84 28t-30 84q0 18 5 48l16 95q16 90 58 129t121 39q54 0 92 -9q18 -4 15 -18l-3 -21q-3 -13 -11 -15t-23 1q-63 6 -80 6q-52 0 -72.5 -25.5t-30.5 -82.5zM186 529l-8 -46q-5 -28 -5 -44
q0 -33 15 -46.5t44 -13.5q41 0 67 26.5t26 81.5q0 50 -65 50q-42 0 -74 -8z" />
    <glyph glyph-name="seven.numerator" unicode="&#xf668;" horiz-adv-x="333" 
d="M132 351l219 334h-177q-19 0 -16 16l4 23q4 19 23 19h205q33 0 33 -25q0 -26 -16 -49l-214 -333q-6 -9 -19 -9h-32q-25 0 -10 24z" />
    <glyph glyph-name="eight.numerator" unicode="&#xf669;" horiz-adv-x="333" 
d="M358 543q32 -24 32 -69q0 -71 -44.5 -111t-120.5 -40h-5q-53 0 -86 25.5t-33 73.5q0 36 18 70t46 51q-31 28 -31 67q0 66 46 101t115 35h5q55 0 87.5 -22.5t32.5 -67.5q0 -76 -62 -113zM241 517q-35 0 -54.5 -25t-19.5 -61q0 -51 64 -51h5q39 0 63.5 24t24.5 65
q0 20 -12 34t-37 14h-34zM250 570h34q36 0 54 22t18 53q0 46 -66 46h-5q-41 0 -63.5 -20t-22.5 -56q0 -45 51 -45z" />
    <glyph glyph-name="nine.numerator" unicode="&#xf66a;" horiz-adv-x="333" 
d="M299 747q114 0 114 -113q0 -24 -4 -47l-17 -95q-16 -91 -57.5 -130t-120.5 -39q-55 0 -93 9q-17 4 -15 18l4 21q3 13 11 15t23 -1q60 -6 80 -6q52 0 72 26.5t31 82.5q-36 -9 -75 -9q-118 0 -118 101q0 71 44.5 119t120.5 48zM289 691q-38 0 -65 -27.5t-27 -80.5
q0 -50 64 -50q43 0 75 8l8 46q4 21 4 42q0 34 -14.5 48t-44.5 14z" />
    <glyph glyph-name="commaaccent" unicode="&#xf6c3;" horiz-adv-x="373" 
d="M162 -49h69q11 0 9 -11l-2 -8l-74 -109q-5 -8 -7.5 -11t-7.5 -5.5t-12 -2.5h-41q-9 0 -8 8q0 1 1 3.5t2 4.5l48 112q7 19 23 19z" />
    <glyph glyph-name="one.fitted" unicode="&#xf6dc;" 
d="M435 743h41q20 0 16 -19l-124 -704q-4 -20 -22 -20h-55q-18 0 -14 20l110 629l-138 -56q-7 -3 -13 -3q-10 0 -8 11l9 51q1 8 12 13l164 72q13 6 22 6z" />
    <glyph glyph-name="a.superior" unicode="&#xf6e9;" horiz-adv-x="326" 
d="M290 643q47 0 103 -13q13 -3 11 -17l-49 -281q-2 -15 -17 -15h-23q-16 0 -13 15l3 16q-44 -35 -94 -35t-72 39.5t-11 100.5l11 61q8 41 22 67.5t35.5 39.5t42.5 17.5t51 4.5zM308 395l36 194q-30 6 -54 6q-42 0 -64.5 -19.5t-31.5 -70.5l-10 -62q-12 -81 44 -81
q31 0 80 33z" />
    <glyph glyph-name="b.superior" unicode="&#xf6ea;" horiz-adv-x="324" 
d="M387 461q-13 -72 -47 -108t-106 -36q-55 0 -102 10q-16 2 -13 18l70 393q2 16 17 16h28q16 0 14 -16l-18 -99q29 4 62 4q60 0 86.5 -38t15.5 -104zM328 461l7 40q8 47 -3.5 68.5t-48.5 21.5q-42 0 -62 -3l-38 -215q2 0 5 -0.5t5 -0.5q34 -2 51 -2q37 0 56.5 23t27.5 68z
" />
    <glyph glyph-name="d.superior" unicode="&#xf6eb;" horiz-adv-x="321" 
d="M359 345q-3 -16 -19 -18q-51 -10 -106 -10q-60 0 -87 40.5t-15 103.5l7 40q13 72 47.5 107t105.5 35q32 0 59 -4l18 99q2 16 18 16h28q16 0 14 -16zM304 373l38 215q-26 3 -59 3q-37 0 -56.5 -22.5t-27.5 -67.5l-7 -40q-9 -47 2.5 -69t49.5 -22q16 0 50 2q2 0 5 0.5
t5 0.5z" />
    <glyph glyph-name="e.superior" unicode="&#xf6ec;" horiz-adv-x="327" 
d="M393 477q-3 -17 -18 -17h-183l-1 -3q-3 -18 -3 -31q0 -56 61 -56q59 0 102 6q14 0 13 -13l-4 -18q-2 -15 -18 -18q-47 -10 -103 -10q-48 0 -79 27.5t-31 80.5q0 15 3 35l8 47q25 136 154 136q51 0 78 -30.5t27 -79.5q0 -9 -2 -27zM339 507q2 20 2 28q0 56 -56 56
q-71 0 -85 -84h139z" />
    <glyph glyph-name="i.superior" unicode="&#xf6ed;" horiz-adv-x="143" 
d="M179 337q-4 -16 -19 -16h-28q-7 0 -10.5 4.5t-2.5 11.5l51 287q2 16 18 16h28q16 0 14 -16zM243 696q-2 -16 -19 -16h-29q-16 0 -14 16l8 45q4 16 20 16h29q7 0 10.5 -4.5t2.5 -11.5z" />
    <glyph glyph-name="l.superior" unicode="&#xf6ee;" horiz-adv-x="142" 
d="M179 337q-1 -6 -6.5 -11t-12.5 -5h-29q-7 0 -10.5 4.5t-2.5 11.5l71 401q2 16 18 16h29q16 0 14 -16z" />
    <glyph glyph-name="m.superior" unicode="&#xf6ef;" horiz-adv-x="469" 
d="M499 337q-4 -16 -19 -16h-27q-7 0 -10.5 4.5t-2.5 11.5l35 199q10 55 -36 55q-19 0 -62 -13q1 -17 -3 -41l-35 -200q-1 -6 -6.5 -11t-12.5 -5h-30q-16 0 -12 16l35 200q6 33 -0.5 43.5t-27.5 10.5q-26 0 -67 -19l-41 -235q-1 -6 -6.5 -11t-11.5 -5h-30q-6 0 -9 4.5
t-2 11.5l51 287q2 16 17 16h28q16 0 14 -16l-1 -1q42 21 81 21q35 0 54 -20q53 20 88 20q48 0 70.5 -27t13.5 -81z" />
    <glyph glyph-name="o.superior" unicode="&#xf6f0;" horiz-adv-x="329" 
d="M391 459q-24 -142 -155 -142q-50 0 -78.5 31t-28.5 81q0 16 3 34l7 38q25 142 155 142q52 0 80 -30t28 -80q0 -15 -3 -32zM332 459l8 42q3 17 3 29q0 61 -58 61q-70 0 -86 -90l-8 -42q-2 -10 -2 -27q0 -62 57 -62q71 0 86 89z" />
    <glyph glyph-name="r.superior" unicode="&#xf6f1;" horiz-adv-x="210" 
d="M314 606q-2 -15 -19 -15q-36 0 -77 -22l-41 -232q-2 -16 -19 -16h-27q-17 0 -13 16l51 287q2 16 18 16h24q8 0 11.5 -3t2.5 -10l-1 -8q39 24 80 24q17 0 14 -14z" />
    <glyph glyph-name="s.superior" unicode="&#xf6f2;" horiz-adv-x="277" 
d="M119 326q-15 2 -12 16l3 19q1 6 2.5 8.5t5.5 4t12 0.5q54 -6 87 -6q57 0 57 39q0 18 -32 39l-51 34q-48 31 -48 78t32 66t92 19q53 0 88 -7q13 -2 11 -15l-3 -19q-3 -15 -19 -15q-50 5 -86 5q-26 0 -39 -6t-13 -24q0 -15 29 -37q21 -14 49 -32q49 -32 49 -78
q0 -98 -125 -98q-46 0 -89 9z" />
    <glyph glyph-name="t.superior" unicode="&#xf6f3;" horiz-adv-x="223" 
d="M291 335q-3 -13 -17 -15q-17 -3 -39 -3q-69 0 -69 56q0 15 2 24l33 191l-49 7q-15 2 -12 15l3 15q3 15 18 15h49l9 50q3 14 19 16l32 4q8 1 10.5 -2.5t0.5 -10.5l-10 -57h55q18 0 14 -16l-4 -19q-3 -17 -19 -17h-55l-33 -191q-2 -12 -2 -15q0 -16 20 -16h32q10 0 13 -2.5
t2 -9.5z" />
    <glyph glyph-name="zero.oldstyle" unicode="&#xf730;" 
d="M595 269q-26 -144 -98 -210t-189 -66q-100 0 -155.5 53.5t-55.5 151.5q0 27 7 71l3 15q48 276 286 276q99 0 155 -53.5t56 -153.5q0 -31 -6 -69zM504 269l3 15q6 38 6 67q0 132 -125 132q-73 0 -122.5 -49t-66.5 -150l-3 -15q-7 -38 -7 -71q0 -128 126 -128
q153 0 189 199z" />
    <glyph glyph-name="one.oldstyle" unicode="&#xf731;" horiz-adv-x="387" 
d="M301 550h41q20 0 16 -19l-90 -511q-4 -20 -22 -20h-55q-18 0 -14 20l76 436l-138 -56q-7 -3 -13 -3q-10 0 -8 11l9 51q1 8 12 13l164 72q13 6 22 6z" />
    <glyph glyph-name="two.oldstyle" unicode="&#xf732;" 
d="M184 79h326q20 0 17 -17l-7 -44q-3 -18 -23 -18h-399q-18 0 -15 19l7 38q6 37 22 66t35.5 50t55 41.5t67 35t85.5 35.5q94 38 123.5 61t29.5 73q0 38 -31 51.5t-105 13.5q-71 0 -180 -15h-4q-16 0 -13 18l7 35q3 15 22 18q82 20 181 20q112 0 163 -31t51 -110
q0 -76 -52.5 -122t-157.5 -83q-81 -29 -125 -53t-55.5 -39t-24.5 -43z" />
    <glyph glyph-name="three.oldstyle" unicode="&#xf733;" 
d="M589 409q0 -69 -34 -127.5t-95 -86.5q68 -37 68 -126q0 -134 -76.5 -200t-214.5 -66q-82 0 -166 20q-17 3 -15 19l6 34q3 19 23 17q103 -14 165 -14q186 0 186 187q0 40 -22.5 67t-74.5 27h-182q-19 0 -16 18l6 35q3 19 22 19h182q69 0 106.5 47t37.5 117q0 50 -29.5 69
t-105.5 19q-50 0 -174 -15h-3q-17 0 -14 17l6 35q3 15 23 19q100 20 172 20q104 0 161.5 -37.5t57.5 -113.5z" />
    <glyph glyph-name="four.oldstyle" unicode="&#xf734;" 
d="M474 80h87q19 0 16 -18l-7 -40q-4 -18 -22 -18h-87l-31 -178q-3 -20 -21 -20h-58q-16 0 -13 20l31 178h-289q-35 0 -35 26q0 8 1 13l6 38q3 19 19 37l369 415q14 16 32 16h59q26 0 22 -22zM442 411q0 4 -4 4q-3 0 -9 -6l-279 -315q-5 -7 -5 -9q0 -5 7 -5h231l59 329v2z
" />
    <glyph glyph-name="five.oldstyle" unicode="&#xf735;" 
d="M235 550h344q20 0 17 -17l-8 -44q-3 -16 -23 -16h-287l-54 -216h47q267 0 267 -173q0 -138 -80 -211t-221 -73q-101 0 -173 18q-19 3 -16 20l7 37q3 20 23 15q78 -14 172 -14t144.5 54.5t50.5 148.5q0 60 -42.5 81.5t-144.5 21.5h-117q-20 0 -16 18l87 333q5 17 23 17z
" />
    <glyph glyph-name="six.oldstyle" unicode="&#xf736;" 
d="M444 750q95 0 169 -17q9 -2 15 -6.5t5 -12.5l-7 -39q-4 -21 -27 -17q-78 16 -168 16q-101 0 -145.5 -55.5t-64.5 -166.5l-2 -11q96 20 154 20q95 0 153.5 -44.5t58.5 -140.5q0 -123 -79.5 -203t-213.5 -80q-198 0 -198 196q0 53 6 88l31 175q29 163 104.5 230.5
t208.5 67.5zM494 274q0 67 -35.5 91.5t-97.5 24.5q-78 0 -154 -18l-17 -95q-8 -47 -8 -89q0 -69 30 -95t93 -26q93 0 141 62t48 145z" />
    <glyph glyph-name="seven.oldstyle" unicode="&#xf737;" horiz-adv-x="542" 
d="M552 486q0 -32 -15 -55l-394 -610q-11 -15 -25 -15h-63q-12 0 -12 11q0 7 5 15l412 628q2 4 2 6q0 5 -6 5h-338q-20 0 -17 17l8 42q4 19 23 19h324q96 0 96 -63z" />
    <glyph glyph-name="eight.oldstyle" unicode="&#xf738;" 
d="M651 594q0 -66 -35 -122.5t-94 -83.5q71 -43 71 -133q0 -125 -79 -193.5t-207 -68.5h-10q-90 0 -149.5 48t-59.5 129q0 69 35.5 128t96.5 90q-70 39 -70 122q0 117 80 178.5t200 61.5h10q94 0 152.5 -40.5t58.5 -115.5zM561 579q0 51 -33 74t-101 23h-10
q-75 0 -126.5 -42.5t-51.5 -115.5q0 -42 26 -68t82 -26h62q67 0 109.5 44t42.5 111zM502 251q0 43 -25.5 72t-80.5 29h-62q-73 0 -113.5 -51.5t-40.5 -125.5q0 -55 32 -80.5t98 -25.5h10q86 0 134 49t48 133z" />
    <glyph glyph-name="nine.oldstyle" unicode="&#xf739;" 
d="M591 364q0 -53 -6 -88l-31 -175q-29 -163 -104.5 -230.5t-208.5 -67.5q-95 0 -169 17q-12 2 -16.5 6t-3.5 13l7 39q2 13 7.5 16t19.5 1q83 -16 168 -16q101 0 145.5 55.5t64.5 166.5l2 11q-96 -20 -154 -20q-94 0 -153 41.5t-59 125.5q0 135 78.5 218t214.5 83
q198 0 198 -196zM503 365q0 69 -30 95t-93 26q-88 0 -138.5 -65t-50.5 -156q0 -102 133 -102q78 0 154 18l17 95q8 47 8 89z" />
    </font>
</defs>
</svg>
